<svg width="1440" height="849" viewBox="0 0 1440 849" fill="none" xmlns="http://www.w3.org/2000/svg">
<g clip-path="url(#clip0_1503_131)">
<path d="M343.042 165.207L321.667 171.169L306.935 158.885C303.795 156.175 298.482 155.513 295.04 157.199L264.126 172.554C260.684 174.3 258.088 178.997 258.39 183.031L259.416 202.179L253.922 207.719C251.265 210.429 250.42 214.885 251.869 217.655L257.062 227.891C258.511 230.661 262.013 231.926 265.273 230.24L269.319 228.253C265.877 221.388 268.715 213.018 275.598 209.586C282.481 206.154 290.874 208.984 294.316 215.848L326.619 199.771C323.177 192.906 326.015 184.536 332.898 181.104C339.781 177.672 348.174 180.502 351.616 187.366L354.152 186.162C357.11 184.657 358.378 181.345 356.929 178.575L351.797 168.459C349.985 165.809 346.242 164.304 343.042 165.207ZM284.232 189.835L265.937 198.868L265.152 182.79C265.152 181.285 266.42 179.298 267.145 178.816L276.504 174.179L284.232 189.835ZM290.391 186.644L282.542 171.108L298.059 163.521C298.844 163.22 301.38 163.341 302.467 164.244L314.784 174.661L290.391 186.644Z" fill="#E0E0E0"/>
<path d="M322.09 131.005L323.479 132.751C327.585 128.114 334.83 127.693 339.419 131.908C344.068 136.003 344.491 143.229 340.265 147.805L362.001 167.495C366.107 162.859 373.352 162.437 377.941 166.652C382.591 170.747 383.013 177.973 378.787 182.549L381.564 185.018C383.798 186.885 386.817 186.764 388.568 184.958L394.848 178.033C396.659 176.046 397.021 172.493 395.451 169.783L392.493 164.123L397.565 149.31C398.651 146.239 397.625 141.964 395.331 139.917L374.319 121.13C372.024 118.962 367.737 118.48 364.658 119.745L350.408 126.127L349.442 106.919C349.382 106.136 348.718 105.534 347.933 105.594C347.148 105.654 346.544 106.317 346.604 107.099L347.45 124.381L335.012 116.674C332.657 115.228 329.517 115.71 327.766 117.517L321.668 124.321C319.917 126.188 319.977 129.138 322.09 131.005ZM375.587 149.009L385.066 138.472L391.466 144.132C392.07 144.613 392.493 146.54 392.191 147.624L388.025 160.089L375.587 149.009ZM348.657 136.966L354.937 130.162L366.952 124.863C368.16 124.321 369.971 124.742 370.515 125.224L380.9 134.618L360.009 157.56L347.752 146.54C349.02 143.59 349.442 140.338 348.657 136.966Z" fill="#E0E0E0"/>
<path d="M252.956 131.908L258.571 141.542C260.081 144.192 263.583 145.155 266.239 143.65L267.205 143.108L269.983 147.985C270.707 149.25 272.338 149.671 273.787 148.949L276.142 147.564C277.41 146.841 277.832 145.216 277.108 143.77L274.33 138.893L304.399 121.431C307.056 119.925 308.022 116.433 306.512 113.783L300.897 104.149C299.75 102.222 297.395 101.078 295.161 101.499L282.783 88.553C280.67 86.3251 276.745 85.7831 274.089 87.2885L251.446 100.355C248.79 101.861 247.401 105.654 248.246 108.605L253.258 125.646C251.869 127.452 251.567 129.981 252.956 131.908ZM289.908 115.469C288.761 113.542 289.485 110.893 291.418 109.749C293.35 108.605 296.006 109.327 297.154 111.254C298.301 113.181 297.576 115.831 295.644 116.975C293.652 118.119 290.995 117.396 289.908 115.469ZM258.149 122.454L253.681 107.22C253.56 106.678 253.982 105.714 254.405 105.413L277.047 92.2864C277.47 91.9853 278.557 92.1659 278.859 92.5875L289.908 104.028L258.149 122.454ZM260.624 132.209C259.477 130.282 260.201 127.633 262.134 126.489C264.066 125.345 266.722 126.067 267.87 127.994C269.017 129.921 268.292 132.57 266.36 133.714C264.428 134.979 261.771 134.136 260.624 132.209Z" fill="#E0E0E0"/>
<path d="M333.079 106.196L317.38 88.6735C316.233 87.409 316.414 85.3015 317.682 84.2176L322.815 79.7617C324.083 78.6176 326.196 78.7982 327.283 80.0628L342.981 97.465C344.129 98.7295 343.947 100.837 342.679 101.921L337.547 106.377C336.279 107.641 334.347 107.461 333.079 106.196Z" fill="#E0E0E0"/>
<path d="M331.449 211.573V223.495C331.449 227.469 340.083 230.661 350.649 230.661C361.216 230.661 369.85 227.469 369.85 223.495V211.512C369.85 207.538 361.216 204.347 350.649 204.347C339.902 204.347 331.449 207.538 331.449 211.573ZM339.781 211.573C339.781 209.345 344.732 207.598 350.649 207.598C356.748 207.598 361.518 209.345 361.518 211.573C361.518 213.8 356.567 215.547 350.649 215.547C344.551 215.547 339.781 213.8 339.781 211.573Z" fill="#E0E0E0"/>
<path d="M1214.41 150.032L1192.31 152.013L1180.05 137.258C1177.46 134.023 1172.35 132.407 1168.66 133.44L1135.47 142.926C1131.77 144.019 1128.36 148.166 1127.93 152.188L1125.46 171.204L1119.05 175.654C1115.95 177.837 1114.31 182.065 1115.23 185.052L1118.48 196.061C1119.4 199.048 1122.61 200.928 1126.12 199.862L1130.46 198.642C1128.33 191.267 1132.64 183.551 1140.03 181.426C1147.42 179.301 1155.16 183.608 1157.3 190.983L1191.98 181.039C1189.85 173.664 1194.16 165.948 1201.55 163.823C1208.94 161.698 1216.68 166.005 1218.82 173.38L1221.53 172.656C1224.71 171.713 1226.56 168.687 1225.64 165.7L1222.43 154.82C1221.13 151.885 1217.72 149.725 1214.41 150.032ZM1152.11 163.572L1132.47 169.132L1134.62 153.179C1134.9 151.699 1136.5 149.975 1137.3 149.633L1147.35 146.773L1152.11 163.572ZM1158.74 161.552L1153.84 144.849L1170.48 140.206C1171.31 140.052 1173.78 140.631 1174.68 141.717L1184.91 154.198L1158.74 161.552Z" fill="#E0E0E0"/>
<path d="M1200.02 112.594L1201.07 114.564C1205.95 110.75 1213.15 111.651 1216.89 116.629C1220.72 121.5 1219.83 128.683 1214.84 132.415L1232.64 155.725C1237.52 151.911 1244.72 152.813 1248.47 157.791C1252.29 162.662 1251.4 169.844 1246.41 173.577L1248.69 176.509C1250.55 178.75 1253.54 179.18 1255.59 177.722L1263.02 172.052C1265.17 170.427 1266.17 166.999 1265.12 164.05L1263.24 157.946L1270.91 144.301C1272.54 141.478 1272.31 137.087 1270.42 134.658L1253.17 112.367C1251.31 109.819 1247.18 108.567 1243.92 109.251L1228.75 112.94L1231.29 93.8754C1231.37 93.0947 1230.83 92.3819 1230.04 92.2986C1229.26 92.2153 1228.55 92.757 1228.46 93.5377L1226.16 110.686L1215.33 100.848C1213.27 98.9989 1210.1 98.9025 1208.05 100.361L1200.82 105.945C1198.75 107.462 1198.28 110.375 1200.02 112.594ZM1249.35 140.014L1260.59 131.373L1265.86 138.101C1266.36 138.684 1266.43 140.656 1265.93 141.667L1259.57 153.168L1249.35 140.014ZM1225.06 123.281L1232.47 117.73L1245.25 114.701C1246.53 114.387 1248.24 115.131 1248.69 115.703L1257.19 126.826L1232.48 145.593L1222.43 132.531C1224.21 129.86 1225.22 126.739 1225.06 123.281Z" fill="#E0E0E0"/>
<path d="M1131.87 100.929L1135.64 111.423C1136.64 114.302 1139.91 115.885 1142.8 114.887L1143.85 114.53L1145.69 119.831C1146.18 121.206 1147.7 121.916 1149.26 121.469L1151.83 120.535C1153.2 120.054 1153.91 118.532 1153.46 116.979L1151.62 111.679L1184.36 99.9668C1187.24 98.9689 1188.83 95.7099 1187.83 92.8303L1184.05 82.3364C1183.27 80.2332 1181.17 78.6806 1178.89 78.6894L1169.07 63.7107C1167.4 61.136 1163.64 59.8904 1160.75 60.8884L1136.11 69.6263C1133.23 70.6242 1131.17 74.1025 1131.47 77.1575L1133.3 94.8252C1131.61 96.3494 1130.85 98.7816 1131.87 100.929ZM1171.19 91.4732C1170.41 89.37 1171.61 86.8962 1173.71 86.122C1175.82 85.3477 1178.3 86.5407 1179.08 88.6439C1179.86 90.7471 1178.67 93.2209 1176.56 93.9951C1174.39 94.7584 1171.91 93.5654 1171.19 91.4732ZM1138.69 92.5749L1137.06 76.7824C1137.04 76.2275 1137.63 75.3568 1138.1 75.1375L1162.75 66.3404C1163.22 66.121 1164.26 66.496 1164.48 66.9654L1173.27 80.2225L1138.69 92.5749ZM1139.35 102.617C1138.58 100.514 1139.77 98.0401 1141.88 97.2659C1143.98 96.4917 1146.47 97.6847 1147.24 99.7878C1148.02 101.891 1146.83 104.365 1144.72 105.139C1142.59 106.032 1140.13 104.72 1139.35 102.617Z" fill="#E0E0E0"/>
<path d="M1215.33 90.1934L1203.07 70.1114C1202.17 68.6596 1202.73 66.62 1204.18 65.7844L1210.03 62.3345C1211.49 61.4396 1213.53 62.001 1214.37 63.4419L1226.65 83.4055C1227.55 84.8573 1226.99 86.8969 1225.54 87.7325L1219.69 91.1824C1218.21 92.1956 1216.35 91.6671 1215.33 90.1934Z" fill="#E0E0E0"/>
<path d="M1194.59 193.522L1192.42 205.247C1191.7 209.155 1199.61 213.861 1210.01 215.78C1220.4 217.698 1229.47 216.128 1230.19 212.22L1232.36 200.436C1233.09 196.528 1225.17 191.822 1214.78 189.903C1204.21 187.951 1195.32 189.555 1194.59 193.522ZM1202.78 195.035C1203.19 192.844 1208.37 192.026 1214.19 193.101C1220.19 194.208 1224.56 196.791 1224.16 198.982C1223.75 201.173 1218.57 201.991 1212.75 200.917C1206.75 199.81 1202.38 197.226 1202.78 195.035Z" fill="#E0E0E0"/>
<path d="M1256.27 741.022L1241.54 742.342L1233.37 732.506C1231.64 730.349 1228.23 729.272 1225.77 729.96L1203.65 736.284C1201.18 737.012 1198.91 739.777 1198.62 742.459L1196.97 755.136L1192.7 758.103C1190.63 759.558 1189.54 762.377 1190.15 764.368L1192.32 771.708C1192.93 773.699 1195.07 774.952 1197.42 774.241L1200.31 773.428C1198.88 768.511 1201.76 763.368 1206.68 761.951C1211.61 760.534 1216.77 763.405 1218.2 768.322L1241.32 761.693C1239.9 756.776 1242.77 751.632 1247.7 750.215C1252.63 748.798 1257.78 751.67 1259.21 756.587L1261.02 756.104C1263.14 755.475 1264.37 753.458 1263.76 751.466L1261.62 744.213C1260.75 742.257 1258.48 740.817 1256.27 741.022ZM1214.74 750.048L1201.65 753.755L1203.08 743.119C1203.26 742.133 1204.33 740.983 1204.87 740.755L1211.56 738.849L1214.74 750.048ZM1219.16 748.701L1215.89 737.566L1226.99 734.471C1227.54 734.368 1229.19 734.754 1229.79 735.478L1236.6 743.799L1219.16 748.701Z" fill="#E0E0E0"/>
<path d="M1246.68 716.063L1247.38 717.376C1250.63 714.833 1255.43 715.434 1257.93 718.753C1260.48 722 1259.88 726.788 1256.56 729.277L1268.42 744.817C1271.68 742.274 1276.48 742.875 1278.98 746.194C1281.53 749.441 1280.93 754.229 1277.61 756.718L1279.13 758.673C1280.37 760.167 1282.36 760.453 1283.73 759.481L1288.68 755.702C1290.11 754.618 1290.78 752.333 1290.08 750.366L1288.82 746.298L1293.94 737.2C1295.02 735.319 1294.87 732.392 1293.61 730.772L1282.11 715.912C1280.87 714.213 1278.12 713.378 1275.95 713.834L1265.83 716.294L1267.52 703.584C1267.58 703.063 1267.22 702.588 1266.69 702.533C1266.17 702.477 1265.7 702.838 1265.64 703.359L1264.1 714.791L1256.88 708.232C1255.51 706.999 1253.4 706.935 1252.03 707.907L1247.21 711.63C1245.83 712.642 1245.52 714.583 1246.68 716.063ZM1279.57 734.342L1287.06 728.582L1290.57 733.067C1290.91 733.456 1290.95 734.771 1290.62 735.445L1286.38 743.112L1279.57 734.342ZM1263.37 723.187L1268.31 719.487L1276.83 717.467C1277.69 717.258 1278.82 717.754 1279.12 718.135L1284.79 725.551L1268.32 738.062L1261.62 729.354C1262.81 727.573 1263.48 725.493 1263.37 723.187Z" fill="#E0E0E0"/>
<path d="M1201.24 708.286L1203.76 715.282C1204.43 717.201 1206.61 718.257 1208.53 717.592L1209.23 717.353L1210.46 720.887C1210.78 721.804 1211.8 722.278 1212.84 721.979L1214.55 721.356C1215.47 721.036 1215.94 720.021 1215.64 718.986L1214.41 715.453L1236.24 707.645C1238.16 706.979 1239.22 704.807 1238.55 702.887L1236.03 695.891C1235.52 694.489 1234.11 693.454 1232.59 693.46L1226.05 683.474C1224.93 681.757 1222.42 680.927 1220.5 681.592L1204.07 687.418C1202.15 688.083 1200.78 690.402 1200.98 692.438L1202.2 704.217C1201.07 705.233 1200.57 706.854 1201.24 708.286ZM1227.46 701.982C1226.94 700.58 1227.74 698.931 1229.14 698.415C1230.55 697.899 1232.2 698.694 1232.72 700.096C1233.24 701.498 1232.44 703.147 1231.04 703.664C1229.59 704.172 1227.94 703.377 1227.46 701.982ZM1205.79 702.717L1204.71 692.188C1204.69 691.818 1205.09 691.238 1205.4 691.092L1221.83 685.227C1222.15 685.081 1222.84 685.331 1222.99 685.644L1228.84 694.482L1205.79 702.717ZM1206.23 709.411C1205.72 708.009 1206.51 706.36 1207.92 705.844C1209.32 705.328 1210.98 706.123 1211.5 707.525C1212.01 708.927 1211.22 710.577 1209.81 711.093C1208.39 711.688 1206.75 710.814 1206.23 709.411Z" fill="#E0E0E0"/>
<path d="M1256.88 701.129L1248.71 687.741C1248.11 686.773 1248.49 685.413 1249.45 684.856L1253.35 682.556C1254.32 681.96 1255.69 682.334 1256.25 683.295L1264.43 696.604C1265.03 697.571 1264.66 698.931 1263.7 699.488L1259.79 701.788C1258.81 702.464 1257.56 702.111 1256.88 701.129Z" fill="#E0E0E0"/>
<path d="M1243.06 770.014L1241.62 777.831C1241.13 780.436 1246.41 783.574 1253.34 784.853C1260.26 786.132 1266.31 785.085 1266.79 782.479L1268.24 774.624C1268.72 772.018 1263.45 768.881 1256.52 767.602C1249.47 766.301 1243.55 767.37 1243.06 770.014ZM1248.52 771.023C1248.79 769.563 1252.25 769.017 1256.13 769.733C1260.13 770.472 1263.04 772.194 1262.77 773.655C1262.5 775.115 1259.04 775.661 1255.16 774.944C1251.17 774.206 1248.25 772.484 1248.52 771.023Z" fill="#E0E0E0"/>
<path d="M99.698 577.032L121.8 579.013L134.057 564.258C136.652 561.023 141.757 559.407 145.447 560.44L178.636 569.926C182.338 571.019 185.744 575.166 186.179 579.188L188.647 598.204L195.056 602.654C198.161 604.837 199.801 609.065 198.879 612.052L195.632 623.061C194.71 626.048 191.495 627.928 187.983 626.862L183.644 625.642C185.782 618.267 181.471 610.551 174.079 608.426C166.687 606.301 158.948 610.608 156.81 617.983L122.125 608.039C124.262 600.664 119.952 592.948 112.56 590.823C105.168 588.698 97.4284 593.005 95.2905 600.38L92.5781 599.656C89.3953 598.713 87.547 595.687 88.4691 592.7L91.679 581.82C92.9792 578.885 96.3871 576.725 99.698 577.032ZM162.002 590.572L181.633 596.132L179.485 580.179C179.212 578.699 177.604 576.975 176.804 576.633L166.759 573.773L162.002 590.572ZM155.366 588.552L160.264 571.849L143.627 567.206C142.8 567.052 140.328 567.631 139.424 568.717L129.203 581.198L155.366 588.552Z" fill="#E0E0E0"/>
<path d="M114.09 539.594L113.042 541.564C108.162 537.75 100.961 538.651 97.2136 543.629C93.3852 548.5 94.2817 555.683 99.269 559.415L81.4693 582.725C76.5898 578.911 69.3882 579.813 65.641 584.791C61.8126 589.662 62.7091 596.844 67.6964 600.577L65.4135 603.509C63.5555 605.75 60.5649 606.18 58.515 604.722L51.0824 599.052C48.9403 597.427 47.939 593.999 48.9907 591.05L50.8723 584.946L43.1949 571.301C41.5684 568.478 41.8015 564.087 43.686 561.658L60.9372 539.367C62.7999 536.819 66.9281 535.567 70.1858 536.251L85.3575 539.94L82.8195 520.875C82.7367 520.095 83.2805 519.382 84.0633 519.299C84.8461 519.215 85.5602 519.757 85.643 520.538L87.9499 537.686L98.7816 527.848C100.835 525.999 104.01 525.903 106.06 527.361L113.292 532.945C115.353 534.462 115.83 537.375 114.09 539.594ZM64.7529 567.014L53.5174 558.373L48.2515 565.101C47.7452 565.684 47.6794 567.656 48.1731 568.667L54.5335 580.168L64.7529 567.014ZM89.0476 550.281L81.637 544.73L68.859 541.701C67.5731 541.387 65.8683 542.131 65.4214 542.703L56.9146 553.826L81.6245 572.593L91.6768 559.531C89.8941 556.86 88.8881 553.739 89.0476 550.281Z" fill="#E0E0E0"/>
<path d="M182.24 527.929L178.467 538.423C177.464 541.302 174.195 542.885 171.309 541.887L170.261 541.53L168.415 546.831C167.933 548.206 166.406 548.916 164.85 548.469L162.283 547.535C160.904 547.054 160.194 545.532 160.644 543.979L162.489 538.679L129.749 526.967C126.863 525.969 125.279 522.71 126.282 519.83L130.055 509.336C130.833 507.233 132.941 505.681 135.214 505.689L145.036 490.711C146.709 488.136 150.47 486.89 153.356 487.888L177.995 496.626C180.881 497.624 182.935 501.103 182.64 504.158L180.806 521.825C182.5 523.349 183.256 525.782 182.24 527.929ZM142.917 518.473C143.695 516.37 142.502 513.896 140.394 513.122C138.286 512.348 135.805 513.541 135.026 515.644C134.248 517.747 135.442 520.221 137.55 520.995C139.717 521.758 142.198 520.565 142.917 518.473ZM175.417 519.575L177.044 503.782C177.065 503.228 176.474 502.357 176.004 502.138L151.354 493.34C150.884 493.121 149.848 493.496 149.628 493.965L140.839 507.223L175.417 519.575ZM174.754 529.617C175.532 527.514 174.338 525.04 172.231 524.266C170.123 523.492 167.642 524.685 166.863 526.788C166.085 528.891 167.279 531.365 169.387 532.139C171.516 533.032 173.976 531.72 174.754 529.617Z" fill="#E0E0E0"/>
<path d="M98.7795 517.193L111.035 497.111C111.934 495.66 111.373 493.62 109.929 492.784L104.073 489.334C102.619 488.44 100.573 489.001 99.7341 490.442L87.4564 510.405C86.5579 511.857 87.1188 513.897 88.5625 514.732L94.4185 518.182C95.895 519.196 97.7623 518.667 98.7795 517.193Z" fill="#E0E0E0"/>
<path d="M119.518 620.522L121.683 632.247C122.405 636.155 114.494 640.861 104.103 642.78C93.7122 644.698 84.6419 643.128 83.9203 639.22L81.7443 627.436C81.0227 623.528 88.9339 618.822 99.3246 616.903C109.893 614.951 118.786 616.555 119.518 620.522ZM111.324 622.035C110.92 619.844 105.734 619.026 99.915 620.101C93.9181 621.208 89.5445 623.791 89.9491 625.982C90.3537 628.173 95.5396 628.991 101.358 627.917C107.355 626.81 111.729 624.226 111.324 622.035Z" fill="#E0E0E0"/>
<path fill-rule="evenodd" clip-rule="evenodd" d="M72.4748 283.312C70.946 282.678 69.1865 283.028 68.0165 284.198L31.1984 321.016C30.0284 322.186 29.6783 323.946 30.3115 325.475C30.9448 327.003 32.4363 328 34.0911 328H52.8512L95.4546 370.603C96.989 372.138 99.0701 373 101.24 373H111.818C116.337 373 120 369.337 120 364.818V354.24C120 352.07 119.138 349.989 117.604 348.454C103.402 334.253 89.2013 320.052 75.0001 305.851V287.091C75.0001 285.436 74.0036 283.945 72.4748 283.312ZM81.1365 323.558L85.5783 328L75.0001 338.578L70.5582 334.136L81.1365 323.558ZM64.7729 328.351L75.3511 317.773L70.9092 313.331L60.331 323.909L64.7729 328.351ZM80.7855 344.363L91.3637 333.785L95.8055 338.227L85.2274 348.805L80.7855 344.363ZM91.0127 354.591L101.591 344.012L106.033 348.454L95.4546 359.033L91.0127 354.591ZM101.24 364.818L111.818 354.24V364.818H101.24ZM66.8183 296.967V305.851L52.8512 319.818H43.9674L66.8183 296.967Z" fill="#E0E0E0"/>
<path fill-rule="evenodd" clip-rule="evenodd" d="M1019.47 495.312C1017.95 494.678 1016.19 495.028 1015.02 496.198L978.198 533.016C977.028 534.186 976.678 535.946 977.311 537.475C977.945 539.003 979.436 540 981.091 540H999.851L1042.45 582.603C1043.99 584.138 1046.07 585 1048.24 585H1058.82C1063.34 585 1067 581.337 1067 576.818V566.24C1067 564.07 1066.14 561.989 1064.6 560.454C1050.4 546.253 1036.2 532.052 1022 517.851V499.091C1022 497.436 1021 495.945 1019.47 495.312ZM1028.14 535.558L1032.58 540L1022 550.578L1017.56 546.136L1028.14 535.558ZM1011.77 540.351L1022.35 529.773L1017.91 525.331L1007.33 535.909L1011.77 540.351ZM1027.79 556.363L1038.36 545.785L1042.81 550.227L1032.23 560.805L1027.79 556.363ZM1038.01 566.591L1048.59 556.012L1053.03 560.454L1042.45 571.033L1038.01 566.591ZM1048.24 576.818L1058.82 566.24V576.818H1048.24ZM1013.82 508.967V517.851L999.851 531.818H990.967L1013.82 508.967Z" fill="#E0E0E0"/>
<path d="M761.725 161.485L707.324 172.139L702.964 149.607C702.622 147.839 700.91 146.683 699.143 147.025L684.203 149.916C678.907 150.941 675.432 156.083 676.457 161.379L678.678 172.86L675.784 177.143C674.32 179.309 673.788 181.914 674.285 184.48L674.373 184.937L683.978 183.079C685.746 182.736 687.457 183.893 687.799 185.661C688.141 187.428 687.026 189.353 685.258 189.695L675.654 191.554L676.25 194.633C677.274 199.929 682.417 203.404 687.713 202.379L693.048 201.346C694.415 208.408 701.271 213.041 708.332 211.674C715.394 210.308 720.027 203.452 718.66 196.39L737.869 192.673C739.235 199.734 746.091 204.367 753.153 203C760.215 201.634 764.847 194.778 763.481 187.716L766.682 187.097C771.978 186.072 775.453 180.93 774.428 175.634L773.189 169.231C772.164 163.935 767.022 160.46 761.725 161.485ZM684.719 169.745L682.86 160.141C682.518 158.375 683.677 156.661 685.442 156.319L697.18 154.048L699.659 166.854L684.719 169.745ZM707.093 205.271C703.563 205.954 700.135 203.638 699.451 200.107C698.768 196.577 701.084 193.149 704.615 192.465C708.146 191.782 711.574 194.098 712.257 197.629C712.94 201.16 710.624 204.588 707.093 205.271ZM751.914 196.597C748.383 197.281 744.955 194.964 744.272 191.434C743.588 187.903 745.905 184.475 749.436 183.792C752.966 183.108 756.394 185.425 757.077 188.955C757.761 192.486 755.444 195.914 751.914 196.597Z" fill="#E0E0E0"/>
<path d="M755.049 137.349C754.213 137.097 753.506 136.167 753.287 135.038L751.24 124.462C755.363 118.361 754.161 120.17 754.51 119.484C755.613 117.531 756.093 115.213 755.635 112.843C754.61 107.547 749.468 104.073 744.172 105.098C741.802 105.556 739.831 106.866 738.43 108.619C737.805 109.335 741.461 103.993 709.837 150.794L712.448 164.283L726.121 161.638L746.077 132.104L746.884 136.277C747.571 139.825 749.975 142.629 753.163 143.592C754.33 143.944 755.197 144.904 755.427 146.097C755.769 147.862 754.611 149.576 752.846 149.918C751.08 150.26 749.366 149.101 749.024 147.336C748.682 145.568 746.971 144.412 745.203 144.754C743.436 145.096 742.279 146.807 742.621 148.575C743.646 153.871 748.788 157.346 754.084 156.321C759.38 155.296 762.855 150.154 761.83 144.858C761.137 141.278 758.537 138.401 755.049 137.349ZM746.65 117.904C744.885 118.245 743.17 117.087 742.829 115.322C742.487 113.556 743.645 111.842 745.411 111.501C747.176 111.159 748.89 112.317 749.232 114.083C749.573 115.848 748.415 117.562 746.65 117.904Z" fill="#E0E0E0"/>
<path d="M345.725 739.486L291.324 750.14L286.963 727.608C286.621 725.839 284.91 724.684 283.142 725.026L268.202 727.917C262.906 728.942 259.431 734.084 260.456 739.38L262.678 750.86L259.784 755.144C258.319 757.31 257.788 759.914 258.284 762.48L258.373 762.938L267.977 761.079C269.746 760.737 271.456 761.894 271.798 763.661C272.14 765.428 271.026 767.353 269.257 767.696L259.653 769.554L260.249 772.634C261.274 777.93 266.416 781.404 271.712 780.379L277.048 779.347C278.414 786.408 285.27 791.041 292.332 789.675C299.393 788.308 304.026 781.452 302.66 774.39L321.868 770.673C323.235 777.735 330.091 782.367 337.153 781.001C344.214 779.634 348.847 772.778 347.48 765.717L350.682 765.097C355.978 764.072 359.452 758.93 358.427 753.634L357.188 747.231C356.163 741.935 351.021 738.461 345.725 739.486ZM268.718 747.745L266.859 738.141C266.518 736.376 267.676 734.662 269.441 734.32L281.18 732.048L283.658 744.854L268.718 747.745ZM291.093 783.272C287.562 783.955 284.134 781.639 283.451 778.108C282.768 774.577 285.084 771.149 288.615 770.466C292.145 769.783 295.573 772.099 296.257 775.63C296.94 779.16 294.624 782.588 291.093 783.272ZM335.913 774.598C332.382 775.281 328.955 772.965 328.271 769.434C327.588 765.903 329.904 762.475 333.435 761.792C336.966 761.109 340.394 763.425 341.077 766.956C341.76 770.487 339.444 773.915 335.913 774.598Z" fill="#E0E0E0"/>
<path d="M339.048 715.35C338.212 715.097 337.505 714.168 337.286 713.038L335.24 702.463C339.363 696.362 338.16 698.17 338.509 697.484C339.613 695.531 340.093 693.214 339.634 690.844C338.609 685.548 333.467 682.073 328.171 683.098C325.801 683.557 323.83 684.867 322.43 686.619C321.804 687.335 325.461 681.994 293.837 728.794L296.447 742.284L310.12 739.638L330.076 710.105L330.884 714.278C331.57 717.826 333.975 720.629 337.163 721.593C338.329 721.944 339.196 722.904 339.427 724.097C339.769 725.863 338.61 727.577 336.845 727.919C335.08 728.26 333.366 727.102 333.024 725.337C332.682 723.568 330.97 722.413 329.203 722.755C327.435 723.097 326.279 724.807 326.621 726.576C327.646 731.872 332.788 735.346 338.084 734.321C343.38 733.297 346.855 728.154 345.83 722.858C345.137 719.279 342.536 716.401 339.048 715.35ZM330.649 695.904C328.884 696.246 327.17 695.087 326.828 693.322C326.487 691.557 327.645 689.843 329.41 689.501C331.176 689.159 332.89 690.318 333.231 692.083C333.573 693.848 332.415 695.562 330.649 695.904Z" fill="#E0E0E0"/>
<path d="M833.04 743.486L887.441 754.14L891.801 731.608C892.144 729.839 893.855 728.684 895.622 729.026L910.563 731.917C915.859 732.942 919.333 738.084 918.308 743.38L916.087 754.86L918.981 759.144C920.445 761.31 920.977 763.914 920.481 766.48L920.392 766.938L910.788 765.079C909.019 764.737 907.309 765.894 906.967 767.661C906.625 769.428 907.739 771.353 909.507 771.696L919.112 773.554L918.516 776.634C917.491 781.93 912.349 785.404 907.053 784.379L901.717 783.347C900.35 790.408 893.494 795.041 886.433 793.675C879.371 792.308 874.738 785.452 876.105 778.39L856.896 774.673C855.53 781.735 848.674 786.367 841.612 785.001C834.551 783.634 829.918 776.778 831.284 769.717L828.083 769.097C822.787 768.072 819.312 762.93 820.337 757.634L821.576 751.231C822.602 745.935 827.744 742.461 833.04 743.486ZM910.047 751.745L911.905 742.141C912.247 740.376 911.089 738.662 909.323 738.32L897.585 736.048L895.106 748.854L910.047 751.745ZM887.672 787.272C891.203 787.955 894.63 785.639 895.314 782.108C895.997 778.577 893.681 775.149 890.15 774.466C886.619 773.783 883.191 776.099 882.508 779.63C881.825 783.16 884.141 786.588 887.672 787.272ZM842.851 778.598C846.382 779.281 849.81 776.965 850.493 773.434C851.177 769.903 848.86 766.475 845.33 765.792C841.799 765.109 838.371 767.425 837.688 770.956C837.004 774.487 839.321 777.915 842.851 778.598Z" fill="#E0E0E0"/>
<path d="M839.716 719.35C840.552 719.097 841.26 718.168 841.478 717.038L843.525 706.463C839.402 700.362 840.605 702.17 840.255 701.484C839.152 699.531 838.672 697.214 839.13 694.844C840.155 689.548 845.297 686.073 850.594 687.098C852.963 687.557 854.934 688.867 856.335 690.619C856.96 691.335 853.304 685.994 884.928 732.794L882.317 746.284L868.644 743.638L848.688 714.105L847.881 718.278C847.194 721.826 844.79 724.629 841.602 725.593C840.435 725.944 839.569 726.904 839.338 728.097C838.996 729.863 840.154 731.577 841.92 731.919C843.685 732.26 845.399 731.102 845.741 729.337C846.083 727.568 847.794 726.413 849.562 726.755C851.329 727.097 852.486 728.807 852.144 730.576C851.119 735.872 845.977 739.346 840.681 738.321C835.385 737.297 831.91 732.154 832.935 726.858C833.628 723.279 836.228 720.401 839.716 719.35ZM848.115 699.904C849.881 700.246 851.595 699.087 851.936 697.322C852.278 695.557 851.12 693.843 849.354 693.501C847.589 693.159 845.875 694.318 845.533 696.083C845.192 697.848 846.35 699.562 848.115 699.904Z" fill="#E0E0E0"/>
</g>
<defs>
<clipPath id="clip0_1503_131">
<rect width="1440" height="849" fill="white"/>
</clipPath>
</defs>
</svg>
