<svg width="473" height="441" viewBox="0 0 473 441" fill="none" xmlns="http://www.w3.org/2000/svg">
<g clip-path="url(#clip0_1521_2131)">
<path fill-rule="evenodd" clip-rule="evenodd" d="M234.14 1.14293C230.871 2.37293 226.219 7.94093 224.995 12.0889C223.683 16.5309 223.346 16.7839 217.14 17.9959C215.215 18.3719 211.469 19.5999 208.816 20.7259C204.558 22.5319 203.404 22.6359 198.963 21.6109C192.505 20.1199 187.251 22.7509 176.3 32.9609C157.71 50.2919 148.628 72.6639 148.902 100.449C148.984 108.693 148.548 114.47 147.62 117.449C146.847 119.931 145.741 123.837 145.161 126.128C144.108 130.294 144.108 130.294 136.545 131.003C127.15 131.883 126.673 132.838 132.061 139.974C136.205 145.462 136.205 145.462 133.074 145.462C128.165 145.462 123.392 151.221 124.087 156.304C124.397 158.574 120.921 160.544 119.656 158.815C119.079 158.025 117.495 156.825 116.136 156.147C114.424 155.294 113.485 153.799 113.075 151.275C111.703 142.838 107.386 140.491 101.038 144.732C91.4374 151.146 92.1144 165.818 102.382 173.854C106.657 177.2 99.7404 185.758 93.5704 184.757C88.2494 183.893 83.2934 185.33 79.3304 188.886C77.3014 190.707 74.6284 192.512 73.3904 192.897C70.2854 193.863 70.5634 195.442 74.6214 199.872C78.1024 203.672 78.1024 203.672 74.6494 207.885C71.3824 211.872 71.2814 212.219 72.7684 214.342C75.3904 218.084 63.5574 229.943 57.1404 230.005C48.9304 230.085 44.3344 235.465 45.9384 243.12C46.7414 246.954 46.7244 246.981 37.6914 256.051C27.4214 266.365 18.9274 277.716 13.8154 287.962C0.37436 314.899 3.41336 364.461 20.0874 390.259C22.1694 393.48 25.3064 399.119 27.0574 402.789C30.1464 409.26 31.9064 410.619 34.7134 408.697C36.8584 407.228 36.9414 404.577 35.0654 397.431C32.6714 388.312 31.1054 367.736 32.7034 366.409C33.3154 365.901 34.3764 363.619 35.0604 361.336C40.9864 341.555 54.1754 321.255 74.4444 300.719C90.9474 283.999 91.6484 283.532 87.2914 292.163C77.5624 311.435 77.5464 345.09 87.2484 380.462C91.4854 395.91 92.3034 397.472 102.782 410.125C122.728 434.208 129.239 440.349 134.89 440.407C140.036 440.461 140.14 440.404 140.14 437.545C140.14 435.941 140.546 434.479 141.043 434.295C141.539 434.112 145.702 427.662 150.293 419.962C154.884 412.262 159.819 404.387 161.261 402.462C162.702 400.537 167.155 393.337 171.156 386.462C180.904 369.71 179.854 370.415 185.438 376.883C188.024 379.878 190.14 382.739 190.14 383.24C190.14 387.311 195.639 387.911 197.124 384.003C197.598 382.757 202.099 375.524 207.126 367.929C219.419 349.356 254.813 276.456 248.445 282.823C247.613 283.656 235.043 271.428 235.677 270.402C235.92 270.01 235.364 269.075 234.442 268.325C232.957 267.117 232.85 267.19 233.508 268.962C233.936 270.116 232.094 268.848 229.152 265.962C222.378 259.318 224.096 252.683 234.389 245.736C238.849 242.726 296.14 239.554 296.14 242.317C296.14 242.819 299.141 243.55 302.809 243.943C317.187 245.483 341.697 256.145 337.22 258.913C336.661 259.258 332.787 264.715 328.611 271.038C321.02 282.534 321.02 282.534 329.711 291.748C339.434 302.057 353.384 320.27 361.361 333.072C364.265 337.731 369.127 345.462 372.166 350.253C376.429 356.972 378.554 361.818 381.465 371.462C383.541 378.337 385.648 384.862 386.148 385.962C386.648 387.062 387.188 389.087 387.348 390.462C387.995 396.008 391.229 394.081 401.666 381.928C407.152 375.54 411.785 369.672 411.963 368.888C412.593 366.111 413.703 367.663 419.383 379.263C427.691 396.228 431.523 416.711 428.246 426.641C424.426 438.217 434.765 438.644 440.216 427.136C441.825 423.74 445.687 416.912 448.799 411.962C457.429 398.234 461.101 388.943 463.198 375.521C464.191 369.163 465.729 360.812 466.616 356.962C472.976 329.348 466.713 295.956 450.775 272.499C445.495 264.728 427.52 245.749 425.903 246.237C425.401 246.388 425.245 246.101 425.555 245.6C426.254 244.469 423.853 242.39 421.44 242.035C420.45 241.89 419.64 241.289 419.64 240.7C419.64 240.111 419.356 239.345 419.009 238.998C418.662 238.651 418.61 235.47 418.895 231.93C419.416 225.436 418.142 221.725 415.872 223.128C415.299 223.482 415.127 223.293 415.488 222.707C415.865 222.099 414.298 220.749 411.827 219.553C406.356 216.904 405.338 216.913 407.735 219.588C409.309 221.344 408.964 221.257 405.75 219.088C403.611 217.644 401.072 216.462 400.108 216.462C395.996 216.462 386.995 204.644 388.658 201.428C390.238 198.372 384.957 190.143 381.801 190.742C380.27 191.032 380.901 187.256 382.606 185.927C389.138 180.836 387.1 173.537 376.186 162.928C370.056 156.971 369.792 156.522 370.936 154.011C376.005 142.885 366.503 127.462 354.579 127.462C350.351 127.462 345.175 130.37 345.107 132.785C345.07 134.076 342.582 137.196 339.899 139.316C338.253 140.616 332.184 135.531 332.842 133.403C332.953 133.044 332.22 130.028 331.212 126.7C329.793 122.013 329.495 118.635 329.891 111.701C332.035 74.0909 301.013 23.9389 276.437 25.2859C272.378 25.5089 270.521 25.1199 268.663 23.6589C267.321 22.6029 263.037 20.7149 259.144 19.4629C254.148 17.8569 251.413 16.3399 249.852 14.3079C248.635 12.7249 246.572 10.0679 245.266 8.40393C243.961 6.74093 243.354 5.51093 243.916 5.67093C244.479 5.83093 245.047 5.51193 245.179 4.96193C245.647 3.00093 237.079 0.0369286 234.14 1.14293ZM198.122 44.7119C188.105 51.3089 177.335 66.4139 174.169 78.3049C170.607 91.6839 169.647 105.753 172.076 108.962C172.492 109.512 173.89 113.689 175.182 118.244C176.901 124.305 177.903 126.383 178.918 125.994C179.68 125.701 180.717 125.462 181.222 125.462C181.75 125.462 182.14 116.554 182.14 104.475C182.14 83.4889 182.14 83.4889 185.746 81.9819C189.58 80.3799 191.14 80.6809 191.14 83.0209C191.14 83.8139 191.703 84.4629 192.39 84.4629C193.337 84.4639 193.559 81.6789 193.304 72.9699C192.835 56.9079 195.134 53.3319 208.091 49.9749C215.265 48.1159 232.243 47.7749 236.504 49.4039C238.978 50.3499 239.285 50.2809 238.754 48.8989C238.416 48.0189 238.14 46.9479 238.14 46.5199C238.14 46.0909 233.078 45.5069 226.89 45.2199C218.826 44.8469 214.082 44.0999 210.14 42.5809C207.115 41.4159 204.625 40.4629 204.608 40.4629C204.59 40.4619 201.671 42.3749 198.122 44.7119ZM256.64 42.9899C254.44 43.7149 251.442 44.3429 249.979 44.3849C246.623 44.4819 245.247 55.3529 248.248 58.0619C250.339 59.9509 251.356 70.6119 251.255 89.5739C251.183 102.926 251.348 104.34 253.158 105.979C255.572 108.163 255.675 110.213 253.493 112.624C250.211 116.251 250.889 120.462 254.756 120.462C256.617 120.462 258.14 120.056 258.14 119.56C258.14 119.064 259.464 118.196 261.082 117.632C263.719 116.713 264.056 116.105 264.332 111.784C264.639 106.973 264.649 106.961 268.64 106.462C272.172 106.02 272.932 105.423 275.14 101.351C279.028 94.1809 279.632 93.7489 286.859 92.9749C291.933 92.4319 293.775 92.5839 294.586 93.6119C295.172 94.3549 297.899 96.9709 300.646 99.4269C303.393 101.883 305.946 104.583 306.32 105.427C307.672 108.48 307.102 96.4219 305.581 89.7739C301.211 70.6829 287.857 53.4809 270.756 44.9119C263.238 41.1449 262.531 41.0479 256.64 42.9899Z" fill="white"/>
<path fill-rule="evenodd" clip-rule="evenodd" d="M231.377 2.95979C228.634 4.93979 224.803 12.1418 225.511 13.9858C226.26 15.9368 224.316 17.1028 218.14 18.4048C203.264 21.5408 200.32 24.2188 200.21 34.7118C200.158 39.7808 199.793 41.4618 198.747 41.4618C197.981 41.4618 197.095 42.1368 196.778 42.9618C196.005 44.9768 196.767 44.8558 200.891 42.3068C204.256 40.2268 204.539 40.2088 209.009 41.7798C214.9 43.8498 225.019 45.4448 232.323 45.4538C237.192 45.4608 238.099 45.7588 238.664 47.5368C239.598 50.4798 239.089 50.6438 233.064 49.3518C223.336 47.2658 201.14 50.4408 201.14 53.9188C201.14 54.6778 199.565 56.2718 197.64 57.4618C194.222 59.5748 192.832 69.1348 193.97 82.7118C194.172 85.1308 191.494 84.9228 190.852 82.4698C190.367 80.6138 190.103 80.5738 186.986 81.8808C183.143 83.4918 182.607 87.0508 182.082 114.409C181.824 127.857 181.824 127.857 178.893 130.324C176.485 132.35 175.801 132.538 175.066 131.376C173.701 129.22 173.954 128.323 176.085 127.766C177.553 127.382 177.805 126.854 177.113 125.61C176.609 124.704 175.275 120.847 174.148 117.039C173.021 113.232 171.591 109.506 170.971 108.758C169.528 107.02 170.563 90.4768 172.671 81.5668C173.503 78.0498 174.007 74.9948 173.79 74.7788C173.103 74.0918 170.14 84.2118 170.14 87.2448C170.14 89.8108 169.816 90.1238 167.39 89.9068C165.878 89.7708 163.601 89.6158 162.331 89.5608C161.061 89.5068 160.3 89.0118 160.64 88.4618C160.98 87.9118 160.669 87.4248 159.949 87.3788C153.048 86.9388 151.797 85.7618 152.602 80.4618C154.142 70.3268 154.229 68.8758 153.148 71.3458C151.253 75.6778 149.148 91.7988 149.151 101.962C149.156 119.899 145.993 130.236 140.277 130.962C126.688 132.686 126.496 132.884 132.04 139.458C136.923 145.249 136.966 145.462 133.244 145.462C129.446 145.462 124.14 151.29 124.14 155.462C124.14 158.765 120.512 161.682 119.148 159.475C118.742 158.818 117.348 157.752 116.05 157.104C114.345 156.255 113.482 154.713 112.943 151.555C111.537 143.319 106.148 141.06 100.081 146.165C91.8143 153.121 92.5603 164.183 101.889 172.968C107.222 177.991 100.851 185.22 91.1173 185.192C85.2233 185.175 80.8783 186.878 77.6383 190.474C76.5393 191.694 74.6353 193.076 73.4063 193.546C70.9293 194.493 73.3253 200.551 76.6863 201.841C78.9493 202.71 78.4153 204.825 75.1403 207.962C71.9853 210.985 71.3853 213.307 73.2723 215.194C75.9703 217.892 61.6233 231.271 56.6353 230.709C49.7393 229.931 45.6523 234.446 46.4303 241.981C46.9883 247.387 46.9883 247.387 38.9633 255.174C15.3133 278.125 6.06831 298.987 5.82131 329.962C5.61631 355.699 11.0023 376.112 22.6873 393.884C24.5233 396.677 26.3053 400.087 26.6483 401.462C27.6163 405.353 31.6773 409.854 33.5653 409.129C36.3493 408.061 36.4853 405.599 34.3103 395.628C31.7843 384.046 30.4943 368.975 31.8783 367.207C32.4143 366.522 34.1103 362.587 35.6473 358.462C43.8993 336.307 55.6533 318.69 74.8433 299.712C90.9623 283.771 92.1443 283.02 88.2013 291.212C77.2883 313.89 77.2803 343.12 88.1773 382.462C92.4443 397.864 101.389 410.724 122.376 431.628C126.096 435.334 129.14 438.837 129.14 439.414C129.14 440.018 131.471 440.462 134.64 440.462C139.934 440.462 140.14 440.362 140.14 437.791C140.14 436.322 140.753 434.409 141.503 433.541C142.253 432.672 146.578 425.662 151.115 417.962C155.652 410.262 160.156 403.062 161.123 401.962C162.091 400.862 166.812 393.281 171.615 385.116C176.418 376.95 180.667 370.65 181.057 371.116C184.252 374.924 189.847 382.343 190.749 383.966C192.188 386.555 196.482 386.638 196.974 384.086C197.173 383.054 201.413 376.079 206.397 368.586C216.179 353.88 248.14 289.804 248.14 284.9C248.14 284.11 230.066 267.005 228.787 266.584C228.156 266.376 229.141 267.787 230.975 269.72C234.764 273.711 234.667 274.15 227.603 284.962C225.807 287.712 222.679 293.112 220.652 296.962C216.118 305.574 216.711 305.066 213.584 303.018C212.145 302.074 210.749 301.52 210.483 301.786C209.931 302.338 207.478 301.094 201.41 297.186C199.083 295.688 196.776 294.462 196.282 294.462C195.789 294.462 194.849 293.816 194.193 293.026C193.538 292.237 191.57 291.285 189.821 290.911C188.071 290.537 186.19 289.895 185.64 289.484C184.122 288.351 178.877 287.113 176.757 287.388C174.719 287.653 174.724 287.583 177.34 278.404C180.41 267.637 178.9 267.749 203.14 276.5C219.014 282.231 221.19 282.812 222.373 281.629C224.094 279.908 222.407 278.571 198.755 262.91C173.005 245.86 169.809 243.518 172.246 243.484C173.13 243.472 175.93 245.048 178.468 246.986C183.084 250.511 183.084 250.511 185.684 246.392C189.004 241.133 190.058 241.953 186.97 247.392C184.981 250.895 184.855 251.632 186.109 252.423C187.233 253.133 188.171 252.346 190.109 249.066C197.238 237.002 196.786 236.984 210.526 249.875C222.886 261.471 222.886 261.471 225.763 255.76C231.913 243.55 235.456 242.016 258.492 241.585C291.232 240.972 294.908 241.027 296.307 242.151C297.04 242.74 301.124 243.539 305.383 243.927C309.642 244.314 313.35 244.992 313.622 245.433C313.895 245.874 315.78 246.547 317.812 246.928C321.463 247.613 332.875 252.972 336.522 255.713C338.307 257.056 337.988 257.748 330.272 269.265C320.458 283.913 320.341 281.026 331.235 292.981C353.673 317.605 375.784 352.115 382.159 372.462C384.485 379.887 386.658 386.412 386.988 386.962C387.593 387.971 387.711 388.533 387.988 391.712C388.237 394.575 391.816 393.726 394.312 390.212C395.582 388.425 399.425 383.903 402.852 380.164C406.28 376.425 409.869 372.037 410.828 370.414C413.254 366.306 413.011 366.044 419.908 380.212C428.035 396.908 428.561 399.122 428.753 417.462C428.953 436.537 428.843 435.462 430.593 435.462C433.892 435.462 437.041 432.998 438.728 429.097C439.712 426.823 443.446 420.237 447.026 414.462C455.898 400.153 460.724 388.802 462.118 378.962C462.741 374.562 464.38 365.372 465.759 358.539C468.5 344.962 469.014 329.692 467.127 317.882C465.898 310.186 462.58 295.984 461.667 294.506C461.315 293.936 460.838 292.488 460.607 291.289C460.376 290.09 459.776 288.851 459.273 288.535C458.771 288.22 456.658 285.037 454.578 281.462C445.287 265.493 420.527 239.009 416.83 241.087C416.007 241.549 416.025 241.34 416.89 240.409C420.551 236.465 416.754 222.466 411.22 219.505C407.681 217.611 407.25 218.418 410.217 221.385C413.432 224.6 413.949 226.938 411.64 227.824C410.686 228.19 410.14 227.808 410.14 226.775C410.14 223.724 405.223 218.561 401.315 217.509C399.242 216.951 396.244 215.137 394.655 213.478C393.066 211.819 391.259 210.462 390.64 210.462C388.775 210.462 383.843 204.764 385.058 204.013C385.653 203.645 386.14 203.682 386.14 204.094C386.14 204.507 386.801 203.971 387.608 202.903C390.38 199.238 389.597 196.168 386.023 196.692C382.645 197.188 376.681 193.159 379.349 192.184C380.354 191.817 380.375 191.43 379.443 190.44C378.501 189.439 378.774 188.752 380.718 187.222C388.199 181.337 387.401 176.289 377.3 165.606C369.399 157.25 369.399 157.25 370.807 152.606C374.554 140.236 362.584 124.008 352.552 127.857C350.562 128.621 351.988 131.462 354.361 131.462C362.893 131.462 370.054 142.672 367.042 151.313C365.714 155.122 366.331 155.12 360.248 151.338C354.917 148.024 349.879 147.275 342.89 148.757C338.611 149.665 338.031 148.571 341.14 145.462C342.24 144.362 343.14 142.935 343.14 142.291C343.14 141.647 343.859 140.325 344.738 139.354C347.754 136.021 345.159 135.301 341.374 138.42C337.746 141.411 337.746 141.411 336.113 138.921C335.215 137.551 333.78 135.875 332.926 135.196C330.583 133.336 326.704 120.35 328.212 119.418C330.196 118.191 328.78 93.6528 326.137 83.4618C318.298 53.2378 290.067 21.8878 274.459 26.0738C273.117 26.4338 272.485 27.1978 272.816 28.0608C273.567 30.0158 272.761 29.8228 268.721 27.0808C265.664 25.0068 251.658 20.4618 248.322 20.4618C247.672 20.4618 247.14 19.9848 247.14 19.4028C247.14 18.8208 247.543 18.5928 248.035 18.8968C250.961 20.7058 249.71 15.5738 246.039 10.7118C243.079 6.79179 242.249 5.01279 243.126 4.46979C244.853 3.40279 243.166 2.55779 237.973 1.88579C234.849 1.48179 233.008 1.78179 231.377 2.95979ZM260.14 41.3918C259.315 41.8608 255.972 42.7928 252.71 43.4618C247.591 44.5118 241.956 47.4618 245.069 47.4618C245.658 47.4618 246.14 48.1618 246.14 49.0178C246.14 50.0878 245.369 49.6978 243.672 47.7678C241.203 44.9618 241.203 44.9618 241.172 47.5378C241.153 49.0148 242.193 51.1028 243.609 52.4328C245.984 54.6638 246.059 55.1198 245.563 64.3208C244.883 76.9058 243.991 77.5578 244.348 65.2078C244.677 53.8418 244.778 53.9888 235.31 51.9978C224.247 49.6708 219.286 50.8088 229.043 53.4358C233.21 54.5578 234.109 57.4338 234.131 69.7118C234.136 72.3238 234.343 74.4618 234.591 74.4618C235.408 74.4618 245.603 77.2608 247.39 77.9758C248.888 78.5748 249.155 78.0488 249.242 74.3188C249.345 69.9618 249.345 69.9618 250.165 73.4518C250.617 75.3718 250.626 77.3968 250.186 77.9518C249.747 78.5078 249.75 79.8618 250.193 80.9618C250.637 82.0618 251.031 88.0088 251.07 94.1768C251.133 104.329 251.33 105.493 253.14 106.462C254.24 107.051 255.14 108.413 255.14 109.489C255.14 110.565 254.24 112.007 253.14 112.694C249.672 114.86 250.298 121.692 253.89 120.872C261.766 119.074 264.087 117.215 264.114 112.687C264.136 108.999 264.502 108.275 266.779 107.409C269.812 106.256 270.64 106.77 270.64 109.802C270.64 111.055 271.27 111.962 272.14 111.962C272.965 111.962 274.428 112.75 275.39 113.712C278.103 116.425 279.14 115.812 279.14 111.497C279.14 108.399 278.648 107.276 276.89 106.362C275.652 105.718 274.494 105.069 274.316 104.919C273.511 104.244 277.337 98.4658 278.226 99.0148C278.777 99.3558 279.861 99.1078 280.636 98.4648C281.41 97.8228 282.877 97.5608 283.894 97.8838C284.912 98.2068 286.621 97.8088 287.692 96.9978C290.385 94.9618 292.51 95.1078 294.653 97.4758C295.736 98.6738 297.186 99.2648 298.227 98.9338C299.41 98.5588 300.189 99.0408 300.627 100.42C300.983 101.543 301.721 102.462 302.266 102.462C302.812 102.462 302.953 102.955 302.581 103.557C302.209 104.16 302.488 105.743 303.201 107.076C304.148 108.845 304.716 109.157 305.304 108.231C305.846 107.377 306.114 107.716 306.125 109.271C306.133 110.553 306.585 111.305 307.14 110.962C311.195 108.456 305.905 83.9748 298.39 70.4618C290.495 56.2688 266.306 37.8848 260.14 41.3918ZM328.14 238.332C328.14 238.79 331.628 239.438 335.89 239.772C346.805 240.626 367.038 248.167 365.454 250.79C365.065 251.435 361.172 257.324 356.804 263.877C346.887 278.757 346.335 275.744 362.165 293.118C369.603 301.282 379.249 312.117 383.599 317.194C387.949 322.272 391.733 326.202 392.008 325.928C392.282 325.653 391.99 324.912 391.358 324.28C390.493 323.415 390.619 322.832 391.868 321.919C393.323 320.855 393.136 320.62 390.345 320.007C388.595 319.623 386.94 318.947 386.668 318.507C386.159 317.683 388.9 311.462 389.772 311.462C390.039 311.462 389.98 311.912 389.64 312.462C388.864 313.718 389.665 313.736 391.904 312.513C392.859 311.991 398.14 309.501 403.64 306.979C412.186 303.061 413.661 302.036 413.784 299.935C413.871 298.447 413.513 297.731 412.879 298.123C412.258 298.507 412.129 298.288 412.563 297.587C413.679 295.78 406.415 283.921 399.816 276.777C396.17 272.83 390.066 272.823 381.854 276.759C364.396 285.125 359.537 286.661 358.562 284.12C357.732 281.956 359.549 279.104 362.813 277.449C364.368 276.66 366.681 275.24 367.954 274.294C369.226 273.348 370.988 272.85 371.868 273.188C372.924 273.593 373.225 273.408 372.752 272.643C372.267 271.858 372.617 271.694 373.838 272.133C374.829 272.489 375.306 272.413 374.899 271.963C373.711 270.654 376.166 268.462 378.821 268.462C380.162 268.462 381.001 268.046 380.687 267.538C380.373 267.031 381.472 265.65 383.128 264.47C385.716 262.627 387.695 258.383 385.266 259.884C384.785 260.181 382.423 258.514 380.016 256.179C373.442 249.801 368.398 246.188 367.948 247.537C367.698 248.289 364.975 247.397 360.236 245.01C349.299 239.502 328.14 235.1 328.14 238.332Z" fill="white"/>
<path fill-rule="evenodd" clip-rule="evenodd" d="M200.018 57.6747C197.098 61.8267 195.14 63.8567 195.14 62.7327C195.14 62.2537 195.703 61.2657 196.39 60.5367C197.399 59.4677 197.351 59.3007 196.14 59.6717C194.924 60.0437 194.609 62.4717 194.478 72.4747C194.341 82.9077 194.07 84.8547 192.728 85.0517C191.855 85.1797 191.14 84.6757 191.14 83.9327C191.14 81.7647 189.234 81.1807 186.226 82.4257C183.433 83.5827 183.433 83.5827 182.89 104.698C182.346 125.848 182.895 129.968 185.998 128.05C186.478 127.753 190.321 127.443 194.537 127.361C200.917 127.238 202.371 126.899 203.207 125.338C205.584 120.895 212.501 123.717 211.111 128.563C210.398 131.048 210.556 131.462 212.21 131.462C213.271 131.462 214.147 132.025 214.155 132.712C214.166 133.559 214.471 133.487 215.101 132.491C215.613 131.682 216.363 131.352 216.769 131.758C218.37 133.358 215.275 134.844 212.743 133.691C210.185 132.525 209.043 133.175 207.875 136.462C207.515 137.476 206.954 136.909 206.143 134.712C205.484 132.925 204.313 131.462 203.542 131.462C202.771 131.462 202.14 130.787 202.14 129.962C202.14 129.137 201.69 128.462 201.14 128.462C200.59 128.462 200.14 128.912 200.14 129.462C200.14 130.012 199.045 130.462 197.707 130.462C196.153 130.462 195.046 131.184 194.64 132.462C193.961 134.6 186.14 135.521 186.14 133.462C186.14 132.912 185.481 132.462 184.675 132.462C183.87 132.462 182.696 131.501 182.068 130.327C181.176 128.661 180.741 128.489 180.09 129.543C179.611 130.318 179.709 131.443 180.32 132.178C181.079 133.094 181.063 133.462 180.262 133.462C179.645 133.462 179.133 132.9 179.125 132.212C179.114 131.307 178.869 131.342 178.236 132.34C177.756 133.098 176.863 133.409 176.252 133.031C175.64 132.653 175.14 132.869 175.14 133.51C175.14 134.151 174.494 134.428 173.705 134.125C172.915 133.822 172.051 134.112 171.784 134.768C171.431 135.635 171.276 135.611 171.219 134.68C171.176 133.975 172.152 132.991 173.39 132.493C174.628 131.996 175.029 131.56 174.283 131.525C173.497 131.489 173.168 130.83 173.502 129.962C174.208 128.121 172.241 128.063 158.128 129.511C145.988 130.757 146.898 131.329 149.305 123.962C150.383 120.662 151.381 117.287 151.521 116.462C151.661 115.637 152.308 113.695 152.958 112.147C154.53 108.403 154.474 108.236 152.14 109.694C151.04 110.381 150.14 111.708 150.14 112.644C150.14 113.579 149.754 114.582 149.283 114.874C148.811 115.165 147.844 118.229 147.134 121.683C145.298 130.607 144.708 131.46 140.355 131.473C128.617 131.508 127.067 133.227 132.64 140.027C136.808 145.114 136.873 145.462 133.656 145.462C129.84 145.462 125.18 150.265 124.439 154.962C123.68 159.774 119.14 164.085 119.14 159.993C119.14 159.186 118.577 158.724 117.89 158.966C116.191 159.567 113.052 155.043 112.464 151.144C111.211 142.848 105.5 140.902 99.6304 146.772C92.1904 154.212 92.9374 163.495 101.686 172.314C108.215 178.895 109.276 176.853 88.6244 197.462C75.3684 210.691 73.1764 213.309 73.6644 215.327C74.8084 220.058 62.8364 230.889 56.4184 230.929C48.8754 230.976 46.6404 233.448 46.6404 241.742C46.6404 247.962 46.6404 247.962 40.8274 253.417C35.9164 258.025 35.2954 258.976 36.8274 259.549C38.6354 260.224 45.1694 267.721 45.2294 269.189C45.2474 269.614 46.0654 270.862 47.0484 271.962C48.0314 273.062 49.5564 275.826 50.4374 278.105C52.5544 283.582 49.2664 283.214 45.7074 277.575C44.4534 275.588 41.3794 270.686 38.8774 266.682C34.3284 259.403 34.3284 259.403 27.9844 267.339C18.5464 279.146 8.61443 296.759 12.8814 294.122C13.4494 293.771 14.4814 294.168 15.1764 295.005C16.2774 296.333 16.1064 296.4 13.8254 295.532C11.3774 294.601 11.1474 294.772 10.1624 298.251C1.62143 328.431 6.27643 367.455 21.2384 391.101C23.9744 395.424 26.4954 400.087 26.8414 401.462C27.6464 404.666 31.1624 409.462 32.7064 409.462C36.1684 409.462 36.5474 406.517 34.2904 397.143C31.7224 386.472 30.3014 368.187 31.8904 366.244C32.4674 365.539 34.5164 360.866 36.4434 355.861C44.9784 333.696 54.7614 319.565 76.6604 297.775C86.1604 288.322 94.1774 280.833 94.4764 281.132C94.7754 281.43 94.0874 282.639 92.9484 283.818C75.5624 301.806 77.7334 376.698 96.3544 401.362C102.631 409.675 119.144 428.568 123.847 432.817C126.161 434.907 128.329 437.483 128.665 438.54C129.83 442.21 140.14 441.294 140.14 437.521C140.14 435.903 140.51 434.351 140.962 434.072C141.415 433.792 145.733 426.903 150.559 418.763C155.385 410.622 160.741 402.026 162.462 399.66C165.115 396.013 165.367 395.2 164.116 394.316C162.886 393.447 162.926 393.365 164.357 393.823C165.706 394.256 167.526 391.821 172.857 382.452C176.588 375.895 179.905 370.515 180.23 370.496C180.943 370.455 189.457 381.318 191.064 384.321C192.405 386.826 195.659 387.159 196.533 384.88C197.466 382.448 197.261 381.438 195.89 381.712C195.017 381.887 194.489 379.775 194.14 374.711C193.653 367.642 195.307 364.688 197.64 368.462C198.53 369.902 203.127 369.696 203.21 368.212C203.249 367.525 203.615 367.813 204.023 368.854C205.63 372.949 221.104 344.755 239.606 304.019C248.21 285.077 248.21 285.077 240.449 277.269C236.18 272.975 232.239 269.462 231.691 269.462C231.144 269.462 231.646 270.412 232.807 271.574C235.102 273.868 234.943 274.272 226.566 287.462C225.344 289.387 222.779 293.887 220.866 297.462C218.954 301.037 213.24 311.387 208.168 320.462C181.987 367.313 181.647 367.769 176.14 363.462C174.682 362.322 172.063 361.497 169.859 361.484C167.436 361.47 165.87 360.923 165.502 359.962C164.727 357.943 163.397 358.066 162.8 360.212C162.532 361.175 162.377 358.137 162.456 353.462C162.535 348.787 162.244 344.4 161.81 343.712C161.377 343.025 161.461 342.462 161.998 342.462C162.534 342.462 163.155 343.007 163.377 343.673C163.599 344.339 163.817 342.202 163.861 338.923C163.974 330.601 164.443 325.462 165.09 325.46C165.392 325.459 165.757 323.82 165.901 321.818C166.055 319.658 166.986 317.463 168.192 316.417C169.663 315.141 169.867 314.519 168.931 314.16C168.221 313.887 168.99 313.792 170.64 313.949C174.784 314.343 174.829 314.37 173.14 315.462C171.858 316.29 171.894 316.434 173.39 316.447C174.353 316.455 175.14 316.074 175.14 315.601C175.14 314.302 180.135 315.52 180.173 316.829C180.249 319.419 183.899 322.168 188.168 322.85C191.748 323.422 192.391 323.315 191.39 322.313C189.079 320 190.105 319.644 197.642 320.141C204.202 320.573 205.067 320.436 204.535 319.048C204.2 318.176 203.536 317.462 203.059 317.462C202.582 317.462 192.842 312.13 181.416 305.614C169.989 299.097 159.695 293.268 158.541 292.659C156.094 291.37 155.95 297.784 158.184 308.549C158.822 311.622 159.186 316.685 158.992 319.8C158.784 323.145 159.049 325.464 159.64 325.463C160.19 325.463 160.72 324.45 160.817 323.212C160.914 321.974 161.562 318.262 162.256 314.962C164.229 305.585 164.511 311.474 162.606 322.28C161.667 327.605 160.738 333.087 160.54 334.462C159.641 340.738 158.847 343.399 158.028 342.893C157.54 342.591 157.082 343.608 157.011 345.153C156.94 346.698 156.781 349.087 156.656 350.462C156.532 351.837 156.092 357.012 155.678 361.962C155.263 366.912 154.792 371.105 154.631 371.28C152.218 373.894 152.371 307.239 154.796 299.087C155.158 297.87 154.965 297.452 154.247 297.896C153.638 298.272 153.14 298.103 153.14 297.521C153.14 292.045 151.217 298.604 150.666 305.962C150.034 314.391 149.738 315.462 148.047 315.462C146.998 315.462 146.14 315.898 146.14 316.431C146.14 316.963 145.465 317.14 144.64 316.824C143.815 316.507 143.14 315.171 143.14 313.855C143.14 312.539 142.67 311.462 142.096 311.462C141.522 311.462 141.149 310.9 141.266 310.212C141.78 307.21 139.865 299.286 138.946 300.611C138.296 301.548 138.203 301.272 138.642 299.712C139.181 297.796 138.891 297.462 136.693 297.462C133.086 297.462 127.003 303.313 125.669 308.065C124.779 311.24 124.104 311.961 121.863 312.133C119.061 312.348 118.439 311.577 120.071 309.912C120.583 309.389 121.91 305.587 123.019 301.462C128.112 282.528 126.112 284.433 142.46 282.936C145.11 282.693 147.685 282.243 148.181 281.936C148.678 281.63 150.15 282.078 151.454 282.932C153.76 284.443 153.869 284.382 155.41 280.724C158.594 273.166 158.288 268.049 154.97 273.362C154.318 274.407 153.143 275.017 152.361 274.717C151.578 274.416 150.612 274.699 150.213 275.344C149.814 275.99 147.183 276.649 144.366 276.81C141.549 276.97 139.473 276.733 139.751 276.282C140.03 275.831 140.906 275.462 141.699 275.462C142.492 275.462 143.14 275.012 143.14 274.462C143.14 273.912 141.817 273.462 140.199 273.462C136.537 273.462 136.116 272.794 137.029 268.437C137.819 264.666 143.661 263.844 148.64 266.803C151.901 268.742 159.256 267.417 160.249 264.712C160.929 262.861 160.727 262.462 159.108 262.462C156.719 262.462 156.732 261.832 159.198 257.962C160.25 256.312 161.577 253.894 162.147 252.589C162.717 251.284 165.199 247.566 167.662 244.328C170.125 241.089 172.14 238.201 172.14 237.909C172.14 237.351 173.502 235.577 176.329 232.452C177.926 230.686 177.899 230.568 175.829 230.273C173.046 229.877 172.312 225.394 174.704 223.409C176.154 222.205 176.613 222.328 178.255 224.355C180.14 226.684 180.14 226.684 180.14 223.573C180.14 221.862 180.59 220.462 181.14 220.462C181.69 220.462 182.14 221.36 182.14 222.457C182.14 224.058 183.147 223.466 187.241 219.457C190.047 216.71 192.721 214.462 193.184 214.462C194.042 214.462 193.634 210.622 192.673 209.662C191.953 208.941 202.055 205.444 204.602 205.533C205.931 205.579 205.112 206.281 202.244 207.554C195.617 210.494 197.882 210.806 205.156 207.956C217.8 203.001 220.899 204.151 220.667 213.712C220.494 220.805 220.732 222.151 222.36 223.309C224.845 225.075 224.403 229.8 221.706 230.312C220.642 230.514 219.18 229.87 218.456 228.88C217.263 227.248 217.14 227.238 217.14 228.771C217.14 231.168 215.641 230.866 214.36 228.212C213.275 225.962 213.275 225.962 213.208 228.212C213.128 230.873 211.484 231.219 210.829 228.712C210.394 227.045 210.366 227.045 210.256 228.712C210.192 229.675 209.503 230.462 208.723 230.462C207.944 230.462 207.157 230.799 206.973 231.212C206.532 232.205 201.102 235.925 198.897 236.746C197.458 237.281 198.07 238.222 202.397 242.13C205.28 244.734 211.063 250.187 215.247 254.248C222.855 261.632 222.855 261.632 224.581 257.297C225.53 254.913 227.392 251.532 228.719 249.784C230.397 247.574 230.752 246.477 229.886 246.18C229.201 245.946 229.646 245.92 230.875 246.123C232.156 246.335 233.931 245.671 235.034 244.568C236.092 243.51 237.787 242.43 238.799 242.169C239.812 241.908 238.39 241.636 235.64 241.564C221.954 241.209 219.944 232.473 233.438 231.993C241.295 231.714 242.14 231.227 242.14 226.976C242.14 223.399 243.534 222.506 247.89 223.29C250.092 223.687 251.114 225.462 249.14 225.462C248.59 225.462 248.147 226.7 248.155 228.212C248.167 230.298 248.395 230.607 249.101 229.491C249.613 228.682 250.38 228.369 250.807 228.795C251.233 229.222 250.933 229.972 250.139 230.463C248.043 231.758 250.629 232.596 255.14 232.083C257.065 231.865 259.99 231.6 261.64 231.495C263.29 231.39 264.078 231.077 263.39 230.8C262.703 230.522 262.14 228.758 262.14 226.879C262.14 224.82 262.637 223.456 263.39 223.447C264.237 223.436 264.165 223.131 263.169 222.501C261.4 221.382 261.792 220.947 265.329 220.099C266.808 219.745 268.297 219.906 268.638 220.458C268.979 221.01 268.556 221.462 267.699 221.462C266.842 221.462 266.14 221.898 266.14 222.431C266.14 222.963 266.811 223.142 267.632 222.827C268.492 222.497 269.391 222.951 269.755 223.901C270.341 225.428 270.522 225.426 272.226 223.884C274.956 221.414 277.14 222.768 277.14 226.931C277.14 228.873 277.524 230.462 277.993 230.462C278.462 230.462 278.63 228.212 278.366 225.462C278.046 222.135 278.263 220.462 279.013 220.462C279.633 220.462 280.14 221.164 280.14 222.021C280.14 222.878 280.563 223.319 281.08 222.999C281.597 222.68 282.61 223.061 283.33 223.847C284.465 225.085 284.854 225.084 286.245 223.844C288.764 221.6 291.14 223.165 291.14 227.069C291.14 230.644 287.996 231.918 285.453 229.375C284.67 228.592 284.178 228.592 283.694 229.375C283.324 229.973 282.122 230.462 281.022 230.462C276.529 230.462 280.384 232.035 285.313 232.212C294.759 232.553 302.14 233.632 302.14 234.673C302.14 235.333 305.284 235.456 311.14 235.024C316.945 234.596 320.14 234.718 320.14 235.366C320.14 236.813 314.584 237.613 307.64 237.167C304.34 236.955 300.29 237.202 298.64 237.716C296.99 238.23 291.59 238.99 286.64 239.405C277.64 240.161 277.64 240.161 285.925 240.311C290.991 240.403 295.071 240.999 296.425 241.843C297.643 242.603 301.758 243.494 305.569 243.822C309.38 244.151 312.958 244.88 313.519 245.441C314.081 246.003 315.495 246.462 316.663 246.462C319.157 246.462 336.585 254.755 337.624 256.437C338.027 257.089 334.764 262.982 330.105 270.014C321.874 282.44 321.874 282.44 329.757 291.034C353.572 316.997 376.601 352.707 382.592 372.962C384.707 380.112 386.878 386.249 387.417 386.6C387.955 386.951 388.166 387.626 387.886 388.1C387.041 389.526 388.97 393.462 390.514 393.462C391.305 393.462 393.57 391.324 395.547 388.712C397.524 386.099 402.065 380.587 405.638 376.462C409.211 372.337 412.135 368.4 412.137 367.712C412.145 364.513 414.15 367.412 419.861 378.876C427.773 394.761 429.599 403.009 428.951 419.935C428.372 435.059 428.528 435.831 431.98 434.97C435.846 434.005 437.819 431.853 439.584 426.671C440.444 424.147 441.976 421.155 442.987 420.022C452.124 409.788 468.271 370.129 460.765 376.358C459.755 377.197 459.14 377.295 459.14 376.62C459.14 376.022 459.98 375.083 461.006 374.534C462.205 373.892 463.071 372.003 463.43 369.249C463.737 366.891 464.786 361.587 465.76 357.462C467.569 349.805 468.194 329.021 466.902 319.462C465.808 311.363 462.708 298.462 461.856 298.462C461.397 298.462 461.307 298 461.656 297.436C464.365 293.053 442.468 262.181 426.764 248.242C418.292 240.722 417.185 240.633 417.155 247.469C417.147 249.397 416.725 252.421 416.219 254.188C415.364 257.169 415.726 257.956 421.219 265.064C424.475 269.278 427.14 273.009 427.14 273.354C427.14 273.7 428.179 275.103 429.449 276.472C431.799 279.007 432.14 279.646 432.14 281.521C432.14 282.103 432.585 282.305 433.129 281.969C433.701 281.615 433.859 282.03 433.504 282.955C433.088 284.039 434.451 285.984 437.744 289.007C440.413 291.457 442.081 293.462 441.452 293.462C440.822 293.462 440.08 292.9 439.802 292.212C439.409 291.238 439.28 291.247 439.219 292.252C439.084 294.454 443.11 301.464 444.362 301.206C445.015 301.072 445.57 301.439 445.595 302.023C445.62 302.607 447.354 304.589 449.449 306.428C456.163 312.324 461.768 328.642 462.855 345.462C463.475 355.055 462.629 356.113 461.661 346.956C459.404 325.608 453.283 310.409 444.515 304.376C439.825 301.149 439.825 301.149 440.548 306.056C442.571 319.798 444.004 346.66 442.641 345.297C442.159 344.815 441.781 340.45 440.665 322.462C439.249 299.66 429.549 276.729 413.825 259.013C406.638 250.915 407.492 250.864 393.555 260.212C372.927 274.047 363.679 279.738 361.64 279.851C360.371 279.921 359.523 280.785 359.32 282.213C359.019 284.335 362.443 285.208 364.14 283.442C364.747 282.81 379.549 275.96 383.39 274.533C384.902 273.971 386.14 273.099 386.14 272.595C386.14 272.091 387.223 271.407 388.547 271.075C389.871 270.742 391.625 270.213 392.445 269.898C393.288 269.575 394.868 270.327 396.083 271.631C397.747 273.417 398.413 273.639 399.046 272.615C399.696 271.563 399.985 271.617 400.469 272.878C400.804 273.749 400.615 274.462 400.05 274.462C399.484 274.462 399.305 274.919 399.65 275.478C399.996 276.037 400.708 276.229 401.234 275.904C401.759 275.579 402.066 275.909 401.915 276.638C401.763 277.369 402.351 277.847 403.229 277.705C405.628 277.317 419.285 296.651 417.718 298.217C417.445 298.49 416.247 297.063 415.057 295.045C412.177 290.164 411.442 291.173 414.093 296.369C416.185 300.47 416.185 300.47 419.662 299.017C422.927 297.653 423.14 297.681 423.14 299.478C423.14 301.831 419.969 303.636 415.62 303.76C413.81 303.811 412.508 304.323 412.701 304.907C413.11 306.145 393.404 315.67 390.076 315.844C388.827 315.909 387.618 316.525 387.389 317.212C386.751 319.129 392.796 318.705 399.14 316.387C402.165 315.282 407.902 313.231 411.89 311.83C415.878 310.428 419.156 308.759 419.175 308.122C419.194 307.484 420.291 309.272 421.612 312.096C423.006 315.075 423.777 318.135 423.449 319.388C423.059 320.881 423.302 321.457 424.238 321.255C424.996 321.091 425.744 321.954 425.936 323.212C426.125 324.45 425.771 325.462 425.151 325.462C424.53 325.462 424.297 325.907 424.633 326.451C426.494 329.462 426.031 343.246 424.086 342.738C423.016 342.458 422.14 341.831 422.14 341.345C422.14 340.86 421.663 340.462 421.081 340.462C420.499 340.462 420.278 340.876 420.59 341.381C420.903 341.887 420.479 342.98 419.649 343.81C418.819 344.64 418.14 346.235 418.14 347.355C418.14 348.475 417.224 349.882 416.104 350.481C413.631 351.805 413.906 359.176 416.626 364.435C420.875 372.652 416.737 367.298 411.209 357.426C399.734 336.934 387.695 321.387 360.776 292.291C347.202 277.621 347.202 277.621 356.171 264.024C366.721 248.031 366.091 250.185 360.89 247.891C358.553 246.861 356.405 245.695 356.119 245.301C355.832 244.907 354.482 244.352 353.119 244.069C351.755 243.786 348.39 242.845 345.64 241.978C342.89 241.111 338.84 240.439 336.64 240.485C331.329 240.597 328.786 240.165 327.956 239.01C326.773 237.363 328.162 236.429 330.809 237.094C332.209 237.445 333.644 237.27 333.997 236.704C335.221 234.745 344.679 237.233 355.557 242.377C366.371 247.49 371.3 248.294 364.815 243.887C361.761 241.812 359.058 240.498 346.962 235.209C345.489 234.565 344.517 233.661 344.801 233.201C345.085 232.741 345.84 232.759 346.479 233.241C347.118 233.723 349.89 234.936 352.64 235.936C361.435 239.135 369.547 243.633 372.883 247.16C374.666 249.046 376.538 250.334 377.042 250.023C377.545 249.711 379.074 250.783 380.438 252.404C381.802 254.025 383.197 255.071 383.539 254.729C383.881 254.388 385.466 255.358 387.061 256.886C389.96 259.664 389.96 259.664 397.549 254.774C405.137 249.884 405.137 249.884 400.388 245.264C388.195 233.402 352.303 213.389 347.996 216.051C347.005 216.663 341.14 213.408 341.14 212.246C341.14 211.095 341.178 211.106 353.395 215.588C373.179 222.848 382.898 228.511 399.89 242.682C408.14 249.562 408.14 249.562 408.268 246.262C408.338 244.447 408.542 241.837 408.722 240.462C410.884 223.901 407.068 216.276 397.39 217.818C395.603 218.103 394.14 217.946 394.14 217.468C394.14 216.991 391.698 213.997 388.714 210.816C383.716 205.488 382.448 202.599 385.648 203.827C386.42 204.123 387.459 203.107 388.191 201.339C389.844 197.349 388.414 195.822 384.351 197.239C381.435 198.255 357.555 176.938 359.14 174.734C359.415 174.351 357.84 172.816 355.64 171.323C347.043 165.486 339.395 156.525 341.609 154.882C347.218 150.72 352.544 151.054 360.079 156.04C364.092 158.696 364.092 158.696 361.149 162.267C356.629 167.751 359.186 170.331 363.824 164.965C367.059 161.222 367.059 161.222 373.6 166.964C377.197 170.122 380.14 172.371 380.14 171.962C380.14 171.552 380.815 171.777 381.64 172.462C382.465 173.147 383.133 173.314 383.125 172.834C383.1 171.454 381.503 169.289 380.528 169.315C378.925 169.357 373.918 164.631 374.525 163.649C374.851 163.121 374.379 162.075 373.475 161.325C372.572 160.575 371.777 160.187 371.709 160.462C371.64 160.737 369.596 159.499 367.165 157.712C364.735 155.925 363.172 154.459 363.693 154.455C364.214 154.452 363.29 153.552 361.64 152.456C359.99 151.361 358.054 150.683 357.338 150.952C356.543 151.249 356.315 150.988 356.752 150.281C357.235 149.5 356.909 149.337 355.752 149.781C354.733 150.172 354.284 150.038 354.647 149.451C356.335 146.72 344.694 148.523 338.439 151.962C332.489 155.232 328.759 156.692 332.14 154.426C333.425 153.566 333.317 153.15 331.39 151.531C330.152 150.492 329.14 149.298 329.14 148.877C329.14 148.457 330.263 149.169 331.636 150.458C333.009 151.748 334.423 152.512 334.779 152.157C335.816 151.119 332.921 148.27 329.286 146.75C326.139 145.435 326.033 145.238 327.562 143.549C329.011 141.947 329.024 141.611 327.677 140.493C326.44 139.466 326.051 139.531 325.545 140.849C324.545 143.456 322.351 142.701 321.65 139.509C320.839 135.815 317.491 131.462 315.46 131.462C314.507 131.462 314.144 130.894 314.502 129.962C314.818 129.137 314.529 128.455 313.859 128.447C313.087 128.437 313.188 128.085 314.132 127.488C315.07 126.895 315.979 126.901 316.582 127.504C318.346 129.268 318.964 128.487 317.796 125.97C317.16 124.599 315.889 123.474 314.972 123.47C314.054 123.466 312.52 123.161 311.563 122.794C310.07 122.221 309.911 122.567 310.443 125.228C310.927 127.646 310.686 128.429 309.352 128.78C307.769 129.196 307.772 129.239 309.39 129.346C311.423 129.481 311.738 131.295 309.854 132.018C309.147 132.29 303.859 131.108 298.104 129.393C277.376 123.214 271.085 121.462 269.625 121.462C268.808 121.462 268.14 121.012 268.14 120.462C268.14 119.912 269.913 119.462 272.081 119.462C278.88 119.462 277.834 117.476 270.949 117.312C267.479 117.23 265.99 116.994 267.64 116.788C274.666 115.911 275.908 115.106 271.14 114.517C266.841 113.987 266.64 113.817 266.65 110.712C266.655 108.925 266.317 107.462 265.9 107.462C265.482 107.462 265.14 109.23 265.14 111.391C265.14 115.341 263.176 118.462 260.691 118.462C259.973 118.462 258.825 119.137 258.14 119.962C255.243 123.453 251.141 121.845 251.125 117.212C251.113 113.995 250.86 113.327 250.083 114.462C249.171 115.795 249.079 115.795 249.256 114.462C249.366 113.637 249.113 112.18 248.696 111.225C248.278 110.269 248.437 108.049 249.05 106.291C249.866 103.949 249.867 102.911 249.053 102.408C248.442 102.031 248.05 99.9757 248.181 97.8417C248.312 95.7077 248.272 92.6117 248.091 90.9617C247.91 89.3117 247.482 92.0117 247.14 96.9617C246.523 105.894 246.517 105.861 246.329 92.6767C246.144 79.6737 246.183 79.4137 248.14 80.4617C249.264 81.0637 250.14 81.1267 250.14 80.6057C250.14 79.7037 243.082 76.4617 241.12 76.4617C240.517 76.4617 240.14 83.2607 240.14 94.1287C240.14 103.845 239.931 111.586 239.675 111.331C239.42 111.075 239.158 102.952 239.095 93.2787C238.963 73.3407 240.401 75.0737 222.946 73.8117C213.97 73.1627 214.839 71.8107 215.134 85.9587C215.249 91.4717 215.771 95.2547 216.481 95.7277C217.312 96.2817 217.166 96.8637 215.967 97.7847C214.569 98.8577 214.322 100.793 214.467 109.516C214.611 118.212 214.389 119.962 213.14 119.962C211.852 119.962 211.598 116.246 211.341 93.7117C211.101 72.6957 211.301 67.4607 212.341 67.4577C213.194 67.4547 213.736 65.7457 213.92 62.4777C214.146 58.4697 213.918 57.6097 212.751 58.0577C211.954 58.3637 210.253 57.9517 208.971 57.1417C204.106 54.0697 202.485 54.1667 200.018 57.6747ZM101.469 208.634C85.9604 224.168 85.1444 225.43 92.2284 222.931C96.5514 221.406 104.634 219.614 116.785 217.487C125.36 215.987 136.259 215.843 138.64 217.198C140.331 218.161 140.999 217.921 142.962 215.65C144.24 214.171 145.026 213.484 144.709 214.122C143.691 216.173 145.269 218.423 147.74 218.443C149.06 218.453 151.228 218.47 152.557 218.48C154.767 218.497 154.973 218.9 154.973 223.202C154.973 225.79 155.348 228.031 155.807 228.184C156.265 228.336 156.496 230.598 156.319 233.211C156.143 235.824 156.452 239.087 157.006 240.462C157.968 242.85 158.016 242.862 158.077 240.747C158.111 239.529 159.053 238.044 160.168 237.447C161.283 236.85 161.952 235.967 161.653 235.484C161.355 235.001 162.015 234.319 163.12 233.968C166.308 232.957 168.14 230.556 168.14 227.391C168.14 225.78 168.59 224.462 169.14 224.462C169.69 224.462 170.14 225.812 170.14 227.462C170.14 229.112 170.617 230.462 171.2 230.462C171.814 230.462 172.13 228.883 171.95 226.712C171.659 223.192 171.443 222.969 168.425 223.08C165.652 223.182 165.34 222.957 166.153 221.438C166.791 220.245 166.641 218.757 165.686 216.82C164.911 215.248 164.133 213.287 163.958 212.462C163.783 211.637 163.255 210.681 162.785 210.338C162.314 209.994 162.622 208.644 163.469 207.338C166.672 202.397 166.096 199 161.997 198.658C158.22 198.343 155.374 200.871 153.774 205.962C152.869 208.84 147.904 211.505 146.416 209.912C145.555 208.99 145.748 208.186 147.208 206.619C151.52 201.991 149.009 200.599 128.921 196.483C116.201 193.876 116.201 193.876 101.469 208.634Z" fill="white" fill-opacity="0.43"/>
<path fill-rule="evenodd" clip-rule="evenodd" d="M241.14 128.03C220.256 129.72 216.872 130.341 217.676 132.335C218.037 133.23 218.509 134.412 218.725 134.962C219.558 137.078 217.229 139.117 215.871 137.462C215.194 136.637 213.402 135.817 211.89 135.64C208.005 135.186 208.145 139.134 212.148 142.97C213.803 144.555 218.075 149.927 221.643 154.907C229.942 166.493 237.118 174.538 237.131 172.271C237.136 171.341 236.69 170.302 236.14 169.962C234.221 168.776 234.974 165.185 237.029 165.723C238.068 165.995 239.531 165.829 240.279 165.355C241.36 164.67 241.371 164.489 240.331 164.477C239.611 164.469 239.28 164.044 239.596 163.534C239.911 163.024 239.358 162.349 238.367 162.034C237.376 161.72 236.497 160.553 236.413 159.441C236.322 158.234 236.692 157.685 237.33 158.08C237.938 158.455 238.208 158.167 237.957 157.414C237.199 155.14 235.422 155.275 234.8 157.654C234.357 159.346 233.916 159.638 233.073 158.795C231.359 157.081 232.927 153.623 236.181 151.941C237.776 151.116 239.61 149.433 240.256 148.202C240.903 146.97 242.066 145.588 242.841 145.131C243.891 144.513 243.969 143.961 243.147 142.97C242.384 142.051 242.367 141.44 243.091 140.992C243.668 140.636 244.154 140.708 244.17 141.153C244.187 141.598 244.659 141.175 245.22 140.212C246.484 138.042 251.14 137.845 251.14 139.962C251.14 142.873 257.628 141.859 259.141 138.712C260.448 135.995 260.477 136.034 261.552 141.962C262.969 149.776 266.124 150.701 266.773 143.494C267.292 137.731 271.14 134.671 271.14 140.021C271.14 141.671 272.72 141.95 273.64 140.462C273.98 139.912 273.755 139.462 273.14 139.462C272.525 139.462 272.33 138.964 272.706 138.355C273.183 137.584 273.65 137.659 274.25 138.605C274.723 139.351 275.134 139.512 275.165 138.962C275.195 138.412 275.924 139.262 276.785 140.851C278.423 143.875 280.091 143.056 280.125 139.212C280.133 138.249 280.59 137.462 281.14 137.462C281.723 137.462 282.066 140.172 281.961 143.95C281.736 152.134 282.335 152.706 285.062 146.905C286.26 144.356 288.23 141.25 289.44 140.003C295.948 133.293 295.965 133.321 283.14 129.505C271.403 126.012 267.688 125.882 241.14 128.03ZM159.64 131.085C153.04 131.746 144.94 132.108 141.64 131.888C137.05 131.584 136.227 131.716 138.14 132.45C140.004 133.166 139.176 133.271 134.89 132.864C127.716 132.183 127.335 133.686 132.979 140.398C139.661 148.343 140.85 153.518 135.313 150.555C132.045 148.805 131.619 149.279 134.092 151.911C135.419 153.323 136.141 155.017 135.798 155.911C135.144 157.614 136.65 158.064 137.64 156.462C138.644 154.837 143.429 155.315 147.64 157.462C152.361 159.869 152.516 159.885 151.753 157.897C151.292 156.695 151.616 156.478 153.146 156.964C154.288 157.326 155.14 157.141 155.14 156.529C155.14 155.942 155.59 155.462 156.14 155.462C156.69 155.462 157.14 156.189 157.14 157.079C157.14 158.203 157.749 158.536 159.14 158.172C161.539 157.545 161.726 158.733 159.569 160.891C158.704 161.755 158.479 162.462 159.069 162.462C159.658 162.462 160.14 162.921 160.14 163.481C160.14 164.063 158.961 164.257 157.39 163.934C154.95 163.431 155.049 163.594 158.268 165.376C160.264 166.481 162.182 168.128 162.53 169.036C163.044 170.375 163.445 170.454 164.652 169.452C166.754 167.708 166.514 165.922 164.402 167.59C162.76 168.886 162.756 168.823 164.321 166.462C165.233 165.087 166.521 164.093 167.182 164.253C167.913 164.43 168.145 163.918 167.774 162.951C167.407 161.995 167.574 161.612 168.192 161.994C168.843 162.397 168.999 161.747 168.616 160.222C168.208 158.595 168.572 157.351 169.739 156.388C171.334 155.072 171.371 155.143 170.223 157.298C169.538 158.582 169.216 159.872 169.508 160.163C169.799 160.454 172.385 155.972 175.254 150.203C180.801 139.049 185.7 136.851 196.826 140.523C200.887 141.864 200.889 141.667 196.763 147.328C194.906 149.877 192.149 154.437 190.636 157.462C189.123 160.487 187.52 163.103 187.074 163.275C186.628 163.447 184.237 165.134 181.762 167.025C176.319 171.181 175.164 171.299 175.061 167.712C174.982 164.962 174.982 164.962 173.967 167.745C171.72 173.903 174.107 174.795 180.26 170.097C188.081 164.125 188.334 167.21 181.164 181.079C177.851 187.487 175.14 193.344 175.14 194.096C175.14 196.066 173.736 195.778 171.547 193.36C167.426 188.805 159.68 187.032 154.954 189.562C153.459 190.361 153.084 190.361 153.578 189.562C154.034 188.824 152.776 188.462 149.758 188.462C144.18 188.462 143.565 189.377 146.104 193.897C148.343 197.885 148.015 198.054 141.925 196.057C139.568 195.284 133.478 193.868 128.39 192.91C118.01 190.956 117.991 190.937 122.143 186.959C125.147 184.082 125.147 184.082 134.045 185.888C143.806 187.87 145.612 187.793 144.108 185.462C143.3 184.211 142.994 184.189 142.258 185.33C141.545 186.436 140.971 186.293 139.258 184.58C138.093 183.415 136.353 182.494 135.39 182.532C133.879 182.593 133.913 182.732 135.64 183.553C137.383 184.381 137.319 184.438 135.14 183.996C133.765 183.717 131.965 183.476 131.14 183.46C129.807 183.435 129.807 183.324 131.14 182.462C132.408 181.643 132.356 181.49 130.807 181.477C128.389 181.457 128.823 180.563 133.915 175.067C138.189 170.453 138.189 170.453 143.131 172.958C148.964 175.913 149.14 175.939 149.14 173.855C149.14 172.947 148.574 172.465 147.84 172.747C147.124 173.021 145.437 172.644 144.09 171.907C141.768 170.638 141.891 170.572 146.429 170.643C149.063 170.684 151.497 170.439 151.837 170.098C152.726 169.21 155.14 171.442 155.14 173.152C155.14 174.142 154.51 174.397 153.14 173.962C151.721 173.512 151.14 173.782 151.14 174.895C151.14 176.057 152.175 176.462 155.14 176.462C157.34 176.462 159.14 176.898 159.14 177.431C159.14 177.963 159.893 178.11 160.814 177.757C162.082 177.27 162.332 177.52 161.845 178.788C161.492 179.709 161.61 180.462 162.108 180.462C162.606 180.462 163.154 181.925 163.327 183.712C163.635 186.906 163.662 186.923 164.936 184.691C165.649 183.442 165.891 181.868 165.473 181.192C165.055 180.516 164.838 178.779 164.99 177.332C165.564 171.855 158.394 166.981 151.075 167.872C142.486 168.918 131.258 163.435 134.353 159.705C135.719 158.06 134.915 157.227 132.76 158.054C131.455 158.555 131.235 159.45 131.745 162.17C132.397 165.646 132.397 165.646 129.359 164.075C127.688 163.211 126.091 161.932 125.809 161.233C125.43 160.291 125.277 160.278 125.219 161.181C125.176 161.851 124.508 162.157 123.735 161.86C122.789 161.497 122.115 162.302 121.67 164.324C120.928 167.701 113.175 177.082 112.243 175.73C111.38 174.479 104.14 170.177 104.14 170.916C104.14 172.491 99.9883 169.069 98.5683 166.322C97.5333 164.322 97.4103 163.511 98.2153 164.008C99.1263 164.571 99.2843 164.137 98.8113 162.368C98.4573 161.045 98.1303 158.612 98.0833 156.962C98.0103 154.341 97.8853 154.215 97.0933 155.962C96.4313 157.424 96.3103 156.886 96.6443 153.962C97.1013 149.962 97.1013 149.962 95.7073 154.133C93.4143 160.994 95.2023 165.729 102.915 173.227C107.913 178.084 109.113 179.789 108.259 180.819C107.653 181.549 107.433 182.421 107.769 182.758C109.058 184.047 76.9533 216.366 75.6133 215.128C74.9183 214.487 74.5543 213.624 74.8043 213.212C75.0543 212.8 74.7813 212.462 74.1993 212.462C73.6173 212.462 73.1403 213.137 73.1403 213.962C73.1403 214.787 73.5873 215.462 74.1343 215.462C75.2023 215.462 74.9753 218.96 73.8323 220.103C73.4523 220.484 73.1403 221.339 73.1403 222.003C73.1403 223.486 66.8673 230.462 65.5333 230.462C65.0033 230.462 64.5693 231.362 64.5693 232.462C64.5693 235.749 67.5333 234.155 75.3043 226.688C79.6503 222.512 80.1743 222.278 82.9893 223.26C85.9703 224.299 86.2093 224.109 100.946 209.03C115.881 193.748 115.881 193.748 129.261 196.512C136.619 198.032 143.862 199.75 145.355 200.33C148.579 201.584 149.461 200.65 149.383 196.068C149.334 193.171 149.391 193.119 150.237 195.304C150.736 196.593 150.91 198.024 150.625 198.486C150.34 198.948 151.052 199.987 152.208 200.797C154.014 202.062 154.092 202.389 152.77 203.13C151.811 203.666 151.537 204.487 152.044 205.306C152.623 206.243 153.622 205.315 155.518 202.081C160.826 193.023 170.039 196.307 165.118 205.502C164.137 207.337 164.464 207.387 173.521 206.792C183.688 206.124 187.024 206.668 185.368 208.724C184.82 209.405 184.058 211.425 183.676 213.212C183.294 214.999 182.619 216.462 182.177 216.462C181.735 216.462 181.138 217.362 180.85 218.462C180.563 219.562 180.735 220.462 181.234 220.462C181.732 220.462 182.169 221.474 182.203 222.712C182.264 224.871 182.3 224.88 183.088 222.936C183.54 221.822 185.762 219.401 188.025 217.556C192.401 213.989 193.749 209.462 190.435 209.462C189.321 209.462 190.601 207.733 194.123 204.477C198.861 200.099 207.687 197.131 205.526 200.643C205.296 201.017 205.565 201.606 206.124 201.952C206.683 202.297 207.14 201.878 207.14 201.021C207.14 200.164 207.59 199.462 208.14 199.462C208.69 199.462 209.141 200.7 209.141 202.212C209.143 206.558 224.019 206.466 227.778 202.097C229.133 200.521 230.516 199.504 230.849 199.838C231.183 200.172 232.046 199.955 232.768 199.356C233.49 198.757 235.556 198.061 237.36 197.809C242.502 197.092 247.395 196.613 250.39 196.534C252.396 196.482 253.14 195.95 253.14 194.569C253.14 192.246 254.873 191.497 258.602 192.21C260.579 192.588 261.223 192.406 260.73 191.607C260.34 190.977 260.499 190.462 261.081 190.462C261.663 190.462 262.14 189.562 262.14 188.462C262.14 186.157 262.165 186.153 268.14 187.603C270.615 188.204 274.665 188.834 277.14 189.004C279.615 189.173 283.845 189.637 286.54 190.034C290.121 190.562 291.249 190.447 290.731 189.609C289.932 188.317 291.41 188.268 295.14 189.462C297.611 190.253 297.606 190.265 294.64 190.462C291.674 190.659 291.669 190.671 294.14 191.462C297.85 192.65 302.351 192.634 299.64 191.442C298.362 190.881 299.717 190.775 303.39 191.15C312.199 192.05 310.401 189.972 300.96 188.341C288.605 186.208 294.848 182.043 307.64 183.885C311.262 184.406 312.227 184.314 311.14 183.549C310.315 182.968 308.376 182.486 306.831 182.477C303.053 182.457 304.055 181.228 310.371 178.136C313.269 176.717 318.169 173.301 321.26 170.545C326.881 165.533 326.881 165.533 333.51 172.4C339.473 178.577 341.709 181.55 339.246 180.028C338.755 179.724 336.617 180.232 334.496 181.158C332.375 182.083 330.415 182.885 330.14 182.939C329.865 182.993 328.065 183.768 326.14 184.66C324.215 185.553 321.965 186.513 321.14 186.793C320.035 187.17 320.133 187.325 321.512 187.383C323.005 187.446 323.148 187.747 322.219 188.867C321.26 190.022 321.772 190.393 325.097 190.955C330.066 191.794 330.67 194.342 325.89 194.299C324.102 194.283 320.941 193.842 318.864 193.32C315.869 192.567 314.768 192.691 313.543 193.916C312.149 195.311 312.249 195.462 314.569 195.462C315.983 195.462 317.14 195.898 317.14 196.431C317.14 196.963 317.821 197.138 318.653 196.819C319.485 196.499 320.722 196.669 321.403 197.196C323.704 198.978 333.324 198.503 331.518 196.697C330.674 195.854 330.215 194.283 330.497 193.206C330.778 192.129 330.617 190.217 330.138 188.957C329.312 186.785 333.733 184.475 339.64 183.991C340.19 183.946 341.168 183.578 341.813 183.174C342.548 182.714 348.669 188.224 358.187 197.912C373.387 213.385 373.387 213.385 376.647 212.024C379.887 210.67 379.936 210.693 385.193 216.016C388.101 218.96 390.845 221.144 391.291 220.869C391.737 220.593 390.559 219.013 388.674 217.358C386.789 215.703 385.478 213.746 385.76 213.009C386.043 212.272 385.345 211.019 384.209 210.223C383.063 209.42 382.045 207.482 381.923 205.869C381.676 202.614 379.345 199.56 378.299 201.123C377.395 202.474 374.14 203.596 374.14 202.556C374.14 202.093 368.305 195.714 361.172 188.381C347.848 174.68 346.291 171.462 352.986 171.462C354.208 171.462 354.141 171.183 352.66 170.1C350.806 168.745 347.14 168.992 347.14 170.473C347.14 170.901 346.058 171.186 344.736 171.106C343.414 171.027 342.509 170.675 342.725 170.325C342.941 169.975 342.448 169.133 341.629 168.453C340.81 167.773 340.132 167.61 340.123 168.09C340.114 168.569 339.194 167.538 338.08 165.799C334.742 160.588 331.544 158.968 329.442 161.422C328.177 162.9 327.529 163.1 326.951 162.191C326.338 161.225 326.167 161.23 326.155 162.212C326.147 162.9 325.666 163.462 325.087 163.462C323.937 163.462 310.369 173.862 308.457 176.21C307.806 177.009 306.793 177.366 306.207 177.003C305.62 176.641 305.14 176.711 305.14 177.159C305.14 177.607 303.678 178.599 301.89 179.364C300.102 180.129 296.165 181.952 293.14 183.415C287.794 186.001 287.472 186.036 281.64 184.691C271.928 182.45 249.14 181.874 249.14 183.869C249.14 185.006 248.21 185.453 245.89 185.43C242.974 185.402 242.82 185.262 244.39 184.07C246.449 182.507 246.724 179.462 244.807 179.462C243.987 179.462 243.473 178.287 243.473 176.414C243.473 174.738 242.723 172.617 241.807 171.7C240.841 170.735 240.14 170.52 240.14 171.189C240.14 171.824 240.59 172.622 241.14 172.962C243.229 174.253 242.005 175.462 238.609 175.462C234.529 175.462 232.642 173.6 221.986 159.048C218.326 154.051 214.391 148.769 213.241 147.31C207.974 140.629 192.078 135.182 179.13 135.622C175 135.762 171.097 135.554 170.458 135.158C169.818 134.763 164.197 134.887 157.967 135.433C151.737 135.979 143.265 136.72 139.14 137.079C135.015 137.438 131.925 137.424 132.273 137.047C132.881 136.389 139.23 135.585 160.585 133.461C169.116 132.613 173.669 131.316 172.073 130.189C171.835 130.021 166.24 130.424 159.64 131.085ZM117.14 235.234C106.545 236.109 82.4373 244.007 75.6403 248.83C73.9903 250.001 72.2273 250.96 71.7233 250.96C71.2193 250.961 70.5983 251.587 70.3443 252.351C70.0443 253.25 70.3143 253.472 71.1103 252.981C72.0693 252.388 72.0863 252.694 71.1903 254.369C70.5493 255.567 69.5443 256.212 68.9203 255.826C68.2023 255.382 68.0183 255.701 68.4083 256.717C69.1163 258.562 62.7673 277.03 61.4963 276.822C58.5183 276.335 40.7103 294.01 32.6343 305.47C27.7783 312.361 26.5983 313.462 24.0713 313.462C22.4593 313.462 21.2443 313.125 21.3713 312.712C21.4993 312.299 19.7673 309.262 17.5233 305.962C15.2803 302.662 12.9953 298.612 12.4463 296.962C10.7193 291.769 7.01827 309.973 6.37927 326.809C5.58927 347.627 12.6733 382.583 18.4003 386.123C19.1233 386.569 19.2163 386.157 18.6823 384.876C14.0273 373.709 13.9603 373.341 15.0703 365.096C15.9883 358.274 17.1403 353.846 17.1403 357.14C17.1403 357.696 18.2643 359.458 19.6393 361.056C22.0363 363.844 22.1383 363.871 22.1393 361.712C22.1393 360.474 21.6903 359.462 21.1403 359.462C20.5903 359.462 20.1403 358.985 20.1403 358.403C20.1403 357.821 20.5903 357.622 21.1403 357.962C21.6903 358.302 22.1403 357.792 22.1403 356.83C22.1403 355.25 22.2833 355.268 23.6083 357.021C25.0403 358.913 25.0773 358.906 25.1083 356.712C25.1543 353.499 27.9753 353.89 28.7143 357.212C29.9303 362.679 30.3013 363.481 31.3193 362.851C31.9913 362.436 32.1023 363.045 31.6353 364.587C30.0373 369.861 33.0053 364.6 35.6543 357.462C43.6343 335.963 54.8083 319.499 75.2913 299.066C84.0553 290.323 91.6703 282.34 92.2133 281.326C93.0393 279.782 93.5163 279.68 95.1453 280.697C97.8293 282.373 98.4533 281.531 103.086 269.972C108.089 257.49 107.821 257.329 100.542 268.446C93.3083 279.494 94.0993 279.628 90.3013 266.706C86.3873 253.39 86.3503 254.122 91.0643 251.996C93.6053 250.851 94.8003 249.74 94.4573 248.845C94.1213 247.971 94.6103 247.468 95.7833 247.477C97.3483 247.49 97.4043 247.645 96.1403 248.462C93.3783 250.247 96.3013 249.49 106.758 245.712C117.08 241.983 120.413 239.625 113.542 240.914C111.104 241.372 110.155 241.246 110.601 240.526C111.415 239.208 110.568 239.192 106.2 240.445C104.315 240.985 102.587 241.242 102.36 241.016C101.583 240.238 116.405 236.298 118.272 236.786C119.298 237.055 120.409 236.837 120.739 236.302C121.546 234.996 121.215 234.897 117.14 235.234ZM337.462 242.86C337.787 243.706 337.68 244.628 337.226 244.909C336.771 245.19 336.424 247.117 336.454 249.191C336.501 252.374 336.208 252.914 334.575 252.656C333.047 252.414 333.249 252.849 335.533 254.726C338.989 257.564 339.469 256.242 329.711 270.749C321.782 282.536 321.782 282.536 326.812 287.749C350.597 312.4 375.652 350.447 382.596 372.462C384.938 379.887 387.275 385.881 387.788 385.782C388.302 385.682 388.542 387.14 388.323 389.021C387.797 393.522 390.705 395.004 393.068 391.441C393.932 390.137 398.331 384.856 402.842 379.705C407.353 374.554 411.321 369.467 411.66 368.401C412.741 364.992 413.626 366.192 420.366 380.212C428.186 396.478 429.441 402.122 429.098 419.462C428.762 436.444 428.613 435.626 431.89 434.843C435.563 433.966 437.348 432.446 436.697 430.75C436.375 429.912 436.599 429.628 437.259 430.035C437.998 430.492 438.135 429.94 437.682 428.337C437.212 426.677 437.297 426.378 437.965 427.344C439.039 428.896 440.754 425.264 439.73 423.607C439.433 423.127 440.079 420.895 441.165 418.646C442.251 416.398 443.14 414.087 443.14 413.51C443.14 412.934 443.605 412.462 444.172 412.462C444.74 412.462 446.576 409.424 448.253 405.712C449.93 402 451.928 397.57 452.693 395.869C456.81 386.719 461.655 356.518 460.802 345.328C460.01 334.933 457.107 323.381 455.95 326.02C455.257 327.602 455.19 327.5 455.588 325.474C456.092 322.91 454.445 315.696 452.971 314.012C452.495 313.468 452.14 314.055 452.14 315.384C452.14 317.235 451.862 317.476 450.773 316.572C449.733 315.709 449.105 315.799 448.15 316.95C447.118 318.194 447.183 318.462 448.518 318.462C450.859 318.462 450.537 322.125 448.14 322.752C446.84 323.092 446.14 322.782 446.14 321.868C446.14 321.095 445.69 320.462 445.14 320.462C444.59 320.462 444.108 319 444.07 317.212C444.031 315.424 443.588 313.062 443.085 311.962C441.809 309.173 442.955 325.234 444.618 333.462C445.34 337.037 446.248 343.562 446.636 347.962C447.023 352.362 447.8 356.525 448.362 357.212C449.112 358.128 448.901 358.462 447.571 358.462C445.878 358.462 445.886 358.559 447.699 359.93C449.372 361.195 449.41 361.403 447.973 361.43C447.057 361.448 446.117 360.9 445.885 360.212C445.653 359.525 445.39 362.674 445.301 367.212C445.205 372.153 445.541 375.462 446.14 375.462C446.69 375.462 447.14 375.912 447.14 376.462C447.14 377.012 446.465 377.462 445.64 377.462C444.537 377.462 444.14 378.611 444.14 381.803C444.14 384.191 443.542 388.133 442.81 390.563C442.079 392.994 441.671 395.555 441.904 396.254C442.137 396.954 441.685 398.524 440.9 399.744C438.102 404.088 437.057 408.493 438.676 409.114C439.481 409.423 440.14 410.126 440.14 410.676C440.14 411.226 439.498 411.43 438.713 411.128C437.106 410.512 435.257 412.335 434.677 415.11C432.209 426.913 431.34 428.055 431.366 419.462C431.403 406.927 429.228 392.633 426.649 388.462C425.458 386.537 421.202 378.437 417.19 370.462C401.868 340.004 392.967 327.736 360.288 292.039C346.936 277.453 346.936 277.453 355.538 264.445C365.759 248.987 365.43 251.329 357.89 247.739C347.206 242.653 336.392 240.07 337.462 242.86ZM233.428 272.227C234.909 273.864 234.664 274.576 230.075 281.977C227.353 286.369 223.275 293.562 221.013 297.962C218.751 302.362 215.222 308.887 213.17 312.462C211.119 316.037 207.392 322.787 204.888 327.462C202.385 332.137 197.817 340.407 194.738 345.84C189.093 355.801 188.135 358.201 190.348 356.834C191.012 356.423 192.699 355.97 194.098 355.827C199.876 355.237 203.161 354.305 202.609 353.411C201.241 351.198 210.995 352.418 212.563 354.656C214.039 356.763 214.546 355.937 225.292 333.906C249.324 284.636 248.959 285.955 240.835 277.712C234.701 271.488 228.813 267.128 233.428 272.227ZM132.64 299.466C131.54 299.936 131.203 300.353 131.89 300.392C132.578 300.43 133.14 301.587 133.14 302.962C133.14 304.337 132.626 305.349 131.997 305.212C130.97 304.987 128.827 310.806 127.487 317.462C127.091 319.429 127.21 319.642 128.046 318.462C128.954 317.181 129.112 317.233 129.125 318.819C129.135 320.062 128.644 320.486 127.64 320.1C126.533 319.676 126.094 320.303 125.965 322.493C125.537 329.746 125.344 331.188 124.297 334.918C123.446 337.953 123.473 339.058 124.414 339.668C125.207 340.181 125.286 340.727 124.637 341.212C124.086 341.625 123.498 344.437 123.332 347.462C123.166 350.487 122.965 353.974 122.885 355.212C122.805 356.45 122.38 357.462 121.94 357.462C121.5 357.462 121.073 362.75 120.99 369.212C120.827 382.033 120.641 381.093 118.365 355.962C117.64 347.962 117.64 347.962 114.39 348.276C112.563 348.452 111.14 348.124 111.14 347.526C111.14 346.941 112.377 346.43 113.89 346.392C116.327 346.329 116.412 346.224 114.64 345.462C112.546 344.562 113.874 344.044 117.89 344.193C118.578 344.219 119.14 343.84 119.14 343.351C119.14 342.862 118.417 342.462 117.533 342.462C116.515 342.462 116.137 341.912 116.502 340.962C116.818 340.137 116.641 339.462 116.109 339.462C115.576 339.462 115.14 340.137 115.14 340.962C115.14 341.787 114.339 342.462 113.359 342.462C111.498 342.462 108.736 336.925 109.766 335.259C110.88 333.455 109.191 329.505 107.57 330.127C106.542 330.522 105.834 330.01 105.467 328.603C105.162 327.438 104.463 326.762 103.915 327.101C103.366 327.441 102.524 327.098 102.044 326.34C101.45 325.403 101.171 326.083 101.171 328.462C101.171 331.008 101.424 331.561 102.101 330.491C102.613 329.682 103.393 329.406 103.836 329.878C104.278 330.35 104.027 330.954 103.277 331.22C102.126 331.629 102.126 331.851 103.277 332.649C104.249 333.322 104.027 333.422 102.505 332.997C99.0093 332.02 94.2503 334.57 97.3083 335.781C99.6333 336.701 99.6313 336.706 96.7263 337.54C95.1233 338 93.4353 338.145 92.9763 337.86C92.1443 337.346 91.6653 344.66 92.0763 351.606C92.1943 353.611 91.8653 355.514 91.3443 355.836C90.8243 356.157 90.6073 358.23 90.8623 360.441C91.1703 363.109 90.9333 364.462 90.1573 364.462C89.4193 364.462 89.1033 363.108 89.3033 360.794C89.5723 357.674 89.3063 357.103 87.5223 356.972C85.6343 356.833 85.4583 357.271 85.7523 361.39C86.0783 365.962 86.0783 365.962 84.6883 360.584C83.9243 357.626 83.0223 351.326 82.6843 346.584C81.7433 333.388 80.9713 326.297 80.5233 326.745C76.6723 330.597 88.6253 391.081 94.8893 399.439C100.23 406.564 112.856 421.196 120.886 429.564C125.426 434.295 129.14 438.683 129.14 439.314C129.14 439.959 130.673 440.462 132.64 440.462C134.565 440.462 136.14 440.012 136.14 439.462C136.14 438.912 136.708 438.462 137.403 438.462C138.097 438.462 139.11 437.601 139.653 436.548C142.329 431.359 158.802 404.599 160.875 402.072C162.179 400.482 163.014 398.575 162.729 397.834C162.445 397.093 162.702 396.593 163.301 396.724C163.9 396.855 164.617 396.337 164.895 395.573C165.176 394.798 164.951 394.461 164.384 394.811C163.019 395.655 162.209 391.75 161.511 380.962C161.191 376.012 160.476 371.679 159.921 371.333C159.305 370.948 159.443 370.463 160.277 370.083C161.332 369.602 161.358 369.33 160.39 368.879C158.904 368.185 158.705 365.462 160.14 365.462C160.69 365.462 161.14 364.562 161.14 363.462C161.14 362.362 160.69 361.462 160.14 361.462C159.59 361.462 159.101 360.45 159.054 359.212C158.755 351.378 157.089 364.864 157.115 374.915C157.168 395.865 154.161 385.463 152.647 359.462C152.375 354.787 151.881 346.125 151.55 340.212C150.935 329.242 149.487 325.787 149.722 335.851C149.794 338.904 149.514 341.193 149.101 340.938C148.688 340.682 148.072 341.197 147.733 342.08C147.236 343.375 146.83 343.449 145.641 342.463C144.829 341.789 143.556 341.472 142.812 341.758C139.748 342.933 138.638 340.68 138.741 333.496C138.796 329.627 138.543 326.462 138.177 326.462C137.812 326.462 136.895 324.887 136.14 322.962C135.385 321.037 134.401 319.462 133.953 319.462C132.632 319.462 133.025 316.802 134.531 315.552C136.149 314.21 137.197 308.615 135.973 307.859C135.515 307.576 135.14 308.046 135.14 308.903C135.14 309.76 134.641 310.462 134.032 310.462C133.305 310.462 133.185 309.514 133.682 307.712C134.099 306.2 134.469 304.174 134.504 303.212C134.54 302.25 135.185 301.462 135.938 301.462C137.42 301.462 137.114 299.239 135.578 298.849C135.062 298.718 133.74 298.995 132.64 299.466Z" fill="white" fill-opacity="0.267"/>
</g>
<defs>
<clipPath id="clip0_1521_2131">
<rect width="472" height="440" fill="white" transform="translate(0.140381 0.461914)"/>
</clipPath>
</defs>
</svg>
