<svg width="768" height="840" viewBox="0 0 768 840" fill="none" xmlns="http://www.w3.org/2000/svg">
<g clip-path="url(#clip0_1505_807)">
<path d="M95.042 111.207L73.6677 117.168L58.9351 104.884C55.7954 102.175 50.482 101.512 47.0404 103.198L16.1262 118.553C12.6846 120.3 10.0883 124.996 10.3902 129.031L11.4166 148.179L5.92209 153.719C3.2654 156.429 2.42009 160.885 3.86919 163.655L9.06181 173.891C10.5109 176.661 14.0129 177.926 17.2734 176.239L21.3188 174.252C17.8772 167.388 20.715 159.018 27.5983 155.586C34.4815 152.153 42.8742 154.984 46.3159 161.848L78.6188 145.771C75.1772 138.906 78.015 130.536 84.8983 127.104C91.7815 123.672 100.174 126.502 103.616 133.366L106.152 132.162C109.11 130.657 110.378 127.345 108.929 124.575L103.797 114.459C101.986 111.809 98.2421 110.304 95.042 111.207ZM36.2325 135.835L17.9376 144.867L17.1526 128.79C17.1526 127.285 18.4206 125.297 19.1452 124.816L28.504 120.179L36.2325 135.835ZM42.3912 132.644L34.5419 117.108L50.0594 109.521C50.8443 109.22 53.3803 109.34 54.4671 110.244L66.7845 120.661L42.3912 132.644Z" fill="#E0E0E0"/>
<path d="M74.0909 77.0048L75.4796 78.7511C79.5854 74.1145 86.8309 73.693 91.4198 77.908C96.069 82.0027 96.4916 89.2285 92.2651 93.8049L114.002 113.495C118.107 108.859 125.353 108.437 129.942 112.652C134.591 116.747 135.014 123.973 130.787 128.549L133.565 131.018C135.799 132.885 138.818 132.764 140.569 130.958L146.848 124.033C148.659 122.046 149.022 118.493 147.452 115.783L144.493 110.123L149.565 95.3102C150.652 92.2393 149.625 87.964 147.331 85.9167L126.319 67.1295C124.025 64.9618 119.738 64.4801 116.658 65.7446L102.409 72.1274L101.443 52.9187C101.382 52.1359 100.718 51.5338 99.9333 51.594C99.1483 51.6542 98.5445 52.3166 98.6049 53.0994L99.4502 70.3811L87.0121 62.6736C84.6573 61.2284 81.5176 61.7102 79.7666 63.5166L73.6682 70.3209C71.9172 72.1876 71.9776 75.1381 74.0909 77.0048ZM127.587 95.0092L137.067 84.4715L143.467 90.1317C144.071 90.6135 144.493 92.5403 144.191 93.6242L140.025 106.089L127.587 95.0092ZM100.658 82.9661L106.937 76.1618L118.953 70.8629C120.16 70.3209 121.972 70.7424 122.515 71.2242L132.9 80.6177L112.009 103.56L99.7521 92.5403C101.02 89.5898 101.443 86.3382 100.658 82.9661Z" fill="#E0E0E0"/>
<path d="M4.95645 77.908L10.5717 87.5424C12.0812 90.1919 15.5832 91.1554 18.2399 89.65L19.206 89.108L21.9834 93.9855C22.708 95.25 24.3382 95.6715 25.7873 94.9489L28.1421 93.564C29.4101 92.8414 29.8327 91.2156 29.1082 89.7704L26.3307 84.893L56.3997 67.4306C59.0564 65.9252 60.0224 62.4327 58.5129 59.7832L52.8977 50.1488C51.7505 48.2219 49.3957 47.0778 47.1616 47.4993L34.7839 34.553C32.6706 32.3251 28.7459 31.7831 26.0892 33.2885L3.44697 46.3552C0.790279 47.8606 -0.598446 51.6542 0.246865 54.6047L5.25835 71.6456C3.86963 73.4521 3.56773 75.9811 4.95645 77.908ZM41.9086 61.4692C40.7614 59.5424 41.486 56.8929 43.4181 55.7488C45.3502 54.6047 48.0069 55.3273 49.1541 57.2542C50.3013 59.1811 49.5768 61.8305 47.6447 62.9746C45.6521 64.1187 42.9954 63.3961 41.9086 61.4692ZM10.1491 68.4542L5.68101 53.2198C5.56025 52.6778 5.9829 51.7144 6.40556 51.4133L29.0478 38.2864C29.4705 37.9853 30.5573 38.1659 30.8592 38.5875L41.9086 50.0283L10.1491 68.4542ZM12.6246 78.2091C11.4774 76.2822 12.202 73.6327 14.1341 72.4886C16.0663 71.3445 18.7229 72.0671 19.8702 73.994C21.0174 75.9209 20.2928 78.5704 18.3607 79.7145C16.4285 80.979 13.7718 80.136 12.6246 78.2091Z" fill="#E0E0E0"/>
<path d="M85.0796 52.1962L69.381 34.6735C68.2337 33.409 68.4149 31.3015 69.6829 30.2176L74.8151 25.7617C76.0831 24.6176 78.1963 24.7982 79.2832 26.0628L94.9818 43.465C96.129 44.7295 95.9479 46.837 94.6799 47.9209L89.5477 52.3768C88.2797 53.6413 86.3476 53.4607 85.0796 52.1962Z" fill="#E0E0E0"/>
<path d="M83.449 157.573V169.495C83.449 173.47 92.0832 176.661 102.65 176.661C113.216 176.661 121.85 173.47 121.85 169.495V157.513C121.85 153.538 113.216 150.347 102.65 150.347C91.9021 150.347 83.449 153.538 83.449 157.573ZM91.7813 157.573C91.7813 155.345 96.7324 153.599 102.65 153.599C108.748 153.599 113.518 155.345 113.518 157.573C113.518 159.801 108.567 161.547 102.65 161.547C96.5513 161.547 91.7813 159.801 91.7813 157.573Z" fill="#E0E0E0"/>
<path d="M116.042 561.207L94.6677 567.168L79.9351 554.884C76.7954 552.175 71.482 551.512 68.0404 553.198L37.1262 568.553C33.6846 570.3 31.0883 574.996 31.3902 579.031L32.4166 598.179L26.9221 603.719C24.2654 606.429 23.4201 610.885 24.8692 613.655L30.0618 623.891C31.5109 626.661 35.0129 627.926 38.2734 626.239L42.3188 624.252C38.8772 617.388 41.715 609.018 48.5983 605.586C55.4815 602.153 63.8742 604.984 67.3159 611.848L99.6188 595.771C96.1772 588.906 99.015 580.536 105.898 577.104C112.782 573.672 121.174 576.502 124.616 583.366L127.152 582.162C130.11 580.657 131.378 577.345 129.929 574.575L124.797 564.459C122.986 561.809 119.242 560.304 116.042 561.207ZM57.2325 585.835L38.9376 594.867L38.1526 578.79C38.1526 577.285 39.4206 575.297 40.1452 574.816L49.504 570.179L57.2325 585.835ZM63.3912 582.644L55.5419 567.108L71.0594 559.521C71.8443 559.22 74.3803 559.34 75.4671 560.244L87.7845 570.661L63.3912 582.644Z" fill="#E0E0E0"/>
<path d="M95.0909 527.005L96.4796 528.751C100.585 524.114 107.831 523.693 112.42 527.908C117.069 532.003 117.492 539.229 113.265 543.805L135.002 563.495C139.107 558.859 146.353 558.437 150.942 562.652C155.591 566.747 156.014 573.973 151.787 578.549L154.565 581.018C156.799 582.885 159.818 582.764 161.569 580.958L167.848 574.033C169.659 572.046 170.022 568.493 168.452 565.783L165.493 560.123L170.565 545.31C171.652 542.239 170.625 537.964 168.331 535.917L147.319 517.13C145.025 514.962 140.738 514.48 137.658 515.745L123.409 522.127L122.443 502.919C122.382 502.136 121.718 501.534 120.933 501.594C120.148 501.654 119.545 502.317 119.605 503.099L120.45 520.381L108.012 512.674C105.657 511.228 102.518 511.71 100.767 513.517L94.6682 520.321C92.9172 522.188 92.9776 525.138 95.0909 527.005ZM148.587 545.009L158.067 534.472L164.467 540.132C165.071 540.613 165.493 542.54 165.191 543.624L161.025 556.089L148.587 545.009ZM121.658 532.966L127.937 526.162L139.953 520.863C141.16 520.321 142.972 520.742 143.515 521.224L153.9 530.618L133.009 553.56L120.752 542.54C122.02 539.59 122.443 536.338 121.658 532.966Z" fill="#E0E0E0"/>
<path d="M25.9565 527.908L31.5717 537.542C33.0812 540.192 36.5832 541.155 39.2399 539.65L40.206 539.108L42.9834 543.985C43.708 545.25 45.3382 545.671 46.7873 544.949L49.1421 543.564C50.4101 542.841 50.8327 541.216 50.1082 539.77L47.3307 534.893L77.3997 517.431C80.0564 515.925 81.0224 512.433 79.5129 509.783L73.8977 500.149C72.7505 498.222 70.3957 497.078 68.1616 497.499L55.7839 484.553C53.6706 482.325 49.7459 481.783 47.0892 483.289L24.447 496.355C21.7903 497.861 20.4016 501.654 21.2469 504.605L26.2584 521.646C24.8696 523.452 24.5677 525.981 25.9565 527.908ZM62.9086 511.469C61.7614 509.542 62.486 506.893 64.4181 505.749C66.3502 504.605 69.0069 505.327 70.1541 507.254C71.3013 509.181 70.5768 511.831 68.6447 512.975C66.6521 514.119 63.9954 513.396 62.9086 511.469ZM31.1491 518.454L26.681 503.22C26.5602 502.678 26.9829 501.714 27.4056 501.413L50.0478 488.286C50.4705 487.985 51.5573 488.166 51.8592 488.587L62.9086 500.028L31.1491 518.454ZM33.6246 528.209C32.4774 526.282 33.202 523.633 35.1341 522.489C37.0663 521.345 39.7229 522.067 40.8702 523.994C42.0174 525.921 41.2928 528.57 39.3607 529.714C37.4285 530.979 34.7718 530.136 33.6246 528.209Z" fill="#E0E0E0"/>
<path d="M106.08 502.196L90.381 484.674C89.2337 483.409 89.4149 481.301 90.6829 480.218L95.8151 475.762C97.0831 474.618 99.1963 474.798 100.283 476.063L115.982 493.465C117.129 494.729 116.948 496.837 115.68 497.921L110.548 502.377C109.28 503.641 107.348 503.461 106.08 502.196Z" fill="#E0E0E0"/>
<path d="M104.449 607.573V619.495C104.449 623.47 113.083 626.661 123.65 626.661C134.216 626.661 142.85 623.47 142.85 619.495V607.513C142.85 603.538 134.216 600.347 123.65 600.347C112.902 600.347 104.449 603.538 104.449 607.573ZM112.781 607.573C112.781 605.345 117.732 603.599 123.65 603.599C129.748 603.599 134.518 605.345 134.518 607.573C134.518 609.801 129.567 611.547 123.65 611.547C117.551 611.547 112.781 609.801 112.781 607.573Z" fill="#E0E0E0"/>
<path d="M493.958 631.207L515.332 637.168L530.065 624.884C533.204 622.175 538.518 621.512 541.959 623.198L572.874 638.553C576.315 640.3 578.912 644.996 578.61 649.031L577.583 668.179L583.078 673.719C585.734 676.429 586.58 680.885 585.131 683.655L579.938 693.891C578.489 696.661 574.987 697.926 571.726 696.239L567.681 694.252C571.123 687.388 568.285 679.018 561.402 675.586C554.518 672.153 546.126 674.984 542.684 681.848L510.381 665.771C513.823 658.906 510.985 650.536 504.102 647.104C497.218 643.672 488.826 646.502 485.384 653.366L482.848 652.162C479.89 650.657 478.622 647.345 480.071 644.575L485.203 634.459C487.014 631.809 490.758 630.304 493.958 631.207ZM552.767 655.835L571.062 664.867L571.847 648.79C571.847 647.285 570.579 645.297 569.855 644.816L560.496 640.179L552.767 655.835ZM546.609 652.644L554.458 637.108L538.94 629.521C538.156 629.22 535.62 629.34 534.533 630.244L522.215 640.661L546.609 652.644Z" fill="#E0E0E0"/>
<path d="M514.909 597.005L513.52 598.751C509.414 594.114 502.169 593.693 497.58 597.908C492.931 602.003 492.508 609.229 496.735 613.805L474.998 633.495C470.892 628.859 463.647 628.437 459.058 632.652C454.409 636.747 453.986 643.973 458.213 648.549L455.435 651.018C453.201 652.885 450.182 652.764 448.431 650.958L442.152 644.033C440.34 642.046 439.978 638.493 441.548 635.783L444.507 630.123L439.435 615.31C438.348 612.239 439.374 607.964 441.669 605.917L462.681 587.13C464.975 584.962 469.262 584.48 472.342 585.745L486.591 592.127L487.557 572.919C487.618 572.136 488.282 571.534 489.067 571.594C489.852 571.654 490.455 572.317 490.395 573.099L489.55 590.381L501.988 582.674C504.343 581.228 507.482 581.71 509.233 583.517L515.332 590.321C517.083 592.188 517.022 595.138 514.909 597.005ZM461.413 615.009L451.933 604.472L445.533 610.132C444.929 610.613 444.507 612.54 444.809 613.624L448.975 626.089L461.413 615.009ZM488.342 602.966L482.063 596.162L470.047 590.863C468.84 590.321 467.028 590.742 466.485 591.224L456.099 600.618L476.991 623.56L489.248 612.54C487.98 609.59 487.557 606.338 488.342 602.966Z" fill="#E0E0E0"/>
<path d="M584.044 597.908L578.428 607.542C576.919 610.192 573.417 611.155 570.76 609.65L569.794 609.108L567.017 613.985C566.292 615.25 564.662 615.671 563.213 614.949L560.858 613.564C559.59 612.841 559.167 611.216 559.892 609.77L562.669 604.893L532.6 587.431C529.944 585.925 528.978 582.433 530.487 579.783L536.102 570.149C537.25 568.222 539.604 567.078 541.838 567.499L554.216 554.553C556.329 552.325 560.254 551.783 562.911 553.289L585.553 566.355C588.21 567.861 589.598 571.654 588.753 574.605L583.742 591.646C585.13 593.452 585.432 595.981 584.044 597.908ZM547.091 581.469C548.239 579.542 547.514 576.893 545.582 575.749C543.65 574.605 540.993 575.327 539.846 577.254C538.699 579.181 539.423 581.831 541.355 582.975C543.348 584.119 546.005 583.396 547.091 581.469ZM578.851 588.454L583.319 573.22C583.44 572.678 583.017 571.714 582.594 571.413L559.952 558.286C559.53 557.985 558.443 558.166 558.141 558.587L547.091 570.028L578.851 588.454ZM576.375 598.209C577.523 596.282 576.798 593.633 574.866 592.489C572.934 591.345 570.277 592.067 569.13 593.994C567.983 595.921 568.707 598.57 570.639 599.714C572.571 600.979 575.228 600.136 576.375 598.209Z" fill="#E0E0E0"/>
<path d="M503.92 572.196L519.619 554.674C520.766 553.409 520.585 551.301 519.317 550.218L514.185 545.762C512.917 544.618 510.804 544.798 509.717 546.063L494.018 563.465C492.871 564.729 493.052 566.837 494.32 567.921L499.452 572.377C500.72 573.641 502.652 573.461 503.92 572.196Z" fill="#E0E0E0"/>
<path d="M505.551 677.573V689.495C505.551 693.47 496.917 696.661 486.35 696.661C475.784 696.661 467.15 693.47 467.15 689.495V677.513C467.15 673.538 475.784 670.347 486.35 670.347C497.098 670.347 505.551 673.538 505.551 677.573ZM497.219 677.573C497.219 675.345 492.268 673.599 486.35 673.599C480.252 673.599 475.482 675.345 475.482 677.573C475.482 679.801 480.433 681.547 486.35 681.547C492.449 681.547 497.219 679.801 497.219 677.573Z" fill="#E0E0E0"/>
<path d="M633.958 125.207L655.332 131.168L670.065 118.884C673.204 116.175 678.518 115.512 681.959 117.198L712.874 132.553C716.315 134.3 718.912 138.996 718.61 143.031L717.583 162.179L723.078 167.719C725.734 170.429 726.58 174.885 725.131 177.655L719.938 187.891C718.489 190.661 714.987 191.926 711.726 190.239L707.681 188.252C711.123 181.388 708.285 173.018 701.402 169.586C694.518 166.153 686.126 168.984 682.684 175.848L650.381 159.771C653.823 152.906 650.985 144.536 644.102 141.104C637.218 137.672 628.826 140.502 625.384 147.366L622.848 146.162C619.89 144.657 618.622 141.345 620.071 138.575L625.203 128.459C627.014 125.809 630.758 124.304 633.958 125.207ZM692.767 149.835L711.062 158.867L711.847 142.79C711.847 141.285 710.579 139.297 709.855 138.816L700.496 134.179L692.767 149.835ZM686.609 146.644L694.458 131.108L678.94 123.521C678.156 123.22 675.62 123.34 674.533 124.244L662.215 134.661L686.609 146.644Z" fill="#E0E0E0"/>
<path d="M654.909 91.0048L653.52 92.7511C649.414 88.1145 642.169 87.693 637.58 91.908C632.931 96.0027 632.508 103.229 636.735 107.805L614.998 127.495C610.892 122.859 603.647 122.437 599.058 126.652C594.409 130.747 593.986 137.973 598.213 142.549L595.435 145.018C593.201 146.885 590.182 146.764 588.431 144.958L582.152 138.033C580.34 136.046 579.978 132.493 581.548 129.783L584.507 124.123L579.435 109.31C578.348 106.239 579.374 101.964 581.669 99.9167L602.681 81.1295C604.975 78.9618 609.262 78.4801 612.342 79.7446L626.591 86.1274L627.557 66.9187C627.618 66.1359 628.282 65.5338 629.067 65.594C629.852 65.6542 630.455 66.3166 630.395 67.0994L629.55 84.3811L641.988 76.6736C644.343 75.2284 647.482 75.7102 649.233 77.5166L655.332 84.3209C657.083 86.1876 657.022 89.1381 654.909 91.0048ZM601.413 109.009L591.933 98.4715L585.533 104.132C584.929 104.613 584.507 106.54 584.809 107.624L588.975 120.089L601.413 109.009ZM628.342 96.9661L622.063 90.1618L610.047 84.8629C608.84 84.3209 607.028 84.7424 606.485 85.2242L596.099 94.6177L616.991 117.56L629.248 106.54C627.98 103.59 627.557 100.338 628.342 96.9661Z" fill="#E0E0E0"/>
<path d="M724.044 91.908L718.428 101.542C716.919 104.192 713.417 105.155 710.76 103.65L709.794 103.108L707.017 107.985C706.292 109.25 704.662 109.671 703.213 108.949L700.858 107.564C699.59 106.841 699.167 105.216 699.892 103.77L702.669 98.893L672.6 81.4306C669.944 79.9252 668.978 76.4327 670.487 73.7832L676.102 64.1488C677.25 62.2219 679.604 61.0778 681.838 61.4993L694.216 48.553C696.329 46.3251 700.254 45.7831 702.911 47.2885L725.553 60.3552C728.21 61.8606 729.598 65.6542 728.753 68.6047L723.742 85.6456C725.13 87.4521 725.432 89.9811 724.044 91.908ZM687.091 75.4692C688.239 73.5424 687.514 70.8929 685.582 69.7488C683.65 68.6047 680.993 69.3273 679.846 71.2542C678.699 73.1811 679.423 75.8305 681.355 76.9746C683.348 78.1187 686.005 77.3961 687.091 75.4692ZM718.851 82.4542L723.319 67.2198C723.44 66.6778 723.017 65.7144 722.594 65.4133L699.952 52.2864C699.53 51.9853 698.443 52.1659 698.141 52.5875L687.091 64.0283L718.851 82.4542ZM716.375 92.2091C717.523 90.2822 716.798 87.6327 714.866 86.4886C712.934 85.3445 710.277 86.0671 709.13 87.994C707.983 89.9209 708.707 92.5704 710.639 93.7145C712.571 94.979 715.228 94.136 716.375 92.2091Z" fill="#E0E0E0"/>
<path d="M643.92 66.1962L659.619 48.6735C660.766 47.409 660.585 45.3015 659.317 44.2176L654.185 39.7617C652.917 38.6176 650.804 38.7982 649.717 40.0628L634.018 57.465C632.871 58.7295 633.052 60.837 634.32 61.9209L639.452 66.3768C640.72 67.6413 642.652 67.4607 643.92 66.1962Z" fill="#E0E0E0"/>
<path d="M645.551 171.573V183.495C645.551 187.47 636.917 190.661 626.35 190.661C615.784 190.661 607.15 187.47 607.15 183.495V171.513C607.15 167.538 615.784 164.347 626.35 164.347C637.098 164.347 645.551 167.538 645.551 171.573ZM637.219 171.573C637.219 169.345 632.268 167.599 626.35 167.599C620.252 167.599 615.482 169.345 615.482 171.573C615.482 173.801 620.433 175.547 626.35 175.547C632.449 175.547 637.219 173.801 637.219 171.573Z" fill="#E0E0E0"/>
<path d="M303.31 306.741L319.509 314.001L332.626 306.038C335.433 304.268 339.715 304.377 342.237 306.12L364.865 321.948C367.38 323.739 368.874 327.764 368.155 330.919L365.063 345.945L368.751 350.982C370.53 353.442 370.668 357.068 369.192 359.086L363.865 366.566C362.389 368.585 359.468 369.168 357.089 367.446L354.126 365.393C357.666 360.372 356.417 353.413 351.38 349.878C346.344 346.343 339.367 347.583 335.827 352.604L312.187 336.039C315.727 331.018 314.478 324.059 309.442 320.524C304.405 316.99 297.429 318.229 293.889 323.25L292.026 321.995C289.865 320.452 289.256 317.681 290.732 315.662L295.997 308.271C297.745 306.39 300.886 305.645 303.31 306.741ZM346.901 333.225L360.299 342.549L362.834 329.924C363.013 328.733 362.247 327.01 361.731 326.543L354.879 321.76L346.901 333.225ZM342.409 329.968L350.468 318.612L339.096 310.762C338.511 310.431 336.49 310.224 335.523 310.809L324.539 317.584L342.409 329.968Z" fill="#E0E0E0"/>
<path d="M323.956 282.178L322.65 283.394C319.954 279.238 314.272 278.041 310.14 280.83C305.975 283.515 304.78 289.181 307.579 293.305L288.039 306.294C285.343 302.137 279.661 300.941 275.529 303.729C271.364 306.415 270.169 312.081 272.968 316.204L270.477 317.827C268.487 319.037 266.113 318.583 264.943 316.945L260.8 310.719C259.603 308.932 259.74 306.078 261.304 304.121L264.319 299.996L262.07 287.674C261.576 285.115 262.897 281.855 264.956 280.508L283.815 268.148C285.888 266.706 289.337 266.835 291.622 268.202L302.135 274.948L305.186 259.867C305.327 259.255 305.924 258.858 306.538 258.999C307.152 259.14 307.551 259.736 307.41 260.348L304.683 273.919L315.441 269.303C317.476 268.44 319.902 269.195 321.072 270.832L325.087 276.941C326.249 278.626 325.85 280.953 323.956 282.178ZM279.492 290.052L273.248 280.587L267.511 284.303C266.976 284.612 266.412 286.086 266.522 286.98L268.334 297.336L279.492 290.052ZM302.23 283.731L298.072 277.601L289.198 271.978C288.307 271.406 286.824 271.524 286.337 271.84L277.003 278.035L290.798 298.671L301.806 291.413C301.155 288.928 301.207 286.305 302.23 283.731Z" fill="#E0E0E0"/>
<path d="M378.54 291.124L372.951 298.077C371.442 299.993 368.556 300.338 366.634 298.831L365.934 298.287L363.156 301.815C362.433 302.729 361.093 302.869 360.032 302.124L358.334 300.748C357.417 300.026 357.277 298.689 358.022 297.632L360.8 294.105L339.091 276.71C337.169 275.203 336.821 272.325 338.33 270.409L343.919 263.456C345.056 262.068 347.055 261.443 348.773 262.043L360.106 253.275C362.043 251.764 365.212 251.802 367.135 253.309L383.491 266.342C385.414 267.849 386.061 271.016 385.041 273.249L379.047 286.134C379.931 287.728 379.868 289.765 378.54 291.124ZM351.265 273.72C352.402 272.332 352.144 270.15 350.752 269.014C349.36 267.879 347.172 268.135 346.035 269.522C344.898 270.91 345.156 273.092 346.548 274.228C347.988 275.37 350.176 275.115 351.265 273.72ZM375.558 283.027L380.906 271.507C381.067 271.092 380.847 270.28 380.548 269.991L364.199 256.911C363.901 256.622 363.019 256.636 362.73 256.934L352.627 264.669L375.558 283.027ZM372.438 290.449C373.575 289.061 373.317 286.879 371.925 285.744C370.533 284.609 368.345 284.864 367.208 286.252C366.071 287.639 366.329 289.822 367.721 290.957C369.099 292.187 371.301 291.837 372.438 290.449Z" fill="#E0E0E0"/>
<path d="M318.217 261.244L332.722 249.251C333.78 248.387 333.888 246.698 333.014 245.69L329.484 241.554C328.617 240.498 326.924 240.389 325.914 241.26L311.423 253.158C310.365 254.022 310.257 255.71 311.131 256.719L314.661 260.855C315.513 262.006 317.063 262.093 318.217 261.244Z" fill="#E0E0E0"/>
<path d="M306.961 344.801L305.541 354.232C305.068 357.376 297.858 358.873 289.499 357.615C281.14 356.357 274.689 352.804 275.162 349.66L276.589 340.181C277.062 337.037 284.273 335.54 292.632 336.798C301.134 338.078 307.441 341.609 306.961 344.801ZM300.369 343.808C300.634 342.046 296.925 340.075 292.244 339.371C287.42 338.645 283.439 339.458 283.173 341.221C282.908 342.983 286.617 344.954 291.298 345.658C296.122 346.385 300.104 345.571 300.369 343.808Z" fill="#E0E0E0"/>
<path d="M361.31 814.741L377.509 822.001L390.626 814.038C393.433 812.268 397.715 812.377 400.237 814.12L422.865 829.948C425.38 831.739 426.874 835.764 426.155 838.919L423.063 853.945L426.75 858.982C428.529 861.442 428.668 865.068 427.192 867.086L421.865 874.566C420.389 876.585 417.468 877.168 415.089 875.446L412.126 873.393C415.665 868.372 414.417 861.413 409.38 857.878C404.344 854.343 397.367 855.583 393.827 860.604L370.187 844.039C373.727 839.018 372.478 832.059 367.442 828.524C362.405 824.99 355.429 826.229 351.889 831.25L350.026 829.995C347.865 828.452 347.256 825.681 348.732 823.662L353.997 816.271C355.745 814.39 358.886 813.645 361.31 814.741ZM404.901 841.225L418.299 850.549L420.834 837.924C421.013 836.733 420.247 835.01 419.731 834.543L412.879 829.76L404.901 841.225ZM400.409 837.968L408.468 826.612L397.096 818.762C396.511 818.431 394.49 818.224 393.523 818.809L382.538 825.584L400.409 837.968Z" fill="#E0E0E0"/>
<path d="M381.956 790.178L380.65 791.394C377.954 787.238 372.272 786.041 368.14 788.83C363.975 791.515 362.78 797.181 365.579 801.305L346.039 814.294C343.343 810.137 337.661 808.941 333.529 811.729C329.363 814.415 328.169 820.081 330.968 824.204L328.476 825.827C326.487 827.037 324.113 826.583 322.943 824.945L318.8 818.719C317.603 816.932 317.74 814.078 319.304 812.121L322.319 807.996L320.07 795.674C319.576 793.115 320.897 789.855 322.956 788.508L341.815 776.148C343.888 774.706 347.337 774.835 349.622 776.202L360.135 782.948L363.186 767.867C363.327 767.255 363.924 766.858 364.538 766.999C365.152 767.14 365.551 767.736 365.41 768.348L362.683 781.919L373.441 777.303C375.476 776.44 377.902 777.195 379.072 778.832L383.086 784.941C384.249 786.626 383.85 788.953 381.956 790.178ZM337.492 798.052L331.248 788.587L325.511 792.303C324.976 792.612 324.412 794.086 324.522 794.98L326.334 805.336L337.492 798.052ZM360.23 791.731L356.072 785.601L347.198 779.978C346.307 779.406 344.824 779.524 344.336 779.84L335.002 786.035L348.798 806.671L359.806 799.413C359.154 796.928 359.207 794.305 360.23 791.731Z" fill="#E0E0E0"/>
<path d="M436.54 799.124L430.951 806.077C429.442 807.993 426.556 808.338 424.634 806.831L423.934 806.287L421.156 809.815C420.433 810.729 419.093 810.869 418.032 810.124L416.334 808.748C415.417 808.026 415.277 806.689 416.022 805.632L418.8 802.105L397.091 784.71C395.169 783.203 394.821 780.325 396.33 778.409L401.919 771.456C403.056 770.068 405.055 769.443 406.773 770.043L418.106 761.275C420.043 759.764 423.212 759.802 425.135 761.309L441.491 774.342C443.414 775.849 444.061 779.016 443.041 781.249L437.047 794.134C437.931 795.728 437.868 797.765 436.54 799.124ZM409.265 781.72C410.402 780.332 410.144 778.15 408.752 777.014C407.36 775.879 405.172 776.135 404.035 777.522C402.898 778.91 403.156 781.092 404.548 782.228C405.988 783.37 408.176 783.115 409.265 781.72ZM433.558 791.027L438.906 779.507C439.067 779.092 438.847 778.28 438.548 777.991L422.199 764.911C421.901 764.622 421.019 764.636 420.73 764.934L410.627 772.669L433.558 791.027ZM430.438 798.449C431.575 797.061 431.317 794.879 429.925 793.744C428.533 792.609 426.345 792.864 425.208 794.252C424.071 795.639 424.329 797.822 425.721 798.957C427.099 800.187 429.301 799.837 430.438 798.449Z" fill="#E0E0E0"/>
<path d="M376.217 769.244L390.722 757.251C391.78 756.387 391.888 754.698 391.014 753.69L387.484 749.554C386.617 748.498 384.924 748.389 383.914 749.26L369.423 761.158C368.365 762.022 368.257 763.71 369.131 764.719L372.661 768.855C373.513 770.006 375.063 770.093 376.217 769.244Z" fill="#E0E0E0"/>
<path fill-rule="evenodd" clip-rule="evenodd" d="M207.755 140.277C206.396 139.714 204.832 140.025 203.792 141.065L171.065 173.792C170.025 174.832 169.714 176.396 170.277 177.755C170.84 179.114 172.166 180 173.637 180H190.312L228.182 217.87C229.546 219.234 231.396 220 233.324 220H242.727C246.744 220 250 216.744 250 212.727V203.324C250 201.395 249.234 199.546 247.87 198.182C235.246 185.558 222.623 172.935 210 160.312V143.636C210 142.166 209.114 140.84 207.755 140.277ZM215.455 176.052L219.403 180L210 189.403L206.052 185.454L215.455 176.052ZM200.909 180.312L210.312 170.909L206.364 166.961L196.961 176.364L200.909 180.312ZM215.143 194.545L224.546 185.142L228.494 189.091L219.091 198.494L215.143 194.545ZM224.234 203.636L233.636 194.233L237.585 198.182L228.182 207.585L224.234 203.636ZM233.324 212.727L242.727 203.324V212.727H233.324ZM202.727 152.415V160.312L190.312 172.727H182.415L202.727 152.415Z" fill="#E0E0E0"/>
<path fill-rule="evenodd" clip-rule="evenodd" d="M651.755 324.277C650.396 323.714 648.832 324.025 647.792 325.065L615.065 357.792C614.025 358.832 613.714 360.396 614.277 361.755C614.84 363.114 616.166 364 617.637 364H634.312L672.182 401.87C673.546 403.234 675.396 404 677.324 404H686.727C690.744 404 694 400.744 694 396.727V387.324C694 385.395 693.234 383.546 691.87 382.182C679.246 369.558 666.623 356.935 654 344.312V327.636C654 326.166 653.114 324.84 651.755 324.277ZM659.455 360.052L663.403 364L654 373.403L650.052 369.454L659.455 360.052ZM644.909 364.312L654.312 354.909L650.364 350.961L640.961 360.364L644.909 364.312ZM659.143 378.545L668.546 369.142L672.494 373.091L663.091 382.494L659.143 378.545ZM668.234 387.636L677.636 378.233L681.585 382.182L672.182 391.585L668.234 387.636ZM677.324 396.727L686.727 387.324V396.727H677.324ZM646.727 336.415V344.312L634.312 356.727H626.415L646.727 336.415Z" fill="#E0E0E0"/>
<path fill-rule="evenodd" clip-rule="evenodd" d="M272.755 614.277C271.396 613.714 269.832 614.025 268.792 615.065L236.065 647.792C235.025 648.832 234.714 650.396 235.277 651.755C235.84 653.114 237.166 654 238.637 654H255.312L293.182 691.87C294.546 693.234 296.396 694 298.324 694H307.727C311.744 694 315 690.744 315 686.727V677.324C315 675.395 314.234 673.546 312.87 672.182C300.246 659.558 287.623 646.935 275 634.312V617.636C275 616.166 274.114 614.84 272.755 614.277ZM280.455 650.052L284.403 654L275 663.403L271.052 659.454L280.455 650.052ZM265.909 654.312L275.312 644.909L271.364 640.961L261.961 650.364L265.909 654.312ZM280.143 668.545L289.546 659.142L293.494 663.091L284.091 672.494L280.143 668.545ZM289.234 677.636L298.636 668.233L302.585 672.182L293.182 681.585L289.234 677.636ZM298.324 686.727L307.727 677.324V686.727H298.324ZM267.727 626.415V634.312L255.312 646.727H247.415L267.727 626.415Z" fill="#E0E0E0"/>
<path fill-rule="evenodd" clip-rule="evenodd" d="M640.245 729.277C641.604 728.714 643.168 729.025 644.208 730.065L676.935 762.792C677.975 763.832 678.286 765.396 677.723 766.755C677.16 768.114 675.834 769 674.363 769H657.688L619.818 806.87C618.454 808.234 616.604 809 614.676 809H605.273C601.256 809 598 805.744 598 801.727V792.324C598 790.395 598.766 788.546 600.13 787.182C612.754 774.558 625.377 761.935 638 749.312V732.636C638 731.166 638.886 729.84 640.245 729.277ZM632.545 765.052L628.597 769L638 778.403L641.948 774.454L632.545 765.052ZM647.091 769.312L637.688 759.909L641.636 755.961L651.039 765.364L647.091 769.312ZM632.857 783.545L623.454 774.142L619.506 778.091L628.909 787.494L632.857 783.545ZM623.766 792.636L614.364 783.233L610.415 787.182L619.818 796.585L623.766 792.636ZM614.676 801.727L605.273 792.324V801.727H614.676ZM645.273 741.415V749.312L657.688 761.727H665.585L645.273 741.415Z" fill="#E0E0E0"/>
<path fill-rule="evenodd" clip-rule="evenodd" d="M464.245 124.277C465.604 123.714 467.168 124.025 468.208 125.065L500.935 157.792C501.975 158.832 502.286 160.396 501.723 161.755C501.16 163.114 499.834 164 498.363 164H481.688L443.818 201.87C442.454 203.234 440.604 204 438.676 204H429.273C425.256 204 422 200.744 422 196.727V187.324C422 185.395 422.766 183.546 424.13 182.182C436.754 169.558 449.377 156.935 462 144.312V127.636C462 126.166 462.886 124.84 464.245 124.277ZM456.545 160.052L452.597 164L462 173.403L465.948 169.454L456.545 160.052ZM471.091 164.312L461.688 154.909L465.636 150.961L475.039 160.364L471.091 164.312ZM456.857 178.545L447.454 169.142L443.506 173.091L452.909 182.494L456.857 178.545ZM447.766 187.636L438.364 178.233L434.415 182.182L443.818 191.585L447.766 187.636ZM438.676 196.727L429.273 187.324V196.727H438.676ZM469.273 136.415V144.312L481.688 156.727H489.585L469.273 136.415Z" fill="#E0E0E0"/>
<path d="M134.726 349.485L80.3244 360.139L75.964 337.607C75.6218 335.839 73.9103 334.683 72.1429 335.025L57.2028 337.916C51.9067 338.941 48.4322 344.083 49.4571 349.379L51.6787 360.86L48.7842 365.143C47.3201 367.309 46.7883 369.914 47.2848 372.48L47.3734 372.937L56.9777 371.079C58.7463 370.736 60.4568 371.893 60.7988 373.661C61.1409 375.428 60.0267 377.353 58.2582 377.695L48.6538 379.554L49.2498 382.633C50.2747 387.929 55.4168 391.404 60.7128 390.379L66.0486 389.346C67.4151 396.408 74.271 401.041 81.3327 399.674C88.3942 398.308 93.027 391.452 91.6604 384.39L110.869 380.673C112.236 387.734 119.092 392.367 126.153 391C133.215 389.634 137.848 382.778 136.481 375.716L139.683 375.097C144.979 374.072 148.453 368.93 147.428 363.634L146.189 357.231C145.164 351.935 140.022 348.46 134.726 349.485ZM57.7188 357.745L55.8602 348.141C55.5185 346.375 56.6768 344.661 58.4421 344.319L70.1807 342.048L72.659 354.854L57.7188 357.745ZM80.0936 393.271C76.5628 393.954 73.1349 391.638 72.4516 388.107C71.7683 384.577 74.0846 381.149 77.6154 380.465C81.1461 379.782 84.574 382.098 85.2573 385.629C85.9406 389.16 83.6243 392.588 80.0936 393.271ZM124.914 384.597C121.383 385.281 117.955 382.964 117.272 379.434C116.589 375.903 118.905 372.475 122.436 371.792C125.967 371.108 129.394 373.425 130.078 376.955C130.761 380.486 128.445 383.914 124.914 384.597Z" fill="#E0E0E0"/>
<path d="M128.049 325.349C127.213 325.097 126.506 324.167 126.287 323.038L124.24 312.462C128.363 306.361 127.161 308.17 127.51 307.484C128.613 305.531 129.093 303.213 128.635 300.843C127.61 295.547 122.468 292.073 117.172 293.098C114.802 293.556 112.831 294.866 111.43 296.619C110.805 297.335 114.461 291.993 82.8373 338.794L85.4478 352.283L99.1207 349.638L119.077 320.104L119.884 324.277C120.571 327.825 122.975 330.629 126.163 331.592C127.33 331.944 128.197 332.904 128.427 334.097C128.769 335.862 127.611 337.576 125.846 337.918C124.08 338.26 122.366 337.101 122.024 335.336C121.682 333.568 119.971 332.412 118.203 332.754C116.436 333.096 115.279 334.807 115.621 336.575C116.646 341.871 121.788 345.346 127.084 344.321C132.38 343.296 135.855 338.154 134.83 332.858C134.137 329.278 131.537 326.401 128.049 325.349ZM119.65 305.904C117.885 306.245 116.17 305.087 115.829 303.322C115.487 301.556 116.645 299.842 118.411 299.501C120.176 299.159 121.89 300.317 122.232 302.083C122.573 303.848 121.415 305.562 119.65 305.904Z" fill="#E0E0E0"/>
<path d="M147.726 781.485L93.3244 792.139L88.964 769.607C88.6218 767.839 86.9103 766.683 85.1429 767.025L70.2028 769.916C64.9067 770.941 61.4322 776.083 62.4571 781.379L64.6787 792.86L61.7842 797.143C60.3201 799.309 59.7883 801.914 60.2848 804.48L60.3734 804.937L69.9777 803.079C71.7463 802.736 73.4568 803.893 73.7988 805.661C74.1409 807.428 73.0267 809.353 71.2582 809.695L61.6538 811.554L62.2498 814.633C63.2747 819.929 68.4168 823.404 73.7128 822.379L79.0486 821.346C80.4151 828.408 87.271 833.041 94.3327 831.674C101.394 830.308 106.027 823.452 104.66 816.39L123.869 812.673C125.236 819.734 132.092 824.367 139.153 823C146.215 821.634 150.848 814.778 149.481 807.716L152.683 807.097C157.979 806.072 161.453 800.93 160.428 795.634L159.189 789.231C158.164 783.935 153.022 780.46 147.726 781.485ZM70.7188 789.745L68.8602 780.141C68.5185 778.375 69.6768 776.661 71.4421 776.319L83.1807 774.048L85.659 786.854L70.7188 789.745ZM93.0936 825.271C89.5628 825.954 86.1349 823.638 85.4516 820.107C84.7683 816.577 87.0846 813.149 90.6154 812.465C94.1461 811.782 97.574 814.098 98.2573 817.629C98.9406 821.16 96.6243 824.588 93.0936 825.271ZM137.914 816.597C134.383 817.281 130.955 814.964 130.272 811.434C129.589 807.903 131.905 804.475 135.436 803.792C138.967 803.108 142.394 805.425 143.078 808.955C143.761 812.486 141.445 815.914 137.914 816.597Z" fill="#E0E0E0"/>
<path d="M141.049 757.349C140.213 757.097 139.506 756.167 139.287 755.038L137.24 744.462C141.363 738.361 140.161 740.17 140.51 739.484C141.613 737.531 142.093 735.213 141.635 732.843C140.61 727.547 135.468 724.073 130.172 725.098C127.802 725.556 125.831 726.866 124.43 728.619C123.805 729.335 127.461 723.993 95.8373 770.794L98.4478 784.283L112.121 781.638L132.077 752.104L132.884 756.277C133.571 759.825 135.975 762.629 139.163 763.592C140.33 763.944 141.197 764.904 141.427 766.097C141.769 767.862 140.611 769.576 138.846 769.918C137.08 770.26 135.366 769.101 135.024 767.336C134.682 765.568 132.971 764.412 131.203 764.754C129.436 765.096 128.279 766.807 128.621 768.575C129.646 773.871 134.788 777.346 140.084 776.321C145.38 775.296 148.855 770.154 147.83 764.858C147.137 761.278 144.537 758.401 141.049 757.349ZM132.65 737.904C130.885 738.245 129.17 737.087 128.829 735.322C128.487 733.556 129.645 731.842 131.411 731.501C133.176 731.159 134.89 732.317 135.232 734.083C135.573 735.848 134.415 737.562 132.65 737.904Z" fill="#E0E0E0"/>
<path d="M282.305 87.3949L336.301 99.941L341.445 77.575C341.849 75.8194 343.6 74.7244 345.354 75.1279L360.184 78.5388C365.441 79.748 368.734 85.0082 367.525 90.2652L364.904 101.661L367.648 106.043C369.035 108.259 369.476 110.88 368.89 113.427L368.786 113.881L359.252 111.689C357.496 111.285 355.747 112.381 355.343 114.136C354.94 115.89 355.986 117.853 357.741 118.256L367.275 120.449L366.572 123.506C365.363 128.763 360.103 132.056 354.846 130.847L349.549 129.629C347.937 136.638 340.924 141.029 333.914 139.417C326.904 137.805 322.514 130.791 324.126 123.781L305.058 119.396C303.446 126.406 296.433 130.796 289.423 129.184C282.414 127.572 278.023 120.559 279.635 113.549L276.457 112.818C271.2 111.609 267.907 106.349 269.116 101.091L270.578 94.7357C271.788 89.4788 277.048 86.1858 282.305 87.3949ZM358.977 98.3373L361.169 88.8036C361.572 87.0513 360.475 85.2977 358.722 84.8947L347.07 82.2147L344.146 94.9264L358.977 98.3373ZM335.376 133.061C338.88 133.867 342.387 131.672 343.193 128.167C343.999 124.662 341.804 121.156 338.299 120.349C334.794 119.543 331.288 121.739 330.482 125.243C329.676 128.748 331.871 132.255 335.376 133.061ZM290.885 122.828C294.39 123.634 297.897 121.439 298.703 117.934C299.509 114.429 297.314 110.923 293.809 110.117C290.304 109.311 286.797 111.506 285.991 115.011C285.185 118.515 287.38 122.022 290.885 122.828Z" fill="#E0E0E0"/>
<path d="M289.82 63.5066C290.664 63.2837 291.404 62.3796 291.662 61.2583L294.076 50.7607C290.169 44.5193 291.307 46.3688 290.982 45.6708C289.948 43.6805 289.549 41.3479 290.09 38.9954C291.299 33.7384 296.559 30.4454 301.816 31.6545C304.169 32.1955 306.093 33.5736 307.431 35.3737C308.031 36.1111 304.564 30.6452 334.535 78.5212L331.455 91.9114L317.883 88.7898L298.97 58.5782L298.017 62.7202C297.207 66.2425 294.706 68.9601 291.487 69.8119C290.309 70.1225 289.409 71.0515 289.136 72.236C288.733 73.9883 289.831 75.7418 291.583 76.1449C293.336 76.5479 295.089 75.4501 295.492 73.6978C295.896 71.9423 297.647 70.8473 299.401 71.2508C301.155 71.6543 302.252 73.4041 301.848 75.1597C300.639 80.4167 295.379 83.7097 290.122 82.5006C284.865 81.2915 281.572 76.0313 282.781 70.7742C283.598 67.2211 286.297 64.436 289.82 63.5066ZM298.893 44.3661C300.645 44.7691 302.398 43.6714 302.801 41.9191C303.204 40.1668 302.107 38.4132 300.354 38.0102C298.602 37.6072 296.849 38.7049 296.446 40.4572C296.043 42.2096 297.14 43.9631 298.893 44.3661Z" fill="#E0E0E0"/>
<path d="M269.305 498.395L323.301 510.941L328.445 488.575C328.849 486.819 330.6 485.724 332.354 486.128L347.184 489.539C352.441 490.748 355.734 496.008 354.525 501.265L351.904 512.661L354.648 517.043C356.035 519.259 356.476 521.88 355.89 524.427L355.786 524.881L346.252 522.689C344.496 522.285 342.747 523.381 342.343 525.136C341.94 526.89 342.986 528.853 344.741 529.256L354.275 531.449L353.572 534.506C352.363 539.763 347.103 543.056 341.846 541.847L336.549 540.629C334.937 547.638 327.924 552.029 320.914 550.417C313.904 548.805 309.514 541.791 311.126 534.781L292.058 530.396C290.446 537.406 283.433 541.796 276.423 540.184C269.414 538.572 265.023 531.559 266.635 524.549L263.457 523.818C258.2 522.609 254.907 517.349 256.116 512.091L257.578 505.736C258.788 500.479 264.048 497.186 269.305 498.395ZM345.977 509.337L348.169 499.804C348.572 498.051 347.475 496.298 345.722 495.895L334.07 493.215L331.146 505.926L345.977 509.337ZM322.376 544.061C325.88 544.867 329.387 542.672 330.193 539.167C330.999 535.662 328.804 532.156 325.299 531.349C321.794 530.543 318.288 532.739 317.482 536.243C316.676 539.748 318.871 543.255 322.376 544.061ZM277.885 533.828C281.39 534.634 284.897 532.439 285.703 528.934C286.509 525.429 284.314 521.923 280.809 521.117C277.304 520.311 273.797 522.506 272.991 526.011C272.185 529.515 274.38 533.022 277.885 533.828Z" fill="#E0E0E0"/>
<path d="M276.82 474.507C277.664 474.284 278.404 473.38 278.662 472.258L281.076 461.761C277.169 455.519 278.307 457.369 277.982 456.671C276.948 454.68 276.549 452.348 277.09 449.995C278.299 444.738 283.559 441.445 288.816 442.654C291.169 443.196 293.093 444.574 294.431 446.374C295.031 447.111 291.564 441.645 321.535 489.521L318.455 502.911L304.883 499.79L285.97 469.578L285.017 473.72C284.207 477.242 281.706 479.96 278.487 480.812C277.309 481.123 276.409 482.051 276.136 483.236C275.733 484.988 276.831 486.742 278.583 487.145C280.336 487.548 282.089 486.45 282.492 484.698C282.896 482.942 284.647 481.847 286.401 482.251C288.155 482.654 289.252 484.404 288.848 486.16C287.639 491.417 282.379 494.71 277.122 493.501C271.865 492.292 268.572 487.031 269.781 481.774C270.598 478.221 273.297 475.436 276.82 474.507ZM285.893 455.366C287.645 455.769 289.398 454.671 289.801 452.919C290.204 451.167 289.107 449.413 287.354 449.01C285.602 448.607 283.849 449.705 283.446 451.457C283.043 453.21 284.14 454.963 285.893 455.366Z" fill="#E0E0E0"/>
<path d="M732.078 545.395L678.082 557.941L672.937 535.575C672.534 533.819 670.783 532.724 669.029 533.128L654.198 536.539C648.941 537.748 645.648 543.008 646.858 548.265L649.478 559.661L646.735 564.043C645.348 566.259 644.907 568.88 645.493 571.427L645.597 571.881L655.131 569.689C656.886 569.285 658.636 570.381 659.04 572.136C659.443 573.89 658.397 575.853 656.641 576.256L647.108 578.449L647.811 581.506C649.02 586.763 654.28 590.056 659.537 588.847L664.834 587.629C666.446 594.638 673.459 599.029 680.469 597.417C687.479 595.805 691.869 588.791 690.257 581.781L709.324 577.396C710.937 584.406 717.95 588.796 724.96 587.184C731.969 585.572 736.36 578.559 734.748 571.549L737.926 570.818C743.183 569.609 746.476 564.349 745.266 559.091L743.805 552.736C742.595 547.479 737.335 544.186 732.078 545.395ZM655.406 556.337L653.213 546.804C652.81 545.051 653.908 543.298 655.66 542.895L667.313 540.215L670.236 552.926L655.406 556.337ZM679.007 591.061C675.502 591.867 671.996 589.672 671.19 586.167C670.384 582.662 672.579 579.156 676.084 578.349C679.588 577.543 683.095 579.739 683.901 583.243C684.707 586.748 682.512 590.255 679.007 591.061ZM723.498 580.828C719.993 581.634 716.486 579.439 715.68 575.934C714.874 572.429 717.069 568.923 720.574 568.117C724.079 567.311 727.585 569.506 728.391 573.011C729.198 576.515 727.002 580.022 723.498 580.828Z" fill="#E0E0E0"/>
<path d="M724.562 521.507C723.718 521.284 722.979 520.38 722.721 519.258L720.306 508.761C724.214 502.519 723.075 504.369 723.4 503.671C724.435 501.68 724.834 499.348 724.293 496.995C723.083 491.738 717.823 488.445 712.566 489.654C710.214 490.196 708.29 491.574 706.951 493.374C706.351 494.111 709.819 488.645 679.848 536.521L682.927 549.911L696.5 546.79L715.413 516.578L716.365 520.72C717.176 524.242 719.676 526.96 722.896 527.812C724.074 528.123 724.974 529.051 725.246 530.236C725.649 531.988 724.551 533.742 722.799 534.145C721.047 534.548 719.293 533.45 718.89 531.698C718.486 529.942 716.736 528.847 714.981 529.251C713.227 529.654 712.131 531.404 712.534 533.16C713.743 538.417 719.004 541.71 724.261 540.501C729.518 539.292 732.811 534.031 731.602 528.774C730.784 525.221 728.085 522.436 724.562 521.507ZM715.49 502.366C713.738 502.769 711.984 501.671 711.581 499.919C711.178 498.167 712.276 496.413 714.028 496.01C715.78 495.607 717.534 496.705 717.937 498.457C718.34 500.21 717.242 501.963 715.49 502.366Z" fill="#E0E0E0"/>
<path d="M457.305 339.395L511.301 351.941L516.445 329.575C516.849 327.819 518.6 326.724 520.354 327.128L535.184 330.539C540.441 331.748 543.734 337.008 542.525 342.265L539.904 353.661L542.648 358.043C544.035 360.259 544.476 362.88 543.89 365.427L543.786 365.881L534.252 363.689C532.496 363.285 530.747 364.381 530.343 366.136C529.94 367.89 530.986 369.853 532.741 370.256L542.275 372.449L541.572 375.506C540.363 380.763 535.103 384.056 529.846 382.847L524.549 381.629C522.937 388.638 515.924 393.029 508.914 391.417C501.904 389.805 497.514 382.791 499.126 375.781L480.058 371.396C478.446 378.406 471.433 382.796 464.423 381.184C457.414 379.572 453.023 372.559 454.635 365.549L451.457 364.818C446.2 363.609 442.907 358.349 444.116 353.091L445.578 346.736C446.788 341.479 452.048 338.186 457.305 339.395ZM533.977 350.337L536.169 340.804C536.572 339.051 535.475 337.298 533.722 336.895L522.07 334.215L519.146 346.926L533.977 350.337ZM510.376 385.061C513.88 385.867 517.387 383.672 518.193 380.167C518.999 376.662 516.804 373.156 513.299 372.349C509.794 371.543 506.288 373.739 505.482 377.243C504.676 380.748 506.871 384.255 510.376 385.061ZM465.885 374.828C469.39 375.634 472.897 373.439 473.703 369.934C474.509 366.429 472.314 362.923 468.809 362.117C465.304 361.311 461.797 363.506 460.991 367.011C460.185 370.515 462.38 374.022 465.885 374.828Z" fill="#E0E0E0"/>
<path d="M464.82 315.507C465.665 315.284 466.404 314.38 466.662 313.258L469.076 302.761C465.169 296.519 466.308 298.369 465.983 297.671C464.948 295.68 464.549 293.348 465.09 290.995C466.299 285.738 471.56 282.445 476.817 283.654C479.169 284.196 481.093 285.574 482.431 287.374C483.032 288.111 479.564 282.645 509.535 330.521L506.455 343.911L492.883 340.79L473.97 310.578L473.017 314.72C472.207 318.242 469.707 320.96 466.487 321.812C465.309 322.123 464.409 323.051 464.137 324.236C463.734 325.988 464.831 327.742 466.584 328.145C468.336 328.548 470.09 327.45 470.493 325.698C470.896 323.942 472.647 322.847 474.401 323.251C476.156 323.654 477.252 325.404 476.848 327.16C475.639 332.417 470.379 335.71 465.122 334.501C459.865 333.292 456.572 328.031 457.781 322.774C458.598 319.221 461.298 316.436 464.82 315.507ZM473.893 296.366C475.645 296.769 477.399 295.671 477.802 293.919C478.205 292.167 477.107 290.413 475.355 290.01C473.603 289.607 471.849 290.705 471.446 292.457C471.043 294.21 472.141 295.963 473.893 296.366Z" fill="#E0E0E0"/>
</g>
<defs>
<clipPath id="clip0_1505_807">
<rect width="768" height="840" fill="white"/>
</clipPath>
</defs>
</svg>
