<svg width="1440" height="849" viewBox="0 0 1440 849" fill="none" xmlns="http://www.w3.org/2000/svg">
<g clip-path="url(#clip0_1503_131)">
<path d="M95.0422 86.207L73.6679 92.1684L58.9354 79.8844C55.7957 77.1748 50.4823 76.5124 47.0407 78.1984L16.1264 93.5533C12.6848 95.2995 10.0885 99.9963 10.3904 104.031L11.4169 123.179L5.92233 128.719C3.26564 131.429 2.42033 135.885 3.86943 138.655L9.06206 148.891C10.5112 151.661 14.0132 152.926 17.2736 151.239L21.3191 149.252C17.8774 142.388 20.7153 134.018 27.5985 130.586C34.4818 127.153 42.8745 129.984 46.3161 136.848L78.6191 120.771C75.1774 113.906 78.0153 105.536 84.8985 102.104C91.7817 98.6716 100.174 101.502 103.616 108.366L106.152 107.162C109.111 105.657 110.379 102.345 108.929 99.5748L103.797 89.4587C101.986 86.8092 98.2423 85.3038 95.0422 86.207ZM36.2328 110.835L17.9378 119.867L17.1529 103.79C17.1529 102.285 18.4209 100.297 19.1454 99.8157L28.5042 95.1791L36.2328 110.835ZM42.3915 107.644L34.5421 92.1081L50.0596 84.521C50.8446 84.2199 53.3805 84.3404 54.4673 85.2436L66.7847 95.6608L42.3915 107.644Z" fill="#E0E0E0"/>
<path d="M74.0909 52.0048L75.4796 53.7511C79.5854 49.1145 86.8309 48.693 91.4198 52.908C96.069 57.0027 96.4916 64.2285 92.2651 68.8049L114.002 88.4952C118.107 83.8587 125.353 83.4372 129.942 87.6522C134.591 91.7469 135.014 98.9727 130.787 103.549L133.565 106.018C135.799 107.885 138.818 107.764 140.569 105.958L146.848 99.0329C148.659 97.0458 149.022 93.4931 147.452 90.7834L144.493 85.1232L149.565 70.3102C150.652 67.2393 149.625 62.964 147.331 60.9167L126.319 42.1295C124.025 39.9618 119.738 39.4801 116.658 40.7446L102.409 47.1274L101.443 27.9187C101.382 27.1359 100.718 26.5338 99.9333 26.594C99.1483 26.6542 98.5445 27.3166 98.6049 28.0994L99.4502 45.3811L87.0121 37.6736C84.6573 36.2284 81.5176 36.7102 79.7666 38.5166L73.6682 45.3209C71.9172 47.1876 71.9776 50.1381 74.0909 52.0048ZM127.587 70.0092L137.067 59.4715L143.467 65.1317C144.071 65.6135 144.493 67.5403 144.191 68.6242L140.025 81.0888L127.587 70.0092ZM100.658 57.9661L106.937 51.1618L118.953 45.8629C120.16 45.3209 121.972 45.7424 122.515 46.2242L132.9 55.6177L112.009 78.5597L99.7521 67.5403C101.02 64.5898 101.443 61.3382 100.658 57.9661Z" fill="#E0E0E0"/>
<path d="M4.95645 52.908L10.5717 62.5424C12.0812 65.1919 15.5832 66.1554 18.2399 64.65L19.206 64.108L21.9834 68.9855C22.708 70.25 24.3382 70.6715 25.7873 69.9489L28.1421 68.564C29.4101 67.8414 29.8327 66.2156 29.1082 64.7704L26.3307 59.893L56.3997 42.4306C59.0564 40.9252 60.0224 37.4327 58.5129 34.7832L52.8977 25.1488C51.7505 23.2219 49.3957 22.0778 47.1616 22.4993L34.7839 9.55303C32.6706 7.32507 28.7459 6.78313 26.0892 8.28851L3.44697 21.3552C0.790279 22.8606 -0.598446 26.6542 0.246865 29.6047L5.25835 46.6456C3.86963 48.4521 3.56773 50.9811 4.95645 52.908ZM41.9086 36.4692C40.7614 34.5424 41.486 31.8929 43.4181 30.7488C45.3502 29.6047 48.0069 30.3273 49.1541 32.2542C50.3013 34.1811 49.5768 36.8305 47.6447 37.9746C45.6521 39.1187 42.9954 38.3961 41.9086 36.4692ZM10.1491 43.4542L5.68101 28.2198C5.56025 27.6778 5.9829 26.7144 6.40556 26.4133L29.0478 13.2864C29.4705 12.9853 30.5573 13.1659 30.8592 13.5875L41.9086 25.0283L10.1491 43.4542ZM12.6246 53.2091C11.4774 51.2822 12.202 48.6327 14.1341 47.4886C16.0663 46.3445 18.7229 47.0671 19.8702 48.994C21.0174 50.9209 20.2928 53.5704 18.3607 54.7145C16.4285 55.979 13.7718 55.136 12.6246 53.2091Z" fill="#E0E0E0"/>
<path d="M85.0796 27.1962L69.381 9.67355C68.2337 8.40903 68.4149 6.30149 69.6829 5.21762L74.8151 0.761693C76.0831 -0.382397 78.1963 -0.201751 79.2832 1.06277L94.9818 18.465C96.129 19.7295 95.9479 21.837 94.6799 22.9209L89.5477 27.3768C88.2797 28.6413 86.3476 28.4607 85.0796 27.1962Z" fill="#E0E0E0"/>
<path d="M83.4492 132.573V144.495C83.4492 148.47 92.0835 151.661 102.65 151.661C113.216 151.661 121.85 148.47 121.85 144.495V132.513C121.85 128.538 113.216 125.347 102.65 125.347C91.9023 125.347 83.4492 128.538 83.4492 132.573ZM91.7816 132.573C91.7816 130.345 96.7327 128.599 102.65 128.599C108.748 128.599 113.518 130.345 113.518 132.573C113.518 134.801 108.567 136.547 102.65 136.547C96.5515 136.547 91.7816 134.801 91.7816 132.573Z" fill="#E0E0E0"/>
<path d="M637.361 804.471L623.112 808.445L613.29 800.256C611.197 798.45 607.655 798.008 605.36 799.132L584.751 809.369C582.457 810.533 580.726 813.664 580.927 816.354L581.611 829.119L577.948 832.813C576.177 834.619 575.614 837.59 576.58 839.436L580.041 846.261C581.007 848.107 583.342 848.95 585.516 847.826L588.213 846.502C585.918 841.925 587.81 836.345 592.399 834.057C596.988 831.769 602.583 833.656 604.877 838.232L626.413 827.514C624.118 822.937 626.01 817.357 630.599 815.069C635.188 812.781 640.783 814.668 643.077 819.244L644.768 818.441C646.74 817.438 647.586 815.23 646.62 813.383L643.198 806.639C641.991 804.873 639.495 803.869 637.361 804.471ZM598.155 820.89L585.959 826.911L585.435 816.193C585.435 815.19 586.281 813.865 586.764 813.544L593.003 810.453L598.155 820.89ZM602.261 818.762L597.028 808.405L607.373 803.347C607.896 803.147 609.587 803.227 610.312 803.829L618.523 810.774L602.261 818.762Z" fill="#E0E0E0"/>
<path d="M623.394 781.67L624.32 782.834C627.057 779.743 631.887 779.462 634.947 782.272C638.046 785.002 638.328 789.819 635.51 792.87L650.001 805.997C652.738 802.906 657.569 802.625 660.628 805.435C663.727 808.165 664.009 812.982 661.191 816.033L663.043 817.679C664.532 818.923 666.545 818.843 667.712 817.638L671.899 813.022C673.106 811.697 673.348 809.329 672.301 807.522L670.329 803.749L673.71 793.873C674.435 791.826 673.75 788.976 672.221 787.611L658.213 775.086C656.683 773.641 653.825 773.32 651.772 774.163L642.273 778.418L641.629 765.612C641.588 765.091 641.145 764.689 640.622 764.729C640.099 764.769 639.696 765.211 639.737 765.733L640.3 777.254L632.008 772.116C630.438 771.152 628.345 771.473 627.178 772.678L623.112 777.214C621.945 778.458 621.985 780.425 623.394 781.67ZM659.058 793.673L665.378 786.648L669.645 790.421C670.047 790.742 670.329 792.027 670.128 792.749L667.35 801.059L659.058 793.673ZM641.105 785.644L645.292 781.108L653.302 777.575C654.107 777.214 655.314 777.495 655.677 777.816L662.6 784.078L648.673 799.373L640.501 792.027C641.347 790.06 641.628 787.892 641.105 785.644Z" fill="#E0E0E0"/>
<path d="M577.304 782.272L581.048 788.695C582.054 790.461 584.389 791.104 586.16 790.1L586.804 789.739L588.656 792.99C589.139 793.833 590.225 794.114 591.192 793.633L592.761 792.709C593.607 792.228 593.888 791.144 593.405 790.18L591.554 786.929L611.6 775.287C613.371 774.284 614.015 771.955 613.009 770.189L609.265 763.766C608.5 762.481 606.93 761.719 605.441 762L597.189 753.369C595.78 751.883 593.164 751.522 591.393 752.526L576.298 761.237C574.527 762.24 573.601 764.77 574.165 766.737L577.506 778.097C576.58 779.301 576.378 780.987 577.304 782.272ZM601.939 771.313C601.174 770.028 601.657 768.262 602.945 767.499C604.233 766.737 606.005 767.218 606.769 768.503C607.534 769.787 607.051 771.554 605.763 772.316C604.435 773.079 602.664 772.597 601.939 771.313ZM580.766 775.97L577.787 765.813C577.707 765.452 577.989 764.81 578.27 764.609L593.365 755.858C593.647 755.657 594.372 755.777 594.573 756.058L601.939 763.686L580.766 775.97ZM582.416 782.473C581.652 781.188 582.135 779.422 583.423 778.659C584.711 777.896 586.482 778.378 587.247 779.663C588.012 780.947 587.529 782.714 586.24 783.476C584.952 784.319 583.181 783.757 582.416 782.473Z" fill="#E0E0E0"/>
<path d="M630.72 765.131L620.254 753.449C619.489 752.606 619.61 751.201 620.455 750.478L623.877 747.508C624.722 746.745 626.131 746.865 626.855 747.709L637.321 759.31C638.086 760.153 637.965 761.558 637.12 762.281L633.698 765.251C632.853 766.094 631.565 765.974 630.72 765.131Z" fill="#E0E0E0"/>
<path d="M629.633 835.382V843.33C629.633 845.98 635.389 848.107 642.433 848.107C649.477 848.107 655.234 845.98 655.234 843.33V835.342C655.234 832.692 649.477 830.565 642.433 830.565C635.268 830.565 629.633 832.692 629.633 835.382ZM635.188 835.382C635.188 833.897 638.488 832.732 642.433 832.732C646.499 832.732 649.679 833.897 649.679 835.382C649.679 836.867 646.378 838.031 642.433 838.031C638.368 838.031 635.188 836.867 635.188 835.382Z" fill="#E0E0E0"/>
<path d="M636.042 136.207L614.668 142.168L599.935 129.884C596.796 127.175 591.482 126.512 588.041 128.198L557.126 143.553C553.685 145.3 551.089 149.996 551.39 154.031L552.417 173.179L546.922 178.719C544.266 181.429 543.42 185.885 544.869 188.655L550.062 198.891C551.511 201.661 555.013 202.926 558.274 201.239L562.319 199.252C558.877 192.388 561.715 184.018 568.599 180.586C575.482 177.153 583.874 179.984 587.316 186.848L619.619 170.771C616.177 163.906 619.015 155.536 625.899 152.104C632.782 148.672 641.174 151.502 644.616 158.366L647.152 157.162C650.111 155.657 651.379 152.345 649.929 149.575L644.797 139.459C642.986 136.809 639.242 135.304 636.042 136.207ZM577.233 160.835L558.938 169.867L558.153 153.79C558.153 152.285 559.421 150.297 560.145 149.816L569.504 145.179L577.233 160.835ZM583.391 157.644L575.542 142.108L591.06 134.521C591.845 134.22 594.38 134.34 595.467 135.244L607.785 145.661L583.391 157.644Z" fill="#E0E0E0"/>
<path d="M615.091 102.005L616.48 103.751C620.585 99.1145 627.831 98.693 632.42 102.908C637.069 107.003 637.492 114.229 633.265 118.805L655.002 138.495C659.107 133.859 666.353 133.437 670.942 137.652C675.591 141.747 676.014 148.973 671.787 153.549L674.565 156.018C676.799 157.885 679.818 157.764 681.569 155.958L687.848 149.033C689.659 147.046 690.022 143.493 688.452 140.783L685.493 135.123L690.565 120.31C691.652 117.239 690.625 112.964 688.331 110.917L667.319 92.1295C665.025 89.9618 660.738 89.4801 657.658 90.7446L643.409 97.1274L642.443 77.9187C642.382 77.1359 641.718 76.5338 640.933 76.594C640.148 76.6542 639.545 77.3166 639.605 78.0994L640.45 95.3811L628.012 87.6736C625.657 86.2284 622.518 86.7102 620.767 88.5166L614.668 95.3209C612.917 97.1876 612.978 100.138 615.091 102.005ZM668.587 120.009L678.067 109.472L684.467 115.132C685.071 115.613 685.493 117.54 685.191 118.624L681.025 131.089L668.587 120.009ZM641.658 107.966L647.937 101.162L659.953 95.8629C661.16 95.3209 662.972 95.7424 663.515 96.2242L673.9 105.618L653.009 128.56L640.752 117.54C642.02 114.59 642.443 111.338 641.658 107.966Z" fill="#E0E0E0"/>
<path d="M545.956 102.908L551.572 112.542C553.081 115.192 556.583 116.155 559.24 114.65L560.206 114.108L562.983 118.985C563.708 120.25 565.338 120.671 566.787 119.949L569.142 118.564C570.41 117.841 570.833 116.216 570.108 114.77L567.331 109.893L597.4 92.4306C600.056 90.9252 601.022 87.4327 599.513 84.7832L593.898 75.1488C592.75 73.2219 590.396 72.0778 588.162 72.4993L575.784 59.553C573.671 57.3251 569.746 56.7831 567.089 58.2885L544.447 71.3552C541.79 72.8606 540.402 76.6542 541.247 79.6047L546.258 96.6456C544.87 98.4521 544.568 100.981 545.956 102.908ZM582.909 86.4692C581.761 84.5424 582.486 81.8929 584.418 80.7488C586.35 79.6047 589.007 80.3273 590.154 82.2542C591.301 84.1811 590.577 86.8305 588.645 87.9746C586.652 89.1187 583.995 88.3961 582.909 86.4692ZM551.149 93.4542L546.681 78.2198C546.56 77.6778 546.983 76.7144 547.406 76.4133L570.048 63.2864C570.47 62.9853 571.557 63.1659 571.859 63.5875L582.909 75.0283L551.149 93.4542ZM553.625 103.209C552.477 101.282 553.202 98.6327 555.134 97.4886C557.066 96.3445 559.723 97.0671 560.87 98.994C562.017 100.921 561.293 103.57 559.361 104.714C557.429 105.979 554.772 105.136 553.625 103.209Z" fill="#E0E0E0"/>
<path d="M626.08 77.1962L610.381 59.6735C609.234 58.409 609.415 56.3015 610.683 55.2176L615.815 50.7617C617.083 49.6176 619.196 49.7982 620.283 51.0628L635.982 68.465C637.129 69.7295 636.948 71.837 635.68 72.9209L630.548 77.3768C629.28 78.6413 627.348 78.4607 626.08 77.1962Z" fill="#E0E0E0"/>
<path d="M624.449 182.573V194.495C624.449 198.47 633.083 201.661 643.65 201.661C654.216 201.661 662.85 198.47 662.85 194.495V182.513C662.85 178.538 654.216 175.347 643.65 175.347C632.902 175.347 624.449 178.538 624.449 182.573ZM632.782 182.573C632.782 180.345 637.733 178.599 643.65 178.599C649.748 178.599 654.518 180.345 654.518 182.573C654.518 184.801 649.567 186.547 643.65 186.547C637.552 186.547 632.782 184.801 632.782 182.573Z" fill="#E0E0E0"/>
<path d="M1206.04 114.207L1184.67 120.168L1169.94 107.884C1166.8 105.175 1161.48 104.512 1158.04 106.198L1127.13 121.553C1123.68 123.3 1121.09 127.996 1121.39 132.031L1122.42 151.179L1116.92 156.719C1114.27 159.429 1113.42 163.885 1114.87 166.655L1120.06 176.891C1121.51 179.661 1125.01 180.926 1128.27 179.239L1132.32 177.252C1128.88 170.388 1131.72 162.018 1138.6 158.586C1145.48 155.153 1153.87 157.984 1157.32 164.848L1189.62 148.771C1186.18 141.906 1189.02 133.536 1195.9 130.104C1202.78 126.672 1211.17 129.502 1214.62 136.366L1217.15 135.162C1220.11 133.657 1221.38 130.345 1219.93 127.575L1214.8 117.459C1212.99 114.809 1209.24 113.304 1206.04 114.207ZM1147.23 138.835L1128.94 147.867L1128.15 131.79C1128.15 130.285 1129.42 128.297 1130.15 127.816L1139.5 123.179L1147.23 138.835ZM1153.39 135.644L1145.54 120.108L1161.06 112.521C1161.84 112.22 1164.38 112.34 1165.47 113.244L1177.78 123.661L1153.39 135.644Z" fill="#E0E0E0"/>
<path d="M1185.09 80.0048L1186.48 81.7511C1190.59 77.1145 1197.83 76.693 1202.42 80.908C1207.07 85.0027 1207.49 92.2285 1203.27 96.8049L1225 116.495C1229.11 111.859 1236.35 111.437 1240.94 115.652C1245.59 119.747 1246.01 126.973 1241.79 131.549L1244.56 134.018C1246.8 135.885 1249.82 135.764 1251.57 133.958L1257.85 127.033C1259.66 125.046 1260.02 121.493 1258.45 118.783L1255.49 113.123L1260.57 98.3102C1261.65 95.2393 1260.63 90.964 1258.33 88.9167L1237.32 70.1295C1235.02 67.9618 1230.74 67.4801 1227.66 68.7446L1213.41 75.1274L1212.44 55.9187C1212.38 55.1359 1211.72 54.5338 1210.93 54.594C1210.15 54.6542 1209.54 55.3166 1209.6 56.0994L1210.45 73.3811L1198.01 65.6736C1195.66 64.2284 1192.52 64.7102 1190.77 66.5166L1184.67 73.3209C1182.92 75.1876 1182.98 78.1381 1185.09 80.0048ZM1238.59 98.0092L1248.07 87.4715L1254.47 93.1317C1255.07 93.6135 1255.49 95.5403 1255.19 96.6242L1251.03 109.089L1238.59 98.0092ZM1211.66 85.9661L1217.94 79.1618L1229.95 73.8629C1231.16 73.3209 1232.97 73.7424 1233.52 74.2242L1243.9 83.6177L1223.01 106.56L1210.75 95.5403C1212.02 92.5898 1212.44 89.3382 1211.66 85.9661Z" fill="#E0E0E0"/>
<path d="M1115.96 80.908L1121.57 90.5424C1123.08 93.1919 1126.58 94.1554 1129.24 92.65L1130.21 92.108L1132.98 96.9855C1133.71 98.25 1135.34 98.6715 1136.79 97.9489L1139.14 96.564C1140.41 95.8414 1140.83 94.2156 1140.11 92.7704L1137.33 87.893L1167.4 70.4306C1170.06 68.9252 1171.02 65.4327 1169.51 62.7832L1163.9 53.1488C1162.75 51.2219 1160.4 50.0778 1158.16 50.4993L1145.78 37.553C1143.67 35.3251 1139.75 34.7831 1137.09 36.2885L1114.45 49.3552C1111.79 50.8606 1110.4 54.6542 1111.25 57.6047L1116.26 74.6456C1114.87 76.4521 1114.57 78.9811 1115.96 80.908ZM1152.91 64.4692C1151.76 62.5424 1152.49 59.8929 1154.42 58.7488C1156.35 57.6047 1159.01 58.3273 1160.15 60.2542C1161.3 62.1811 1160.58 64.8305 1158.64 65.9746C1156.65 67.1187 1154 66.3961 1152.91 64.4692ZM1121.15 71.4542L1116.68 56.2198C1116.56 55.6778 1116.98 54.7144 1117.41 54.4133L1140.05 41.2864C1140.47 40.9853 1141.56 41.1659 1141.86 41.5875L1152.91 53.0283L1121.15 71.4542ZM1123.62 81.2091C1122.48 79.2822 1123.2 76.6327 1125.13 75.4886C1127.07 74.3445 1129.72 75.0671 1130.87 76.994C1132.02 78.9209 1131.29 81.5704 1129.36 82.7145C1127.43 83.979 1124.77 83.136 1123.62 81.2091Z" fill="#E0E0E0"/>
<path d="M1196.08 55.1962L1180.38 37.6735C1179.23 36.409 1179.41 34.3015 1180.68 33.2176L1185.82 28.7617C1187.08 27.6176 1189.2 27.7982 1190.28 29.0628L1205.98 46.465C1207.13 47.7295 1206.95 49.837 1205.68 50.9209L1200.55 55.3768C1199.28 56.6413 1197.35 56.4607 1196.08 55.1962Z" fill="#E0E0E0"/>
<path d="M1194.45 160.573V172.495C1194.45 176.47 1203.08 179.661 1213.65 179.661C1224.22 179.661 1232.85 176.47 1232.85 172.495V160.513C1232.85 156.538 1224.22 153.347 1213.65 153.347C1202.9 153.347 1194.45 156.538 1194.45 160.573ZM1202.78 160.573C1202.78 158.345 1207.73 156.599 1213.65 156.599C1219.75 156.599 1224.52 158.345 1224.52 160.573C1224.52 162.801 1219.57 164.547 1213.65 164.547C1207.55 164.547 1202.78 162.801 1202.78 160.573Z" fill="#E0E0E0"/>
<path d="M496.958 489.207L518.332 495.168L533.065 482.884C536.204 480.175 541.518 479.512 544.959 481.198L575.874 496.553C579.315 498.3 581.911 502.996 581.61 507.031L580.583 526.179L586.078 531.719C588.734 534.429 589.58 538.885 588.131 541.655L582.938 551.891C581.489 554.661 577.987 555.926 574.726 554.239L570.681 552.252C574.123 545.388 571.285 537.018 564.401 533.586C557.518 530.153 549.126 532.984 545.684 539.848L513.381 523.771C516.823 516.906 513.985 508.536 507.101 505.104C500.218 501.672 491.826 504.502 488.384 511.366L485.848 510.162C482.889 508.657 481.621 505.345 483.071 502.575L488.203 492.459C490.014 489.809 493.758 488.304 496.958 489.207ZM555.767 513.835L574.062 522.867L574.847 506.79C574.847 505.285 573.579 503.297 572.855 502.816L563.496 498.179L555.767 513.835ZM549.609 510.644L557.458 495.108L541.94 487.521C541.155 487.22 538.62 487.34 537.533 488.244L525.215 498.661L549.609 510.644Z" fill="#E0E0E0"/>
<path d="M517.909 455.005L516.52 456.751C512.415 452.114 505.169 451.693 500.58 455.908C495.931 460.003 495.508 467.229 499.735 471.805L477.998 491.495C473.893 486.859 466.647 486.437 462.058 490.652C457.409 494.747 456.986 501.973 461.213 506.549L458.435 509.018C456.201 510.885 453.182 510.764 451.431 508.958L445.152 502.033C443.341 500.046 442.978 496.493 444.548 493.783L447.507 488.123L442.435 473.31C441.348 470.239 442.375 465.964 444.669 463.917L465.681 445.13C467.975 442.962 472.262 442.48 475.342 443.745L489.591 450.127L490.557 430.919C490.618 430.136 491.282 429.534 492.067 429.594C492.852 429.654 493.455 430.317 493.395 431.099L492.55 448.381L504.988 440.674C507.343 439.228 510.482 439.71 512.233 441.517L518.332 448.321C520.083 450.188 520.022 453.138 517.909 455.005ZM464.413 473.009L454.933 462.472L448.533 468.132C447.929 468.613 447.507 470.54 447.809 471.624L451.975 484.089L464.413 473.009ZM491.342 460.966L485.063 454.162L473.047 448.863C471.84 448.321 470.028 448.742 469.485 449.224L459.1 458.618L479.991 481.56L492.248 470.54C490.98 467.59 490.557 464.338 491.342 460.966Z" fill="#E0E0E0"/>
<path d="M587.044 455.908L581.428 465.542C579.919 468.192 576.417 469.155 573.76 467.65L572.794 467.108L570.017 471.985C569.292 473.25 567.662 473.671 566.213 472.949L563.858 471.564C562.59 470.841 562.167 469.216 562.892 467.77L565.669 462.893L535.6 445.431C532.944 443.925 531.978 440.433 533.487 437.783L539.102 428.149C540.25 426.222 542.604 425.078 544.838 425.499L557.216 412.553C559.329 410.325 563.254 409.783 565.911 411.289L588.553 424.355C591.21 425.861 592.598 429.654 591.753 432.605L586.742 449.646C588.13 451.452 588.432 453.981 587.044 455.908ZM550.091 439.469C551.239 437.542 550.514 434.893 548.582 433.749C546.65 432.605 543.993 433.327 542.846 435.254C541.699 437.181 542.423 439.831 544.355 440.975C546.348 442.119 549.005 441.396 550.091 439.469ZM581.851 446.454L586.319 431.22C586.44 430.678 586.017 429.714 585.594 429.413L562.952 416.286C562.53 415.985 561.443 416.166 561.141 416.587L550.091 428.028L581.851 446.454ZM579.375 456.209C580.523 454.282 579.798 451.633 577.866 450.489C575.934 449.345 573.277 450.067 572.13 451.994C570.983 453.921 571.707 456.57 573.639 457.714C575.571 458.979 578.228 458.136 579.375 456.209Z" fill="#E0E0E0"/>
<path d="M506.92 430.196L522.619 412.674C523.766 411.409 523.585 409.301 522.317 408.218L517.185 403.762C515.917 402.618 513.804 402.798 512.717 404.063L497.018 421.465C495.871 422.729 496.052 424.837 497.32 425.921L502.452 430.377C503.72 431.641 505.652 431.461 506.92 430.196Z" fill="#E0E0E0"/>
<path d="M508.551 535.573V547.495C508.551 551.47 499.917 554.661 489.35 554.661C478.784 554.661 470.15 551.47 470.15 547.495V535.513C470.15 531.538 478.784 528.347 489.35 528.347C500.098 528.347 508.551 531.538 508.551 535.573ZM500.218 535.573C500.218 533.345 495.267 531.599 489.35 531.599C483.252 531.599 478.482 533.345 478.482 535.573C478.482 537.801 483.433 539.547 489.35 539.547C495.448 539.547 500.218 537.801 500.218 535.573Z" fill="#E0E0E0"/>
<path d="M938.958 497.207L960.332 503.168L975.065 490.884C978.204 488.175 983.518 487.512 986.959 489.198L1017.87 504.553C1021.32 506.3 1023.91 510.996 1023.61 515.031L1022.58 534.179L1028.08 539.719C1030.73 542.429 1031.58 546.885 1030.13 549.655L1024.94 559.891C1023.49 562.661 1019.99 563.926 1016.73 562.239L1012.68 560.252C1016.12 553.388 1013.28 545.018 1006.4 541.586C999.518 538.153 991.126 540.984 987.684 547.848L955.381 531.771C958.823 524.906 955.985 516.536 949.101 513.104C942.218 509.672 933.826 512.502 930.384 519.366L927.848 518.162C924.889 516.657 923.621 513.345 925.071 510.575L930.203 500.459C932.014 497.809 935.758 496.304 938.958 497.207ZM997.767 521.835L1016.06 530.867L1016.85 514.79C1016.85 513.285 1015.58 511.297 1014.85 510.816L1005.5 506.179L997.767 521.835ZM991.609 518.644L999.458 503.108L983.94 495.521C983.155 495.22 980.62 495.34 979.533 496.244L967.215 506.661L991.609 518.644Z" fill="#E0E0E0"/>
<path d="M959.909 463.005L958.52 464.751C954.415 460.114 947.169 459.693 942.58 463.908C937.931 468.003 937.508 475.229 941.735 479.805L919.998 499.495C915.893 494.859 908.647 494.437 904.058 498.652C899.409 502.747 898.986 509.973 903.213 514.549L900.435 517.018C898.201 518.885 895.182 518.764 893.431 516.958L887.152 510.033C885.341 508.046 884.978 504.493 886.548 501.783L889.507 496.123L884.435 481.31C883.348 478.239 884.375 473.964 886.669 471.917L907.681 453.13C909.975 450.962 914.262 450.48 917.342 451.745L931.591 458.127L932.557 438.919C932.618 438.136 933.282 437.534 934.067 437.594C934.852 437.654 935.455 438.317 935.395 439.099L934.55 456.381L946.988 448.674C949.343 447.228 952.482 447.71 954.233 449.517L960.332 456.321C962.083 458.188 962.022 461.138 959.909 463.005ZM906.413 481.009L896.933 470.472L890.533 476.132C889.929 476.613 889.507 478.54 889.809 479.624L893.975 492.089L906.413 481.009ZM933.342 468.966L927.063 462.162L915.047 456.863C913.84 456.321 912.028 456.742 911.485 457.224L901.1 466.618L921.991 489.56L934.248 478.54C932.98 475.59 932.557 472.338 933.342 468.966Z" fill="#E0E0E0"/>
<path d="M1029.04 463.908L1023.43 473.542C1021.92 476.192 1018.42 477.155 1015.76 475.65L1014.79 475.108L1012.02 479.985C1011.29 481.25 1009.66 481.671 1008.21 480.949L1005.86 479.564C1004.59 478.841 1004.17 477.216 1004.89 475.77L1007.67 470.893L977.6 453.431C974.944 451.925 973.978 448.433 975.487 445.783L981.102 436.149C982.25 434.222 984.604 433.078 986.838 433.499L999.216 420.553C1001.33 418.325 1005.25 417.783 1007.91 419.289L1030.55 432.355C1033.21 433.861 1034.6 437.654 1033.75 440.605L1028.74 457.646C1030.13 459.452 1030.43 461.981 1029.04 463.908ZM992.091 447.469C993.239 445.542 992.514 442.893 990.582 441.749C988.65 440.605 985.993 441.327 984.846 443.254C983.699 445.181 984.423 447.831 986.355 448.975C988.348 450.119 991.005 449.396 992.091 447.469ZM1023.85 454.454L1028.32 439.22C1028.44 438.678 1028.02 437.714 1027.59 437.413L1004.95 424.286C1004.53 423.985 1003.44 424.166 1003.14 424.587L992.091 436.028L1023.85 454.454ZM1021.38 464.209C1022.52 462.282 1021.8 459.633 1019.87 458.489C1017.93 457.345 1015.28 458.067 1014.13 459.994C1012.98 461.921 1013.71 464.57 1015.64 465.714C1017.57 466.979 1020.23 466.136 1021.38 464.209Z" fill="#E0E0E0"/>
<path d="M948.92 438.196L964.619 420.674C965.766 419.409 965.585 417.301 964.317 416.218L959.185 411.762C957.917 410.618 955.804 410.798 954.717 412.063L939.018 429.465C937.871 430.729 938.052 432.837 939.32 433.921L944.452 438.377C945.72 439.641 947.652 439.461 948.92 438.196Z" fill="#E0E0E0"/>
<path d="M950.551 543.573V555.495C950.551 559.47 941.917 562.661 931.35 562.661C920.784 562.661 912.15 559.47 912.15 555.495V543.513C912.15 539.538 920.784 536.347 931.35 536.347C942.098 536.347 950.551 539.538 950.551 543.573ZM942.218 543.573C942.218 541.345 937.267 539.599 931.35 539.599C925.252 539.599 920.482 541.345 920.482 543.573C920.482 545.801 925.433 547.547 931.35 547.547C937.448 547.547 942.218 545.801 942.218 543.573Z" fill="#E0E0E0"/>
<path d="M1128.36 353.471L1114.11 357.445L1104.29 349.256C1102.2 347.45 1098.65 347.008 1096.36 348.132L1075.75 358.369C1073.46 359.533 1071.73 362.664 1071.93 365.354L1072.61 378.119L1068.95 381.813C1067.18 383.619 1066.61 386.59 1067.58 388.436L1071.04 395.261C1072.01 397.107 1074.34 397.95 1076.52 396.826L1079.21 395.502C1076.92 390.925 1078.81 385.345 1083.4 383.057C1087.99 380.769 1093.58 382.656 1095.88 387.232L1117.41 376.514C1115.12 371.937 1117.01 366.357 1121.6 364.069C1126.19 361.781 1131.78 363.668 1134.08 368.244L1135.77 367.441C1137.74 366.438 1138.59 364.23 1137.62 362.383L1134.2 355.639C1132.99 353.873 1130.49 352.869 1128.36 353.471ZM1089.16 369.89L1076.96 375.911L1076.44 365.193C1076.44 364.19 1077.28 362.865 1077.76 362.544L1084 359.453L1089.16 369.89ZM1093.26 367.762L1088.03 357.405L1098.37 352.347C1098.9 352.147 1100.59 352.227 1101.31 352.829L1109.52 359.774L1093.26 367.762Z" fill="#E0E0E0"/>
<path d="M1114.39 330.67L1115.32 331.834C1118.06 328.743 1122.89 328.462 1125.95 331.272C1129.05 334.002 1129.33 338.819 1126.51 341.87L1141 354.997C1143.74 351.906 1148.57 351.625 1151.63 354.435C1154.73 357.165 1155.01 361.982 1152.19 365.033L1154.04 366.679C1155.53 367.923 1157.55 367.843 1158.71 366.638L1162.9 362.022C1164.11 360.697 1164.35 358.329 1163.3 356.522L1161.33 352.749L1164.71 342.873C1165.43 340.826 1164.75 337.976 1163.22 336.611L1149.21 324.086C1147.68 322.641 1144.83 322.32 1142.77 323.163L1133.27 327.418L1132.63 314.612C1132.59 314.091 1132.15 313.689 1131.62 313.729C1131.1 313.769 1130.7 314.211 1130.74 314.733L1131.3 326.254L1123.01 321.116C1121.44 320.152 1119.35 320.473 1118.18 321.678L1114.11 326.214C1112.94 327.458 1112.99 329.425 1114.39 330.67ZM1150.06 342.673L1156.38 335.648L1160.64 339.421C1161.05 339.742 1161.33 341.027 1161.13 341.749L1158.35 350.059L1150.06 342.673ZM1132.11 334.644L1136.29 330.108L1144.3 326.575C1145.11 326.214 1146.31 326.495 1146.68 326.816L1153.6 333.078L1139.67 348.373L1131.5 341.027C1132.35 339.06 1132.63 336.892 1132.11 334.644Z" fill="#E0E0E0"/>
<path d="M1068.3 331.272L1072.05 337.695C1073.05 339.461 1075.39 340.104 1077.16 339.1L1077.8 338.739L1079.66 341.99C1080.14 342.833 1081.23 343.114 1082.19 342.633L1083.76 341.709C1084.61 341.228 1084.89 340.144 1084.41 339.18L1082.55 335.929L1102.6 324.287C1104.37 323.284 1105.01 320.955 1104.01 319.189L1100.27 312.766C1099.5 311.481 1097.93 310.719 1096.44 311L1088.19 302.369C1086.78 300.883 1084.16 300.522 1082.39 301.526L1067.3 310.237C1065.53 311.24 1064.6 313.77 1065.16 315.737L1068.51 327.097C1067.58 328.301 1067.38 329.987 1068.3 331.272ZM1092.94 320.313C1092.17 319.028 1092.66 317.262 1093.95 316.499C1095.23 315.737 1097 316.218 1097.77 317.503C1098.53 318.787 1098.05 320.554 1096.76 321.316C1095.43 322.079 1093.66 321.597 1092.94 320.313ZM1071.77 324.97L1068.79 314.813C1068.71 314.452 1068.99 313.81 1069.27 313.609L1084.37 304.858C1084.65 304.657 1085.37 304.777 1085.57 305.058L1092.94 312.686L1071.77 324.97ZM1073.42 331.473C1072.65 330.188 1073.13 328.422 1074.42 327.659C1075.71 326.896 1077.48 327.378 1078.25 328.663C1079.01 329.947 1078.53 331.714 1077.24 332.476C1075.95 333.319 1074.18 332.757 1073.42 331.473Z" fill="#E0E0E0"/>
<path d="M1121.72 314.131L1111.25 302.449C1110.49 301.606 1110.61 300.201 1111.46 299.478L1114.88 296.508C1115.72 295.745 1117.13 295.865 1117.86 296.709L1128.32 308.31C1129.09 309.153 1128.97 310.558 1128.12 311.281L1124.7 314.251C1123.85 315.094 1122.56 314.974 1121.72 314.131Z" fill="#E0E0E0"/>
<path d="M1120.63 384.382V392.33C1120.63 394.98 1126.39 397.107 1133.43 397.107C1140.48 397.107 1146.23 394.98 1146.23 392.33V384.342C1146.23 381.692 1140.48 379.565 1133.43 379.565C1126.27 379.565 1120.63 381.692 1120.63 384.382ZM1126.19 384.382C1126.19 382.897 1129.49 381.732 1133.43 381.732C1137.5 381.732 1140.68 382.897 1140.68 384.382C1140.68 385.867 1137.38 387.031 1133.43 387.031C1129.37 387.031 1126.19 385.867 1126.19 384.382Z" fill="#E0E0E0"/>
<path d="M323.409 321.032L301.308 323.013L289.051 308.258C286.455 305.023 281.351 303.407 277.66 304.44L244.471 313.926C240.77 315.019 237.364 319.166 236.928 323.188L234.46 342.204L228.051 346.654C224.947 348.837 223.306 353.065 224.228 356.052L227.476 367.061C228.398 370.048 231.612 371.928 235.124 370.862L239.463 369.642C237.326 362.267 241.636 354.551 249.028 352.426C256.42 350.301 264.16 354.608 266.297 361.983L300.983 352.039C298.845 344.664 303.156 336.948 310.548 334.823C317.94 332.698 325.679 337.005 327.817 344.38L330.529 343.656C333.712 342.713 335.56 339.687 334.638 336.7L331.428 325.82C330.128 322.885 326.72 320.725 323.409 321.032ZM261.105 334.572L241.474 340.132L243.622 324.179C243.895 322.699 245.503 320.975 246.303 320.633L256.348 317.773L261.105 334.572ZM267.741 332.552L262.843 315.849L279.481 311.206C280.307 311.052 282.779 311.631 283.684 312.717L293.905 325.198L267.741 332.552Z" fill="#E0E0E0"/>
<path d="M309.017 283.594L310.066 285.564C314.945 281.75 322.147 282.651 325.894 287.629C329.722 292.5 328.826 299.683 323.838 303.415L341.638 326.725C346.518 322.911 353.719 323.813 357.466 328.791C361.295 333.662 360.398 340.844 355.411 344.577L357.694 347.509C359.552 349.75 362.543 350.18 364.592 348.722L372.025 343.052C374.167 341.427 375.168 337.999 374.117 335.05L372.235 328.946L379.913 315.301C381.539 312.478 381.306 308.087 379.421 305.658L362.17 283.367C360.308 280.819 356.179 279.567 352.922 280.251L337.75 283.94L340.288 264.875C340.371 264.095 339.827 263.382 339.044 263.299C338.261 263.215 337.547 263.757 337.464 264.538L335.158 281.686L324.326 271.848C322.273 269.999 319.098 269.903 317.048 271.361L309.815 276.945C307.754 278.462 307.278 281.375 309.017 283.594ZM358.354 311.014L369.59 302.373L374.856 309.101C375.362 309.684 375.428 311.656 374.934 312.667L368.574 324.168L358.354 311.014ZM334.06 294.281L341.47 288.73L354.248 285.701C355.534 285.387 357.239 286.131 357.686 286.703L366.193 297.826L341.483 316.593L331.431 303.531C333.213 300.86 334.219 297.739 334.06 294.281Z" fill="#E0E0E0"/>
<path d="M240.868 271.928L244.64 282.422C245.643 285.302 248.912 286.885 251.798 285.887L252.846 285.53L254.692 290.83C255.175 292.206 256.702 292.916 258.258 292.469L260.825 291.534C262.203 291.054 262.914 289.532 262.464 287.979L260.618 282.679L293.358 270.967C296.244 269.969 297.828 266.71 296.825 263.83L293.053 253.336C292.274 251.233 290.166 249.68 287.893 249.689L278.072 234.71C276.398 232.136 272.637 230.89 269.751 231.888L245.113 240.626C242.227 241.624 240.172 245.102 240.468 248.157L242.302 265.825C240.608 267.349 239.852 269.781 240.868 271.928ZM280.191 262.473C279.412 260.37 280.606 257.896 282.714 257.122C284.821 256.347 287.303 257.54 288.081 259.644C288.859 261.747 287.666 264.221 285.558 264.995C283.391 265.758 280.909 264.565 280.191 262.473ZM247.691 263.575L246.063 247.782C246.043 247.227 246.633 246.357 247.104 246.137L271.753 237.34C272.224 237.121 273.259 237.496 273.48 237.965L282.268 251.222L247.691 263.575ZM248.354 273.617C247.575 271.514 248.769 269.04 250.877 268.266C252.985 267.491 255.466 268.684 256.244 270.788C257.022 272.891 255.829 275.365 253.721 276.139C251.591 277.031 249.132 275.72 248.354 273.617Z" fill="#E0E0E0"/>
<path d="M324.328 261.193L312.072 241.111C311.174 239.66 311.734 237.62 313.178 236.784L319.034 233.334C320.489 232.44 322.534 233.001 323.373 234.442L335.651 254.405C336.549 255.857 335.989 257.897 334.545 258.732L328.689 262.182C327.212 263.196 325.345 262.667 324.328 261.193Z" fill="#E0E0E0"/>
<path d="M303.589 364.522L301.424 376.247C300.703 380.155 308.614 384.861 319.005 386.78C329.395 388.698 338.465 387.128 339.187 383.22L341.363 371.436C342.085 367.528 334.174 362.822 323.783 360.903C313.214 358.951 304.322 360.555 303.589 364.522ZM311.783 366.035C312.188 363.844 317.374 363.026 323.192 364.101C329.189 365.208 333.563 367.791 333.158 369.982C332.754 372.173 327.568 372.991 321.749 371.917C315.752 370.81 311.379 368.226 311.783 366.035Z" fill="#E0E0E0"/>
<path d="M925.409 276.032L903.308 278.013L891.051 263.258C888.455 260.023 883.351 258.407 879.66 259.44L846.471 268.926C842.77 270.019 839.364 274.166 838.928 278.188L836.46 297.204L830.051 301.654C826.947 303.837 825.306 308.065 826.228 311.052L829.476 322.061C830.398 325.048 833.612 326.928 837.124 325.862L841.463 324.642C839.326 317.267 843.636 309.551 851.028 307.426C858.42 305.301 866.16 309.608 868.297 316.983L902.983 307.039C900.845 299.664 905.156 291.948 912.548 289.823C919.94 287.698 927.679 292.005 929.817 299.38L932.529 298.656C935.712 297.713 937.56 294.687 936.638 291.7L933.428 280.82C932.128 277.885 928.72 275.725 925.409 276.032ZM863.105 289.572L843.474 295.132L845.622 279.179C845.895 277.699 847.503 275.975 848.303 275.633L858.348 272.773L863.105 289.572ZM869.741 287.552L864.843 270.849L881.481 266.206C882.307 266.052 884.779 266.631 885.684 267.717L895.905 280.198L869.741 287.552Z" fill="#E0E0E0"/>
<path d="M911.017 238.594L912.066 240.564C916.945 236.75 924.147 237.651 927.894 242.629C931.722 247.5 930.826 254.683 925.838 258.415L943.638 281.725C948.518 277.911 955.719 278.813 959.466 283.791C963.295 288.662 962.398 295.844 957.411 299.577L959.694 302.509C961.552 304.75 964.543 305.18 966.592 303.722L974.025 298.052C976.167 296.427 977.168 292.999 976.117 290.05L974.235 283.946L981.913 270.301C983.539 267.478 983.306 263.087 981.421 260.658L964.17 238.367C962.308 235.819 958.179 234.567 954.922 235.251L939.75 238.94L942.288 219.875C942.371 219.095 941.827 218.382 941.044 218.299C940.261 218.215 939.547 218.757 939.464 219.538L937.158 236.686L926.326 226.848C924.273 224.999 921.098 224.903 919.048 226.361L911.815 231.945C909.754 233.462 909.278 236.375 911.017 238.594ZM960.354 266.014L971.59 257.373L976.856 264.101C977.362 264.684 977.428 266.656 976.934 267.667L970.574 279.168L960.354 266.014ZM936.06 249.281L943.47 243.73L956.248 240.701C957.534 240.387 959.239 241.131 959.686 241.703L968.193 252.826L943.483 271.593L933.431 258.531C935.213 255.86 936.219 252.739 936.06 249.281Z" fill="#E0E0E0"/>
<path d="M842.868 226.928L846.64 237.422C847.643 240.302 850.912 241.885 853.798 240.887L854.846 240.53L856.692 245.83C857.175 247.206 858.702 247.916 860.258 247.469L862.825 246.534C864.203 246.054 864.914 244.532 864.464 242.979L862.618 237.679L895.358 225.967C898.244 224.969 899.828 221.71 898.825 218.83L895.053 208.336C894.274 206.233 892.166 204.68 889.893 204.689L880.072 189.71C878.398 187.136 874.637 185.89 871.751 186.888L847.113 195.626C844.227 196.624 842.172 200.102 842.468 203.157L844.302 220.825C842.608 222.349 841.852 224.781 842.868 226.928ZM882.191 217.473C881.412 215.37 882.606 212.896 884.714 212.122C886.821 211.347 889.303 212.54 890.081 214.644C890.859 216.747 889.666 219.221 887.558 219.995C885.391 220.758 882.909 219.565 882.191 217.473ZM849.691 218.575L848.063 202.782C848.043 202.227 848.633 201.357 849.104 201.137L873.753 192.34C874.224 192.121 875.259 192.496 875.48 192.965L884.268 206.222L849.691 218.575ZM850.354 228.617C849.575 226.514 850.769 224.04 852.877 223.266C854.985 222.491 857.466 223.684 858.244 225.788C859.022 227.891 857.829 230.365 855.721 231.139C853.591 232.031 851.132 230.72 850.354 228.617Z" fill="#E0E0E0"/>
<path d="M926.328 216.193L914.072 196.111C913.174 194.66 913.734 192.62 915.178 191.784L921.034 188.334C922.489 187.44 924.534 188.001 925.373 189.442L937.651 209.405C938.549 210.857 937.989 212.897 936.545 213.732L930.689 217.182C929.212 218.196 927.345 217.667 926.328 216.193Z" fill="#E0E0E0"/>
<path d="M905.589 319.522L903.424 331.247C902.703 335.155 910.614 339.861 921.005 341.78C931.395 343.698 940.465 342.128 941.187 338.22L943.363 326.436C944.085 322.528 936.174 317.822 925.783 315.903C915.214 313.951 906.322 315.555 905.589 319.522ZM913.783 321.035C914.188 318.844 919.374 318.026 925.192 319.101C931.189 320.208 935.563 322.791 935.158 324.982C934.754 327.173 929.568 327.991 923.749 326.917C917.752 325.81 913.379 323.226 913.783 321.035Z" fill="#E0E0E0"/>
<path d="M1487.41 306.032L1465.31 308.013L1453.05 293.258C1450.46 290.023 1445.35 288.407 1441.66 289.44L1408.47 298.926C1404.77 300.019 1401.36 304.166 1400.93 308.188L1398.46 327.204L1392.05 331.654C1388.95 333.837 1387.31 338.065 1388.23 341.052L1391.48 352.061C1392.4 355.048 1395.61 356.928 1399.12 355.862L1403.46 354.642C1401.33 347.267 1405.64 339.551 1413.03 337.426C1420.42 335.301 1428.16 339.608 1430.3 346.983L1464.98 337.039C1462.84 329.664 1467.16 321.948 1474.55 319.823C1481.94 317.698 1489.68 322.005 1491.82 329.38L1494.53 328.656C1497.71 327.713 1499.56 324.687 1498.64 321.7L1495.43 310.82C1494.13 307.885 1490.72 305.725 1487.41 306.032ZM1425.11 319.572L1405.47 325.132L1407.62 309.179C1407.9 307.699 1409.5 305.975 1410.3 305.633L1420.35 302.773L1425.11 319.572ZM1431.74 317.552L1426.84 300.849L1443.48 296.206C1444.31 296.052 1446.78 296.631 1447.68 297.717L1457.9 310.198L1431.74 317.552Z" fill="#E0E0E0"/>
<path d="M1404.87 256.928L1408.64 267.422C1409.64 270.302 1412.91 271.885 1415.8 270.887L1416.85 270.53L1418.69 275.83C1419.17 277.206 1420.7 277.916 1422.26 277.469L1424.82 276.534C1426.2 276.054 1426.91 274.532 1426.46 272.979L1424.62 267.679L1457.36 255.967C1460.24 254.969 1461.83 251.71 1460.82 248.83L1457.05 238.336C1456.27 236.233 1454.17 234.68 1451.89 234.689L1442.07 219.71C1440.4 217.136 1436.64 215.89 1433.75 216.888L1409.11 225.626C1406.23 226.624 1404.17 230.102 1404.47 233.157L1406.3 250.825C1404.61 252.349 1403.85 254.781 1404.87 256.928ZM1444.19 247.473C1443.41 245.37 1444.61 242.896 1446.71 242.122C1448.82 241.347 1451.3 242.54 1452.08 244.644C1452.86 246.747 1451.67 249.221 1449.56 249.995C1447.39 250.758 1444.91 249.565 1444.19 247.473ZM1411.69 248.575L1410.06 232.782C1410.04 232.227 1410.63 231.357 1411.1 231.137L1435.75 222.34C1436.22 222.121 1437.26 222.496 1437.48 222.965L1446.27 236.222L1411.69 248.575ZM1412.35 258.617C1411.58 256.514 1412.77 254.04 1414.88 253.266C1416.98 252.491 1419.47 253.684 1420.24 255.788C1421.02 257.891 1419.83 260.365 1417.72 261.139C1415.59 262.031 1413.13 260.72 1412.35 258.617Z" fill="#E0E0E0"/>
<path d="M242.699 790.032L264.8 792.013L277.057 777.258C279.653 774.023 284.757 772.407 288.448 773.44L321.637 782.926C325.338 784.019 328.744 788.166 329.18 792.188L331.648 811.204L338.057 815.654C341.161 817.837 342.802 822.065 341.88 825.052L338.632 836.061C337.71 839.048 334.496 840.928 330.983 839.862L326.644 838.642C328.782 831.267 324.472 823.551 317.08 821.426C309.688 819.301 301.948 823.608 299.81 830.983L265.125 821.039C267.263 813.664 262.952 805.948 255.56 803.823C248.168 801.698 240.429 806.005 238.291 813.38L235.579 812.656C232.396 811.713 230.548 808.687 231.47 805.7L234.68 794.82C235.98 791.885 239.388 789.725 242.699 790.032ZM305.003 803.572L324.634 809.132L322.486 793.179C322.213 791.699 320.605 789.975 319.805 789.633L309.76 786.773L305.003 803.572ZM298.367 801.552L303.265 784.849L286.627 780.206C285.801 780.052 283.329 780.631 282.424 781.717L272.203 794.198L298.367 801.552Z" fill="#E0E0E0"/>
<path d="M257.091 752.594L256.042 754.564C251.163 750.75 243.961 751.651 240.214 756.629C236.386 761.5 237.282 768.683 242.27 772.415L224.47 795.725C219.59 791.911 212.389 792.813 208.642 797.791C204.813 802.662 205.71 809.844 210.697 813.577L208.414 816.509C206.556 818.75 203.565 819.18 201.515 817.722L194.083 812.052C191.941 810.427 190.939 806.999 191.991 804.05L193.873 797.946L186.195 784.301C184.569 781.478 184.802 777.087 186.686 774.658L203.938 752.367C205.8 749.819 209.929 748.567 213.186 749.251L228.358 752.94L225.82 733.875C225.737 733.095 226.281 732.382 227.064 732.299C227.847 732.215 228.561 732.757 228.643 733.538L230.95 750.686L241.782 740.848C243.835 738.999 247.01 738.903 249.06 740.361L256.293 745.945C258.354 747.462 258.83 750.375 257.091 752.594ZM207.753 780.014L196.518 771.373L191.252 778.101C190.746 778.684 190.68 780.656 191.174 781.667L197.534 793.168L207.753 780.014ZM232.048 763.281L224.637 757.73L211.859 754.701C210.574 754.387 208.869 755.131 208.422 755.703L199.915 766.826L224.625 785.593L234.677 772.531C232.895 769.86 231.889 766.739 232.048 763.281Z" fill="#E0E0E0"/>
<path d="M325.24 740.928L321.468 751.422C320.465 754.302 317.196 755.885 314.31 754.887L313.261 754.53L311.416 759.83C310.933 761.206 309.406 761.916 307.85 761.469L305.283 760.534C303.905 760.054 303.194 758.532 303.644 756.979L305.49 751.679L272.75 739.967C269.864 738.969 268.28 735.71 269.283 732.83L273.055 722.336C273.834 720.233 275.941 718.68 278.215 718.689L288.036 703.71C289.71 701.136 293.471 699.89 296.357 700.888L320.995 709.626C323.881 710.624 325.936 714.102 325.64 717.157L323.806 734.825C325.5 736.349 326.256 738.781 325.24 740.928ZM285.917 731.473C286.696 729.37 285.502 726.896 283.394 726.122C281.286 725.347 278.805 726.54 278.027 728.644C277.249 730.747 278.442 733.221 280.55 733.995C282.717 734.758 285.199 733.565 285.917 731.473ZM318.417 732.575L320.045 716.782C320.065 716.227 319.475 715.357 319.004 715.137L294.355 706.34C293.884 706.121 292.848 706.496 292.628 706.965L283.84 720.222L318.417 732.575ZM317.754 742.617C318.533 740.514 317.339 738.04 315.231 737.266C313.123 736.491 310.642 737.684 309.864 739.788C309.086 741.891 310.279 744.365 312.387 745.139C314.517 746.031 316.976 744.72 317.754 742.617Z" fill="#E0E0E0"/>
<path d="M241.78 730.193L254.036 710.111C254.934 708.66 254.373 706.62 252.93 705.784L247.074 702.334C245.619 701.44 243.574 702.001 242.735 703.442L230.457 723.405C229.558 724.857 230.119 726.897 231.563 727.732L237.419 731.182C238.896 732.196 240.763 731.667 241.78 730.193Z" fill="#E0E0E0"/>
<path d="M262.519 833.522L264.684 845.247C265.405 849.155 257.494 853.861 247.103 855.78C236.713 857.698 227.642 856.128 226.921 852.22L224.745 840.436C224.023 836.528 231.934 831.822 242.325 829.903C252.894 827.951 261.786 829.555 262.519 833.522ZM254.325 835.035C253.92 832.844 248.734 832.026 242.916 833.101C236.919 834.208 232.545 836.791 232.95 838.982C233.354 841.173 238.54 841.991 244.359 840.917C250.356 839.81 254.729 837.226 254.325 835.035Z" fill="#E0E0E0"/>
<path d="M1256.27 746.021L1241.54 747.342L1233.37 737.505C1231.64 735.349 1228.23 734.271 1225.77 734.96L1203.65 741.284C1201.18 742.012 1198.91 744.777 1198.62 747.458L1196.97 760.136L1192.7 763.103C1190.63 764.558 1189.54 767.376 1190.15 769.368L1192.32 776.707C1192.93 778.699 1195.08 779.952 1197.42 779.241L1200.31 778.428C1198.88 773.511 1201.76 768.367 1206.69 766.951C1211.61 765.534 1216.77 768.405 1218.2 773.322L1241.32 766.692C1239.9 761.776 1242.77 756.632 1247.7 755.215C1252.63 753.798 1257.79 756.67 1259.21 761.586L1261.02 761.104C1263.14 760.475 1264.37 758.458 1263.76 756.466L1261.62 749.213C1260.75 747.257 1258.48 745.817 1256.27 746.021ZM1214.74 755.048L1201.65 758.754L1203.08 748.119C1203.26 747.132 1204.34 745.983 1204.87 745.755L1211.57 743.848L1214.74 755.048ZM1219.16 753.701L1215.9 742.566L1226.99 739.471C1227.54 739.368 1229.19 739.754 1229.79 740.478L1236.6 748.798L1219.16 753.701Z" fill="#E0E0E0"/>
<path d="M1246.68 721.063L1247.38 722.376C1250.63 719.833 1255.43 720.434 1257.93 723.753C1260.48 727 1259.88 731.788 1256.56 734.277L1268.43 749.817C1271.68 747.274 1276.48 747.875 1278.98 751.194C1281.53 754.441 1280.93 759.229 1277.61 761.718L1279.13 763.672C1280.37 765.167 1282.36 765.453 1283.73 764.481L1288.68 760.701C1290.11 759.618 1290.78 757.333 1290.08 755.366L1288.82 751.297L1293.94 742.2C1295.03 740.319 1294.87 737.391 1293.61 735.772L1282.11 720.911C1280.87 719.212 1278.12 718.378 1275.95 718.834L1265.83 721.293L1267.53 708.584C1267.58 708.063 1267.22 707.588 1266.7 707.532C1266.17 707.477 1265.7 707.838 1265.64 708.358L1264.11 719.79L1256.88 713.232C1255.52 711.999 1253.4 711.935 1252.03 712.907L1247.21 716.63C1245.84 717.642 1245.52 719.583 1246.68 721.063ZM1279.57 739.342L1287.06 733.581L1290.57 738.067C1290.91 738.456 1290.95 739.77 1290.62 740.444L1286.38 748.112L1279.57 739.342ZM1263.37 728.187L1268.31 724.486L1276.83 722.467C1277.69 722.258 1278.83 722.754 1279.12 723.135L1284.8 730.551L1268.32 743.062L1261.62 734.354C1262.81 732.573 1263.48 730.493 1263.37 728.187Z" fill="#E0E0E0"/>
<path d="M1201.25 713.286L1203.76 720.281C1204.43 722.201 1206.61 723.257 1208.53 722.591L1209.23 722.353L1210.46 725.887C1210.78 726.804 1211.8 727.277 1212.84 726.979L1214.55 726.356C1215.47 726.036 1215.94 725.021 1215.64 723.986L1214.41 720.452L1236.24 712.644C1238.16 711.979 1239.22 709.806 1238.55 707.887L1236.04 700.891C1235.52 699.489 1234.11 698.454 1232.6 698.459L1226.05 688.474C1224.93 686.757 1222.43 685.927 1220.5 686.592L1204.08 692.417C1202.15 693.083 1200.78 695.402 1200.98 697.438L1202.2 709.217C1201.07 710.233 1200.57 711.854 1201.25 713.286ZM1227.46 706.982C1226.94 705.58 1227.74 703.931 1229.14 703.414C1230.55 702.898 1232.2 703.694 1232.72 705.096C1233.24 706.498 1232.44 708.147 1231.04 708.663C1229.59 709.172 1227.94 708.377 1227.46 706.982ZM1205.79 707.716L1204.71 697.188C1204.7 696.818 1205.09 696.238 1205.4 696.092L1221.84 690.227C1222.15 690.081 1222.84 690.331 1222.99 690.643L1228.85 699.482L1205.79 707.716ZM1206.24 714.411C1205.72 713.009 1206.51 711.36 1207.92 710.844C1209.32 710.328 1210.98 711.123 1211.5 712.525C1212.02 713.927 1211.22 715.576 1209.81 716.093C1208.39 716.688 1206.76 715.813 1206.24 714.411Z" fill="#E0E0E0"/>
<path d="M1256.89 706.129L1248.71 692.741C1248.12 691.773 1248.49 690.413 1249.45 689.856L1253.36 687.556C1254.33 686.96 1255.69 687.334 1256.25 688.295L1264.43 701.604C1265.03 702.571 1264.66 703.931 1263.7 704.488L1259.79 706.788C1258.81 707.464 1257.56 707.111 1256.89 706.129Z" fill="#E0E0E0"/>
<path d="M1243.06 775.014L1241.62 782.831C1241.14 785.436 1246.41 788.574 1253.34 789.853C1260.26 791.132 1266.31 790.085 1266.79 787.479L1268.24 779.624C1268.72 777.018 1263.45 773.881 1256.52 772.602C1249.48 771.301 1243.55 772.37 1243.06 775.014ZM1248.52 776.023C1248.79 774.563 1252.25 774.017 1256.13 774.733C1260.13 775.472 1263.04 777.194 1262.77 778.655C1262.5 780.115 1259.05 780.661 1255.17 779.944C1251.17 779.206 1248.25 777.484 1248.52 776.023Z" fill="#E0E0E0"/>
<path d="M832.282 729.032L854.384 731.013L866.641 716.258C869.236 713.023 874.341 711.407 878.031 712.44L911.22 721.926C914.922 723.019 918.328 727.166 918.763 731.188L921.231 750.204L927.64 754.654C930.745 756.837 932.385 761.065 931.463 764.052L928.216 775.061C927.294 778.048 924.079 779.928 920.567 778.862L916.228 777.642C918.366 770.267 914.055 762.551 906.663 760.426C899.271 758.301 891.532 762.608 889.394 769.983L854.709 760.039C856.846 752.664 852.536 744.948 845.144 742.823C837.752 740.698 830.012 745.005 827.875 752.38L825.162 751.656C821.979 750.713 820.131 747.687 821.053 744.7L824.263 733.82C825.563 730.885 828.971 728.725 832.282 729.032ZM894.586 742.572L914.217 748.132L912.069 732.179C911.796 730.699 910.188 728.975 909.388 728.633L899.343 725.773L894.586 742.572ZM887.95 740.552L892.848 723.849L876.211 719.206C875.384 719.052 872.912 719.631 872.008 720.717L861.787 733.198L887.95 740.552Z" fill="#E0E0E0"/>
<path d="M846.674 691.594L845.626 693.564C840.746 689.75 833.545 690.651 829.798 695.629C825.969 700.5 826.866 707.683 831.853 711.415L814.053 734.725C809.174 730.911 801.972 731.813 798.225 736.791C794.397 741.662 795.293 748.844 800.28 752.577L797.997 755.509C796.14 757.75 793.149 758.18 791.099 756.722L783.666 751.052C781.524 749.427 780.523 745.999 781.575 743.05L783.456 736.946L775.779 723.301C774.152 720.478 774.385 716.087 776.27 713.658L793.521 691.367C795.384 688.819 799.512 687.567 802.77 688.251L817.942 691.94L815.403 672.875C815.321 672.095 815.864 671.382 816.647 671.299C817.43 671.215 818.144 671.757 818.227 672.538L820.534 689.686L831.366 679.848C833.419 677.999 836.594 677.903 838.644 679.361L845.876 684.945C847.937 686.462 848.414 689.375 846.674 691.594ZM797.337 719.014L786.101 710.373L780.835 717.101C780.329 717.684 780.263 719.656 780.757 720.667L787.117 732.168L797.337 719.014ZM821.632 702.281L814.221 696.73L801.443 693.701C800.157 693.387 798.452 694.131 798.005 694.703L789.499 705.826L814.209 724.593L824.261 711.531C822.478 708.86 821.472 705.739 821.632 702.281Z" fill="#E0E0E0"/>
<path d="M914.824 679.928L911.051 690.422C910.048 693.302 906.779 694.885 903.893 693.887L902.845 693.53L900.999 698.83C900.517 700.206 898.99 700.916 897.434 700.469L894.867 699.534C893.488 699.054 892.778 697.532 893.228 695.979L895.073 690.679L862.333 678.967C859.447 677.969 857.863 674.71 858.866 671.83L862.639 661.336C863.417 659.233 865.525 657.68 867.798 657.689L877.62 642.71C879.293 640.136 883.054 638.89 885.94 639.888L910.579 648.626C913.465 649.624 915.519 653.102 915.224 656.157L913.39 673.825C915.083 675.349 915.84 677.781 914.824 679.928ZM875.501 670.473C876.279 668.37 875.086 665.896 872.978 665.122C870.87 664.347 868.389 665.54 867.61 667.644C866.832 669.747 868.026 672.221 870.134 672.995C872.301 673.758 874.782 672.565 875.501 670.473ZM908.001 671.575L909.628 655.782C909.649 655.227 909.058 654.357 908.588 654.137L883.938 645.34C883.468 645.121 882.432 645.496 882.212 645.965L873.423 659.222L908.001 671.575ZM907.338 681.617C908.116 679.514 906.922 677.04 904.815 676.266C902.707 675.491 900.226 676.684 899.447 678.788C898.669 680.891 899.863 683.365 901.97 684.139C904.1 685.031 906.56 683.72 907.338 681.617Z" fill="#E0E0E0"/>
<path d="M831.364 669.193L843.619 649.111C844.518 647.66 843.957 645.62 842.513 644.784L836.657 641.334C835.203 640.44 833.157 641.001 832.318 642.442L820.04 662.405C819.142 663.857 819.703 665.897 821.146 666.732L827.003 670.182C828.479 671.196 830.346 670.667 831.364 669.193Z" fill="#E0E0E0"/>
<path d="M852.102 772.522L854.267 784.247C854.989 788.155 847.078 792.861 836.687 794.78C826.296 796.698 817.226 795.128 816.504 791.22L814.328 779.436C813.607 775.528 821.518 770.822 831.909 768.903C842.477 766.951 851.37 768.555 852.102 772.522ZM843.908 774.035C843.504 771.844 838.318 771.026 832.499 772.101C826.502 773.208 822.129 775.791 822.533 777.982C822.938 780.173 828.124 780.991 833.942 779.917C839.939 778.81 844.313 776.226 843.908 774.035Z" fill="#E0E0E0"/>
<path d="M1434.28 743.032L1456.38 745.013L1468.64 730.258C1471.24 727.023 1476.34 725.407 1480.03 726.44L1513.22 735.926C1516.92 737.019 1520.33 741.166 1520.76 745.188L1523.23 764.204L1529.64 768.654C1532.74 770.837 1534.39 775.065 1533.46 778.052L1530.22 789.061C1529.29 792.048 1526.08 793.928 1522.57 792.862L1518.23 791.642C1520.37 784.267 1516.06 776.551 1508.66 774.426C1501.27 772.301 1493.53 776.608 1491.39 783.983L1456.71 774.039C1458.85 766.664 1454.54 758.948 1447.14 756.823C1439.75 754.698 1432.01 759.005 1429.87 766.38L1427.16 765.656C1423.98 764.713 1422.13 761.687 1423.05 758.7L1426.26 747.82C1427.56 744.885 1430.97 742.725 1434.28 743.032ZM1496.59 756.572L1516.22 762.132L1514.07 746.179C1513.8 744.699 1512.19 742.975 1511.39 742.633L1501.34 739.773L1496.59 756.572ZM1489.95 754.552L1494.85 737.849L1478.21 733.206C1477.38 733.052 1474.91 733.631 1474.01 734.717L1463.79 747.198L1489.95 754.552Z" fill="#E0E0E0"/>
<path d="M1448.67 705.594L1447.63 707.564C1442.75 703.75 1435.54 704.651 1431.8 709.629C1427.97 714.5 1428.87 721.683 1433.85 725.415L1416.05 748.725C1411.17 744.911 1403.97 745.813 1400.23 750.791C1396.4 755.662 1397.29 762.844 1402.28 766.577L1400 769.509C1398.14 771.75 1395.15 772.18 1393.1 770.722L1385.67 765.052C1383.52 763.427 1382.52 759.999 1383.57 757.05L1385.46 750.946L1377.78 737.301C1376.15 734.478 1376.39 730.087 1378.27 727.658L1395.52 705.367C1397.38 702.819 1401.51 701.567 1404.77 702.251L1419.94 705.94L1417.4 686.875C1417.32 686.095 1417.86 685.382 1418.65 685.299C1419.43 685.215 1420.14 685.757 1420.23 686.538L1422.53 703.686L1433.37 693.848C1435.42 691.999 1438.59 691.903 1440.64 693.361L1447.88 698.945C1449.94 700.462 1450.41 703.375 1448.67 705.594ZM1399.34 733.014L1388.1 724.373L1382.84 731.101C1382.33 731.684 1382.26 733.656 1382.76 734.667L1389.12 746.168L1399.34 733.014ZM1423.63 716.281L1416.22 710.73L1403.44 707.701C1402.16 707.387 1400.45 708.131 1400.01 708.703L1391.5 719.826L1416.21 738.593L1426.26 725.531C1424.48 722.86 1423.47 719.739 1423.63 716.281Z" fill="#E0E0E0"/>
<path d="M1433.36 683.193L1445.62 663.111C1446.52 661.66 1445.96 659.62 1444.51 658.784L1438.66 655.334C1437.2 654.44 1435.16 655.001 1434.32 656.442L1422.04 676.405C1421.14 677.857 1421.7 679.897 1423.15 680.732L1429 684.182C1430.48 685.196 1432.35 684.667 1433.36 683.193Z" fill="#E0E0E0"/>
<path d="M1454.1 786.522L1456.27 798.247C1456.99 802.155 1449.08 806.861 1438.69 808.78C1428.3 810.698 1419.23 809.128 1418.5 805.22L1416.33 793.436C1415.61 789.528 1423.52 784.822 1433.91 782.903C1444.48 780.951 1453.37 782.555 1454.1 786.522ZM1445.91 788.035C1445.5 785.844 1440.32 785.026 1434.5 786.101C1428.5 787.208 1424.13 789.791 1424.53 791.982C1424.94 794.173 1430.12 794.991 1435.94 793.917C1441.94 792.81 1446.31 790.226 1445.91 788.035Z" fill="#E0E0E0"/>
<path fill-rule="evenodd" clip-rule="evenodd" d="M240.367 82.4154C242.405 81.5711 244.751 82.0378 246.311 83.5977L295.402 132.688C296.962 134.248 297.429 136.594 296.585 138.633C295.741 140.671 293.752 142 291.545 142H266.532L209.727 198.804C207.681 200.85 204.907 202 202.013 202H187.909C181.884 202 177 197.116 177 191.091V176.986C177 174.093 178.149 171.319 180.195 169.273C199.13 150.338 218.065 131.403 237 112.468V87.4547C237 85.2486 238.329 83.2596 240.367 82.4154ZM228.818 136.077L222.896 142L237 156.104L242.923 150.182L228.818 136.077ZM250.636 142.468L236.532 128.363L242.455 122.441L256.559 136.545L250.636 142.468ZM229.286 163.818L215.182 149.714L209.259 155.636L223.364 169.741L229.286 163.818ZM215.65 177.454L201.546 163.35L195.623 169.273L209.727 183.377L215.65 177.454ZM202.013 191.091L187.909 176.986V191.091H202.013ZM247.909 100.623V112.468L266.532 131.091H278.377L247.909 100.623Z" fill="#E0E0E0"/>
<path fill-rule="evenodd" clip-rule="evenodd" d="M791.525 22.3115C793.054 21.6783 794.813 22.0283 795.983 23.1983L832.802 60.0163C833.972 61.1863 834.322 62.9458 833.688 64.4746C833.055 66.0034 831.564 66.9999 829.909 66.9999H811.149L768.545 109.603C767.011 111.138 764.93 112 762.76 112H752.182C747.663 112 744 108.337 744 103.818V93.2397C744 91.0699 744.862 88.9889 746.396 87.4544C760.598 73.2532 774.799 59.0521 789 44.851V26.091C789 24.4364 789.996 22.9447 791.525 22.3115ZM782.864 62.558L778.422 66.9999L789 77.5781L793.442 73.1362L782.864 62.558ZM799.227 67.3509L788.649 56.7726L793.091 52.3309L803.669 62.909L799.227 67.3509ZM783.215 83.3635L772.636 72.7852L768.194 77.2271L778.773 87.8054L783.215 83.3635ZM772.987 93.5907L762.409 83.0125L757.967 87.4544L768.545 98.0326L772.987 93.5907ZM762.76 103.818L752.182 93.2397V103.818H762.76ZM797.182 35.9673V44.851L811.149 58.8181H820.033L797.182 35.9673Z" fill="#E0E0E0"/>
<path fill-rule="evenodd" clip-rule="evenodd" d="M524.475 253.312C522.946 252.678 521.187 253.028 520.017 254.198L483.198 291.016C482.028 292.186 481.678 293.946 482.312 295.475C482.945 297.003 484.436 298 486.091 298H504.851L547.455 340.603C548.989 342.138 551.07 343 553.24 343H563.818C568.337 343 572 339.337 572 334.818V324.24C572 322.07 571.138 319.989 569.604 318.454C555.402 304.253 541.201 290.052 527 275.851V257.091C527 255.436 526.004 253.945 524.475 253.312ZM533.136 293.558L537.578 298L527 308.578L522.558 304.136L533.136 293.558ZM516.773 298.351L527.351 287.773L522.909 283.331L512.331 293.909L516.773 298.351ZM532.785 314.363L543.364 303.785L547.806 308.227L537.227 318.805L532.785 314.363ZM543.013 324.591L553.591 314.012L558.033 318.454L547.455 329.033L543.013 324.591ZM553.24 334.818L563.818 324.24V334.818H553.24ZM518.818 266.967V275.851L504.851 289.818H495.967L518.818 266.967Z" fill="#E0E0E0"/>
<path fill-rule="evenodd" clip-rule="evenodd" d="M1415.37 5.41537C1417.41 4.57111 1419.75 5.03775 1421.31 6.59775L1470.4 55.6884C1471.96 57.2484 1472.43 59.5944 1471.58 61.6328C1470.74 63.6711 1468.75 64.9999 1466.55 64.9999H1441.53L1384.73 121.804C1382.68 123.85 1379.91 125 1377.01 125H1362.91C1356.88 125 1352 120.116 1352 114.091V99.9863C1352 97.0932 1353.15 94.3185 1355.2 92.2725C1374.13 73.3377 1393.06 54.4028 1412 35.468V10.4547C1412 8.24856 1413.33 6.25962 1415.37 5.41537ZM1403.82 59.0773L1397.9 64.9999L1412 79.1042L1417.92 73.1817L1403.82 59.0773ZM1425.64 65.4679L1411.53 51.3635L1417.45 45.4412L1431.56 59.5453L1425.64 65.4679ZM1404.29 86.818L1390.18 72.7137L1384.26 78.6362L1398.36 92.7405L1404.29 86.818ZM1390.65 100.454L1376.55 86.35L1370.62 92.2725L1384.73 106.377L1390.65 100.454ZM1377.01 114.091L1362.91 99.9863V114.091H1377.01ZM1422.91 23.6231V35.468L1441.53 54.0908H1453.38L1422.91 23.6231Z" fill="#E0E0E0"/>
<path fill-rule="evenodd" clip-rule="evenodd" d="M74.4748 487.312C72.946 486.678 71.1865 487.028 70.0165 488.198L33.1984 525.016C32.0284 526.186 31.6783 527.946 32.3115 529.475C32.9448 531.003 34.4363 532 36.0911 532H54.8512L97.4546 574.603C98.989 576.138 101.07 577 103.24 577H113.818C118.337 577 122 573.337 122 568.818V558.24C122 556.07 121.138 553.989 119.604 552.454C105.402 538.253 91.2013 524.052 77.0001 509.851V491.091C77.0001 489.436 76.0036 487.945 74.4748 487.312ZM83.1365 527.558L87.5783 532L77.0001 542.578L72.5582 538.136L83.1365 527.558ZM66.7729 532.351L77.3511 521.773L72.9092 517.331L62.331 527.909L66.7729 532.351ZM82.7855 548.363L93.3637 537.785L97.8055 542.227L87.2274 552.805L82.7855 548.363ZM93.0127 558.591L103.591 548.012L108.033 552.454L97.4546 563.033L93.0127 558.591ZM103.24 568.818L113.818 558.24V568.818H103.24ZM68.8183 500.967V509.851L54.8512 523.818H45.9674L68.8183 500.967Z" fill="#E0E0E0"/>
<path fill-rule="evenodd" clip-rule="evenodd" d="M804.755 418.277C803.396 417.714 801.832 418.025 800.792 419.065L768.065 451.792C767.025 452.832 766.714 454.396 767.277 455.755C767.84 457.114 769.165 458 770.636 458H787.312L825.182 495.87C826.546 497.234 828.396 498 830.324 498H839.727C843.744 498 847 494.744 847 490.727V481.324C847 479.396 846.234 477.546 844.87 476.182C832.246 463.559 819.623 450.935 807 438.312V421.636C807 420.166 806.114 418.84 804.755 418.277ZM812.455 454.052L816.403 458L807 467.403L803.052 463.455L812.455 454.052ZM797.909 458.312L807.312 448.909L803.364 444.961L793.961 454.364L797.909 458.312ZM812.143 472.545L821.545 463.143L825.494 467.091L816.091 476.494L812.143 472.545ZM821.233 481.636L830.636 472.233L834.585 476.182L825.182 485.585L821.233 481.636ZM830.324 490.727L839.727 481.324V490.727H830.324ZM799.727 430.415V438.312L787.312 450.727H779.415L799.727 430.415Z" fill="#E0E0E0"/>
<path fill-rule="evenodd" clip-rule="evenodd" d="M1438.32 493.415C1436.29 492.571 1433.94 493.038 1432.38 494.598L1383.29 543.688C1381.73 545.248 1381.26 547.594 1382.11 549.633C1382.95 551.671 1384.94 553 1387.15 553H1412.16L1468.96 609.804C1471.01 611.85 1473.78 613 1476.68 613H1490.78C1496.81 613 1501.69 608.116 1501.69 602.091V587.986C1501.69 585.093 1500.54 582.319 1498.5 580.273C1479.56 561.338 1460.63 542.403 1441.69 523.468V498.455C1441.69 496.249 1440.36 494.26 1438.32 493.415ZM1449.87 547.077L1455.8 553L1441.69 567.104L1435.77 561.182L1449.87 547.077ZM1428.06 553.468L1442.16 539.363L1436.24 533.441L1422.13 547.545L1428.06 553.468ZM1449.41 574.818L1463.51 560.714L1469.43 566.636L1455.33 580.741L1449.41 574.818ZM1463.04 588.454L1477.15 574.35L1483.07 580.273L1468.96 594.377L1463.04 588.454ZM1476.68 602.091L1490.78 587.986V602.091H1476.68ZM1430.78 511.623V523.468L1412.16 542.091H1400.31L1430.78 511.623Z" fill="#E0E0E0"/>
<path d="M113.725 328.485L59.3242 339.139L54.9638 316.607C54.6215 314.839 52.9101 313.683 51.1427 314.025L36.2026 316.916C30.9065 317.941 27.4319 323.083 28.4568 328.379L30.6785 339.86L27.784 344.143C26.3198 346.309 25.788 348.914 26.2846 351.48L26.3731 351.937L35.9775 350.079C37.7461 349.736 39.4566 350.893 39.7986 352.661C40.1406 354.428 39.0265 356.353 37.2579 356.695L27.6536 358.554L28.2495 361.633C29.2744 366.929 34.4165 370.404 39.7126 369.379L45.0483 368.346C46.4149 375.408 53.2707 380.041 60.3324 378.674C67.394 377.308 72.0267 370.452 70.6601 363.39L89.8689 359.673C91.2355 366.734 98.0913 371.367 105.153 370C112.215 368.634 116.847 361.778 115.481 354.716L118.682 354.097C123.978 353.072 127.453 347.93 126.428 342.634L125.189 336.231C124.164 330.935 119.022 327.46 113.725 328.485ZM36.7186 336.745L34.8599 327.141C34.5183 325.375 35.6766 323.661 37.4419 323.319L49.1805 321.048L51.6587 333.854L36.7186 336.745ZM59.0933 372.271C55.5625 372.954 52.1346 370.638 51.4514 367.107C50.7681 363.577 53.0844 360.149 56.6151 359.465C60.1459 358.782 63.5738 361.098 64.2571 364.629C64.9404 368.16 62.6241 371.588 59.0933 372.271ZM103.914 363.597C100.383 364.281 96.955 361.964 96.2718 358.434C95.5885 354.903 97.9048 351.475 101.436 350.792C104.966 350.108 108.394 352.425 109.077 355.955C109.761 359.486 107.444 362.914 103.914 363.597Z" fill="#E0E0E0"/>
<path d="M107.049 304.349C106.213 304.097 105.506 303.167 105.287 302.038L103.24 291.462C107.363 285.361 106.161 287.17 106.51 286.484C107.613 284.531 108.093 282.213 107.635 279.843C106.61 274.547 101.468 271.073 96.1716 272.098C93.8017 272.556 91.8307 273.866 90.4304 275.619C89.8048 276.335 93.461 270.993 61.8373 317.794L64.4478 331.283L78.1207 328.638L98.0768 299.104L98.8843 303.277C99.571 306.825 101.975 309.629 105.163 310.592C106.33 310.944 107.197 311.904 107.427 313.097C107.769 314.862 106.611 316.576 104.846 316.918C103.08 317.26 101.366 316.101 101.024 314.336C100.682 312.568 98.9707 311.412 97.2034 311.754C95.436 312.096 94.2791 313.807 94.6214 315.575C95.6463 320.871 100.788 324.346 106.084 323.321C111.38 322.296 114.855 317.154 113.83 311.858C113.137 308.278 110.537 305.401 107.049 304.349ZM98.6498 284.904C96.8845 285.245 95.1704 284.087 94.8287 282.322C94.4871 280.556 95.6454 278.842 97.4107 278.501C99.176 278.159 100.89 279.317 101.232 281.083C101.573 282.848 100.415 284.562 98.6498 284.904Z" fill="#E0E0E0"/>
<path d="M723.343 305.876L668.942 316.53L664.581 293.998C664.239 292.23 662.528 291.074 660.76 291.416L645.82 294.308C640.524 295.332 637.05 300.475 638.075 305.771L640.296 317.251L637.402 321.534C635.937 323.7 635.406 326.305 635.902 328.871L635.991 329.328L645.595 327.47C647.364 327.127 649.074 328.284 649.416 330.052C649.758 331.819 648.644 333.744 646.876 334.086L637.271 335.945L637.867 339.024C638.892 344.32 644.034 347.795 649.33 346.77L654.666 345.738C656.033 352.799 662.888 357.432 669.95 356.065C677.012 354.699 681.644 347.843 680.278 340.781L699.487 337.064C700.853 344.125 707.709 348.758 714.771 347.391C721.832 346.025 726.465 339.169 725.098 332.107L728.3 331.488C733.596 330.463 737.071 325.321 736.046 320.025L734.807 313.622C733.781 308.326 728.639 304.851 723.343 305.876ZM646.336 314.136L644.478 304.532C644.136 302.766 645.294 301.052 647.06 300.711L658.798 298.439L661.276 311.245L646.336 314.136ZM668.711 349.662C665.18 350.345 661.752 348.029 661.069 344.498C660.386 340.968 662.702 337.54 666.233 336.856C669.764 336.173 673.191 338.489 673.875 342.02C674.558 345.551 672.242 348.979 668.711 349.662ZM713.531 340.988C710.001 341.672 706.573 339.355 705.889 335.825C705.206 332.294 707.522 328.866 711.053 328.183C714.584 327.499 718.012 329.816 718.695 333.346C719.378 336.877 717.062 340.305 713.531 340.988Z" fill="#E0E0E0"/>
<path d="M716.667 281.74C715.831 281.488 715.123 280.559 714.905 279.429L712.858 268.854C716.981 262.752 715.778 264.561 716.127 263.875C717.231 261.922 717.711 259.604 717.252 257.235C716.227 251.938 711.085 248.464 705.789 249.489C703.419 249.947 701.448 251.257 700.048 253.01C699.423 253.726 703.079 248.384 671.455 295.185L674.066 308.675L687.738 306.029L707.694 276.495L708.502 280.668C709.189 284.217 711.593 287.02 714.781 287.983C715.947 288.335 716.814 289.295 717.045 290.488C717.387 292.253 716.228 293.968 714.463 294.309C712.698 294.651 710.984 293.493 710.642 291.727C710.3 289.959 708.588 288.803 706.821 289.145C705.054 289.487 703.897 291.198 704.239 292.966C705.264 298.262 710.406 301.737 715.702 300.712C720.998 299.687 724.473 294.545 723.448 289.249C722.755 285.67 720.155 282.792 716.667 281.74ZM708.268 262.295C706.502 262.636 704.788 261.478 704.446 259.713C704.105 257.947 705.263 256.233 707.028 255.892C708.794 255.55 710.508 256.708 710.849 258.474C711.191 260.239 710.033 261.953 708.268 262.295Z" fill="#E0E0E0"/>
<path d="M113.725 679.485L59.3242 690.139L54.9638 667.607C54.6215 665.839 52.9101 664.683 51.1427 665.025L36.2026 667.916C30.9065 668.941 27.4319 674.083 28.4568 679.379L30.6785 690.86L27.784 695.143C26.3198 697.309 25.788 699.914 26.2846 702.48L26.3731 702.937L35.9775 701.079C37.7461 700.736 39.4566 701.893 39.7986 703.661C40.1406 705.428 39.0265 707.353 37.2579 707.695L27.6536 709.554L28.2495 712.633C29.2744 717.929 34.4165 721.404 39.7126 720.379L45.0483 719.346C46.4149 726.408 53.2707 731.041 60.3324 729.674C67.394 728.308 72.0267 721.452 70.6601 714.39L89.8689 710.673C91.2355 717.734 98.0913 722.367 105.153 721C112.215 719.634 116.847 712.778 115.481 705.716L118.682 705.097C123.978 704.072 127.453 698.93 126.428 693.634L125.189 687.231C124.164 681.935 119.022 678.46 113.725 679.485ZM36.7186 687.745L34.8599 678.141C34.5183 676.375 35.6766 674.661 37.4419 674.319L49.1805 672.048L51.6587 684.854L36.7186 687.745ZM59.0933 723.271C55.5625 723.954 52.1346 721.638 51.4514 718.107C50.7681 714.577 53.0844 711.149 56.6151 710.465C60.1459 709.782 63.5738 712.098 64.2571 715.629C64.9404 719.16 62.6241 722.588 59.0933 723.271ZM103.914 714.597C100.383 715.281 96.955 712.964 96.2718 709.434C95.5885 705.903 97.9048 702.475 101.436 701.792C104.966 701.108 108.394 703.425 109.077 706.955C109.761 710.486 107.444 713.914 103.914 714.597Z" fill="#E0E0E0"/>
<path d="M107.049 655.349C106.213 655.097 105.506 654.167 105.287 653.038L103.24 642.462C107.363 636.361 106.161 638.17 106.51 637.484C107.613 635.531 108.093 633.213 107.635 630.843C106.61 625.547 101.468 622.073 96.1716 623.098C93.8017 623.556 91.8307 624.866 90.4304 626.619C89.8048 627.335 93.461 621.993 61.8373 668.794L64.4478 682.283L78.1207 679.638L98.0768 650.104L98.8843 654.277C99.571 657.825 101.975 660.629 105.163 661.592C106.33 661.944 107.197 662.904 107.427 664.097C107.769 665.862 106.611 667.576 104.846 667.918C103.08 668.26 101.366 667.101 101.024 665.336C100.682 663.568 98.9707 662.412 97.2034 662.754C95.436 663.096 94.2791 664.807 94.6214 666.575C95.6463 671.871 100.788 675.346 106.084 674.321C111.38 673.296 114.855 668.154 113.83 662.858C113.137 659.278 110.537 656.401 107.049 655.349ZM98.6498 635.904C96.8845 636.245 95.1704 635.087 94.8287 633.322C94.4871 631.556 95.6454 629.842 97.4107 629.501C99.176 629.159 100.89 630.317 101.232 632.083C101.573 633.848 100.415 635.562 98.6498 635.904Z" fill="#E0E0E0"/>
<path d="M1338.73 380.485L1284.32 391.139L1279.96 368.607C1279.62 366.839 1277.91 365.683 1276.14 366.025L1261.2 368.916C1255.91 369.941 1252.43 375.083 1253.46 380.379L1255.68 391.86L1252.78 396.143C1251.32 398.309 1250.79 400.914 1251.28 403.48L1251.37 403.937L1260.98 402.079C1262.75 401.736 1264.46 402.893 1264.8 404.661C1265.14 406.428 1264.03 408.353 1262.26 408.695L1252.65 410.554L1253.25 413.633C1254.27 418.929 1259.42 422.404 1264.71 421.379L1270.05 420.346C1271.41 427.408 1278.27 432.041 1285.33 430.674C1292.39 429.308 1297.03 422.452 1295.66 415.39L1314.87 411.673C1316.24 418.734 1323.09 423.367 1330.15 422C1337.21 420.634 1341.85 413.778 1340.48 406.716L1343.68 406.097C1348.98 405.072 1352.45 399.93 1351.43 394.634L1350.19 388.231C1349.16 382.935 1344.02 379.46 1338.73 380.485ZM1261.72 388.745L1259.86 379.141C1259.52 377.375 1260.68 375.661 1262.44 375.319L1274.18 373.048L1276.66 385.854L1261.72 388.745ZM1284.09 424.271C1280.56 424.954 1277.13 422.638 1276.45 419.107C1275.77 415.577 1278.08 412.149 1281.62 411.465C1285.15 410.782 1288.57 413.098 1289.26 416.629C1289.94 420.16 1287.62 423.588 1284.09 424.271ZM1328.91 415.597C1325.38 416.281 1321.96 413.964 1321.27 410.434C1320.59 406.903 1322.9 403.475 1326.44 402.792C1329.97 402.108 1333.39 404.425 1334.08 407.955C1334.76 411.486 1332.44 414.914 1328.91 415.597Z" fill="#E0E0E0"/>
<path d="M1332.05 356.349C1331.21 356.097 1330.51 355.167 1330.29 354.038L1328.24 343.462C1332.36 337.361 1331.16 339.17 1331.51 338.484C1332.61 336.531 1333.09 334.213 1332.63 331.843C1331.61 326.547 1326.47 323.073 1321.17 324.098C1318.8 324.556 1316.83 325.866 1315.43 327.619C1314.8 328.335 1318.46 322.993 1286.84 369.794L1289.45 383.283L1303.12 380.638L1323.08 351.104L1323.88 355.277C1324.57 358.825 1326.98 361.629 1330.16 362.592C1331.33 362.944 1332.2 363.904 1332.43 365.097C1332.77 366.862 1331.61 368.576 1329.85 368.918C1328.08 369.26 1326.37 368.101 1326.02 366.336C1325.68 364.568 1323.97 363.412 1322.2 363.754C1320.44 364.096 1319.28 365.807 1319.62 367.575C1320.65 372.871 1325.79 376.346 1331.08 375.321C1336.38 374.296 1339.86 369.154 1338.83 363.858C1338.14 360.278 1335.54 357.401 1332.05 356.349ZM1323.65 336.904C1321.88 337.245 1320.17 336.087 1319.83 334.322C1319.49 332.556 1320.65 330.842 1322.41 330.501C1324.18 330.159 1325.89 331.317 1326.23 333.083C1326.57 334.848 1325.42 336.562 1323.65 336.904Z" fill="#E0E0E0"/>
<path d="M428.04 662.485L482.441 673.139L486.801 650.607C487.144 648.839 488.855 647.683 490.622 648.025L505.563 650.916C510.859 651.941 514.333 657.083 513.308 662.379L511.087 673.86L513.981 678.143C515.445 680.309 515.977 682.914 515.481 685.48L515.392 685.937L505.788 684.079C504.019 683.736 502.309 684.893 501.967 686.661C501.625 688.428 502.739 690.353 504.507 690.695L514.112 692.554L513.516 695.633C512.491 700.929 507.349 704.404 502.053 703.379L496.717 702.346C495.35 709.408 488.494 714.041 481.433 712.674C474.371 711.308 469.738 704.452 471.105 697.39L451.896 693.673C450.53 700.734 443.674 705.367 436.612 704C429.551 702.634 424.918 695.778 426.284 688.716L423.083 688.097C417.787 687.072 414.312 681.93 415.337 676.634L416.576 670.231C417.602 664.935 422.744 661.46 428.04 662.485ZM505.047 670.745L506.905 661.141C507.247 659.375 506.089 657.661 504.323 657.319L492.585 655.048L490.106 667.854L505.047 670.745ZM482.672 706.271C486.203 706.954 489.63 704.638 490.314 701.107C490.997 697.577 488.681 694.149 485.15 693.465C481.619 692.782 478.191 695.098 477.508 698.629C476.825 702.16 479.141 705.588 482.672 706.271ZM437.851 697.597C441.382 698.281 444.81 695.964 445.493 692.434C446.177 688.903 443.86 685.475 440.33 684.792C436.799 684.108 433.371 686.425 432.688 689.955C432.004 693.486 434.321 696.914 437.851 697.597Z" fill="#E0E0E0"/>
<path d="M434.716 638.349C435.552 638.097 436.26 637.167 436.478 636.038L438.525 625.462C434.402 619.361 435.605 621.17 435.255 620.484C434.152 618.531 433.672 616.213 434.13 613.843C435.155 608.547 440.297 605.073 445.594 606.098C447.963 606.556 449.934 607.866 451.335 609.619C451.96 610.335 448.304 604.993 479.928 651.794L477.317 665.283L463.644 662.638L443.688 633.104L442.881 637.277C442.194 640.825 439.79 643.629 436.602 644.592C435.435 644.944 434.569 645.904 434.338 647.097C433.996 648.862 435.154 650.576 436.92 650.918C438.685 651.26 440.399 650.101 440.741 648.336C441.083 646.568 442.794 645.412 444.562 645.754C446.329 646.096 447.486 647.807 447.144 649.575C446.119 654.871 440.977 658.346 435.681 657.321C430.385 656.296 426.91 651.154 427.935 645.858C428.628 642.278 431.228 639.401 434.716 638.349ZM443.115 618.904C444.881 619.245 446.595 618.087 446.936 616.322C447.278 614.556 446.12 612.842 444.354 612.501C442.589 612.159 440.875 613.317 440.533 615.083C440.192 616.848 441.35 618.562 443.115 618.904Z" fill="#E0E0E0"/>
<path d="M1005.35 742.876L1059.75 753.53L1064.11 730.998C1064.45 729.23 1066.16 728.074 1067.93 728.416L1082.87 731.308C1088.17 732.332 1091.64 737.475 1090.62 742.771L1088.4 754.251L1091.29 758.534C1092.75 760.7 1093.29 763.305 1092.79 765.871L1092.7 766.328L1083.1 764.47C1081.33 764.127 1079.62 765.284 1079.28 767.052C1078.93 768.819 1080.05 770.744 1081.82 771.086L1091.42 772.945L1090.82 776.024C1089.8 781.32 1084.66 784.795 1079.36 783.77L1074.03 782.738C1072.66 789.799 1065.8 794.432 1058.74 793.065C1051.68 791.699 1047.05 784.843 1048.41 777.781L1029.2 774.064C1027.84 781.125 1020.98 785.758 1013.92 784.391C1006.86 783.025 1002.23 776.169 1003.59 769.107L1000.39 768.488C995.095 767.463 991.621 762.321 992.646 757.025L993.885 750.622C994.91 745.326 1000.05 741.851 1005.35 742.876ZM1082.36 751.136L1084.21 741.532C1084.56 739.766 1083.4 738.052 1081.63 737.711L1069.89 735.439L1067.42 748.245L1082.36 751.136ZM1059.98 786.662C1063.51 787.345 1066.94 785.029 1067.62 781.498C1068.31 777.968 1065.99 774.54 1062.46 773.856C1058.93 773.173 1055.5 775.489 1054.82 779.02C1054.13 782.551 1056.45 785.979 1059.98 786.662ZM1015.16 777.988C1018.69 778.672 1022.12 776.355 1022.8 772.825C1023.49 769.294 1021.17 765.866 1017.64 765.183C1014.11 764.499 1010.68 766.816 1010 770.346C1009.31 773.877 1011.63 777.305 1015.16 777.988Z" fill="#E0E0E0"/>
<path d="M1012.02 718.74C1012.86 718.488 1013.57 717.559 1013.79 716.429L1015.83 705.854C1011.71 699.752 1012.91 701.561 1012.56 700.875C1011.46 698.922 1010.98 696.604 1011.44 694.235C1012.46 688.938 1017.61 685.464 1022.9 686.489C1025.27 686.947 1027.24 688.257 1028.64 690.01C1029.27 690.726 1025.61 685.384 1057.24 732.185L1054.63 745.675L1040.95 743.029L1021 713.495L1020.19 717.668C1019.5 721.217 1017.1 724.02 1013.91 724.983C1012.74 725.335 1011.88 726.295 1011.65 727.488C1011.3 729.253 1012.46 730.968 1014.23 731.309C1015.99 731.651 1017.71 730.493 1018.05 728.727C1018.39 726.959 1020.1 725.803 1021.87 726.145C1023.64 726.487 1024.79 728.198 1024.45 729.966C1023.43 735.262 1018.29 738.737 1012.99 737.712C1007.69 736.687 1004.22 731.545 1005.24 726.249C1005.94 722.67 1008.54 719.792 1012.02 718.74ZM1020.42 699.295C1022.19 699.636 1023.9 698.478 1024.24 696.713C1024.59 694.947 1023.43 693.233 1021.66 692.892C1019.9 692.55 1018.18 693.708 1017.84 695.474C1017.5 697.239 1018.66 698.953 1020.42 699.295Z" fill="#E0E0E0"/>
<path d="M357.305 59.3949L411.301 71.941L416.445 49.575C416.849 47.8194 418.6 46.7244 420.354 47.1279L435.184 50.5388C440.441 51.748 443.734 57.0082 442.525 62.2652L439.904 73.6608L442.648 78.0429C444.035 80.2585 444.476 82.8802 443.89 85.4272L443.786 85.8814L434.252 83.6886C432.496 83.2849 430.747 84.3813 430.343 86.1357C429.94 87.89 430.986 89.8526 432.741 90.2564L442.275 92.4491L441.572 95.506C440.363 100.763 435.103 104.056 429.846 102.847L424.549 101.629C422.937 108.638 415.924 113.029 408.914 111.417C401.904 109.805 397.514 102.791 399.126 95.7815L380.058 91.3961C378.446 98.4056 371.433 102.796 364.423 101.184C357.414 99.5719 353.023 92.5585 354.635 85.5488L351.457 84.8178C346.2 83.6087 342.907 78.3485 344.116 73.0915L345.578 66.7357C346.788 61.4788 352.048 58.1858 357.305 59.3949ZM433.977 70.3373L436.169 60.8036C436.572 59.0513 435.475 57.2977 433.722 56.8947L422.07 54.2147L419.146 66.9264L433.977 70.3373ZM410.376 105.061C413.88 105.867 417.387 103.672 418.193 100.167C418.999 96.6622 416.804 93.1555 413.299 92.3494C409.794 91.5433 406.288 93.7386 405.482 97.2433C404.676 100.748 406.871 104.255 410.376 105.061ZM365.885 94.8282C369.39 95.6343 372.897 93.439 373.703 89.9343C374.509 86.4295 372.314 82.9228 368.809 82.1167C365.304 81.3106 361.797 83.5059 360.991 87.0107C360.185 90.5154 362.38 94.0221 365.885 94.8282Z" fill="#E0E0E0"/>
<path d="M364.82 35.5066C365.664 35.2837 366.404 34.3796 366.662 33.2583L369.076 22.7607C365.169 16.5193 366.308 18.3688 365.983 17.6708C364.948 15.6805 364.549 13.3479 365.09 10.9954C366.299 5.73838 371.559 2.44538 376.816 3.65449C379.169 4.19554 381.093 5.57359 382.431 7.37367C383.032 8.11114 379.564 2.64524 409.535 50.5212L406.455 63.9114L392.883 60.7898L373.97 30.5782L373.017 34.7202C372.207 38.2425 369.707 40.9601 366.487 41.8119C365.309 42.1225 364.409 43.0515 364.137 44.236C363.734 45.9883 364.831 47.7418 366.584 48.1449C368.336 48.5479 370.089 47.4501 370.492 45.6978C370.896 43.9423 372.647 42.8473 374.401 43.2508C376.156 43.6543 377.252 45.4041 376.848 47.1597C375.639 52.4167 370.379 55.7097 365.122 54.5006C359.865 53.2915 356.572 48.0313 357.781 42.7742C358.598 39.2211 361.298 36.436 364.82 35.5066ZM373.893 16.3661C375.645 16.7691 377.399 15.6714 377.802 13.9191C378.205 12.1668 377.107 10.4132 375.355 10.0102C373.602 9.60718 371.849 10.7049 371.446 12.4572C371.043 14.2096 372.141 15.9631 373.893 16.3661Z" fill="#E0E0E0"/>
<path d="M936.305 83.3949L990.301 95.941L995.445 73.575C995.849 71.8194 997.6 70.7244 999.354 71.1279L1014.18 74.5388C1019.44 75.748 1022.73 81.0082 1021.53 86.2652L1018.9 97.6608L1021.65 102.043C1023.04 104.259 1023.48 106.88 1022.89 109.427L1022.79 109.881L1013.25 107.689C1011.5 107.285 1009.75 108.381 1009.34 110.136C1008.94 111.89 1009.99 113.853 1011.74 114.256L1021.27 116.449L1020.57 119.506C1019.36 124.763 1014.1 128.056 1008.85 126.847L1003.55 125.629C1001.94 132.638 994.924 137.029 987.914 135.417C980.904 133.805 976.514 126.791 978.126 119.781L959.058 115.396C957.446 122.406 950.433 126.796 943.423 125.184C936.414 123.572 932.023 116.559 933.635 109.549L930.457 108.818C925.2 107.609 921.907 102.349 923.116 97.0915L924.578 90.7357C925.788 85.4788 931.048 82.1858 936.305 83.3949ZM1012.98 94.3373L1015.17 84.8036C1015.57 83.0513 1014.47 81.2977 1012.72 80.8947L1001.07 78.2147L998.146 90.9264L1012.98 94.3373ZM989.376 129.061C992.88 129.867 996.387 127.672 997.193 124.167C997.999 120.662 995.804 117.156 992.299 116.349C988.794 115.543 985.288 117.739 984.482 121.243C983.676 124.748 985.871 128.255 989.376 129.061ZM944.885 118.828C948.39 119.634 951.897 117.439 952.703 113.934C953.509 110.429 951.314 106.923 947.809 106.117C944.304 105.311 940.797 107.506 939.991 111.011C939.185 114.515 941.38 118.022 944.885 118.828Z" fill="#E0E0E0"/>
<path d="M943.82 59.5066C944.664 59.2837 945.404 58.3796 945.662 57.2583L948.076 46.7607C944.169 40.5193 945.308 42.3688 944.983 41.6708C943.948 39.6805 943.549 37.3479 944.09 34.9954C945.299 29.7384 950.559 26.4454 955.816 27.6545C958.169 28.1955 960.093 29.5736 961.431 31.3737C962.032 32.1111 958.564 26.6452 988.535 74.5212L985.455 87.9114L971.883 84.7898L952.97 54.5782L952.017 58.7202C951.207 62.2425 948.707 64.9601 945.487 65.8119C944.309 66.1225 943.409 67.0515 943.137 68.236C942.734 69.9883 943.831 71.7418 945.584 72.1449C947.336 72.5479 949.089 71.4501 949.492 69.6978C949.896 67.9423 951.647 66.8473 953.401 67.2508C955.156 67.6543 956.252 69.4041 955.848 71.1597C954.639 76.4167 949.379 79.7097 944.122 78.5006C938.865 77.2915 935.572 72.0313 936.781 66.7742C937.598 63.2211 940.298 60.436 943.82 59.5066ZM952.893 40.3661C954.645 40.7691 956.399 39.6714 956.802 37.9191C957.205 36.1668 956.107 34.4132 954.355 34.0102C952.602 33.6072 950.849 34.7049 950.446 36.4572C950.043 38.2096 951.141 39.9631 952.893 40.3661Z" fill="#E0E0E0"/>
<path d="M285.078 517.395L231.082 529.941L225.937 507.575C225.534 505.819 223.783 504.724 222.029 505.128L207.198 508.539C201.941 509.748 198.648 515.008 199.858 520.265L202.478 531.661L199.735 536.043C198.348 538.259 197.907 540.88 198.493 543.427L198.597 543.881L208.131 541.689C209.886 541.285 211.636 542.381 212.04 544.136C212.443 545.89 211.397 547.853 209.641 548.256L200.108 550.449L200.811 553.506C202.02 558.763 207.28 562.056 212.537 560.847L217.834 559.629C219.446 566.638 226.459 571.029 233.469 569.417C240.479 567.805 244.869 560.791 243.257 553.781L262.324 549.396C263.937 556.406 270.95 560.796 277.96 559.184C284.969 557.572 289.36 550.559 287.748 543.549L290.926 542.818C296.183 541.609 299.476 536.349 298.266 531.091L296.805 524.736C295.595 519.479 290.335 516.186 285.078 517.395ZM208.406 528.337L206.213 518.804C205.81 517.051 206.908 515.298 208.66 514.895L220.313 512.215L223.236 524.926L208.406 528.337ZM232.007 563.061C228.502 563.867 224.996 561.672 224.19 558.167C223.384 554.662 225.579 551.156 229.084 550.349C232.588 549.543 236.095 551.739 236.901 555.243C237.707 558.748 235.512 562.255 232.007 563.061ZM276.498 552.828C272.993 553.634 269.486 551.439 268.68 547.934C267.874 544.429 270.069 540.923 273.574 540.117C277.079 539.311 280.585 541.506 281.391 545.011C282.198 548.515 280.002 552.022 276.498 552.828Z" fill="#E0E0E0"/>
<path d="M277.563 493.507C276.718 493.284 275.979 492.38 275.721 491.258L273.307 480.761C277.214 474.519 276.075 476.369 276.4 475.671C277.435 473.68 277.834 471.348 277.293 468.995C276.084 463.738 270.823 460.445 265.566 461.654C263.214 462.196 261.29 463.574 259.951 465.374C259.351 466.111 262.819 460.645 232.848 508.521L235.927 521.911L249.5 518.79L268.413 488.578L269.366 492.72C270.176 496.242 272.676 498.96 275.896 499.812C277.074 500.123 277.974 501.051 278.246 502.236C278.649 503.988 277.552 505.742 275.799 506.145C274.047 506.548 272.293 505.45 271.89 503.698C271.487 501.942 269.736 500.847 267.981 501.251C266.227 501.654 265.131 503.404 265.534 505.16C266.744 510.417 272.004 513.71 277.261 512.501C282.518 511.292 285.811 506.031 284.602 500.774C283.785 497.221 281.085 494.436 277.563 493.507ZM268.49 474.366C266.738 474.769 264.984 473.671 264.581 471.919C264.178 470.167 265.276 468.413 267.028 468.01C268.78 467.607 270.534 468.705 270.937 470.457C271.34 472.21 270.242 473.963 268.49 474.366Z" fill="#E0E0E0"/>
<path d="M765.078 570.395L711.082 582.941L705.937 560.575C705.534 558.819 703.783 557.724 702.029 558.128L687.198 561.539C681.941 562.748 678.648 568.008 679.858 573.265L682.478 584.661L679.735 589.043C678.348 591.259 677.907 593.88 678.493 596.427L678.597 596.881L688.131 594.689C689.886 594.285 691.636 595.381 692.04 597.136C692.443 598.89 691.397 600.853 689.641 601.256L680.108 603.449L680.811 606.506C682.02 611.763 687.28 615.056 692.537 613.847L697.834 612.629C699.446 619.638 706.459 624.029 713.469 622.417C720.479 620.805 724.869 613.791 723.257 606.781L742.324 602.396C743.937 609.406 750.95 613.796 757.96 612.184C764.969 610.572 769.36 603.559 767.748 596.549L770.926 595.818C776.183 594.609 779.476 589.349 778.266 584.091L776.805 577.736C775.595 572.479 770.335 569.186 765.078 570.395ZM688.406 581.337L686.213 571.804C685.81 570.051 686.908 568.298 688.66 567.895L700.313 565.215L703.236 577.926L688.406 581.337ZM712.007 616.061C708.502 616.867 704.996 614.672 704.19 611.167C703.384 607.662 705.579 604.156 709.084 603.349C712.588 602.543 716.095 604.739 716.901 608.243C717.707 611.748 715.512 615.255 712.007 616.061ZM756.498 605.828C752.993 606.634 749.486 604.439 748.68 600.934C747.874 597.429 750.069 593.923 753.574 593.117C757.079 592.311 760.585 594.506 761.391 598.011C762.198 601.515 760.002 605.022 756.498 605.828Z" fill="#E0E0E0"/>
<path d="M757.563 546.507C756.718 546.284 755.979 545.38 755.721 544.258L753.307 533.761C757.214 527.519 756.075 529.369 756.4 528.671C757.435 526.68 757.834 524.348 757.293 521.995C756.084 516.738 750.823 513.445 745.566 514.654C743.214 515.196 741.29 516.574 739.951 518.374C739.351 519.111 742.819 513.645 712.848 561.521L715.927 574.911L729.5 571.79L748.413 541.578L749.366 545.72C750.176 549.242 752.676 551.96 755.896 552.812C757.074 553.123 757.974 554.051 758.246 555.236C758.649 556.988 757.552 558.742 755.799 559.145C754.047 559.548 752.293 558.45 751.89 556.698C751.487 554.942 749.736 553.847 747.981 554.251C746.227 554.654 745.131 556.404 745.534 558.16C746.744 563.417 752.004 566.71 757.261 565.501C762.518 564.292 765.811 559.031 764.602 553.774C763.785 550.221 761.085 547.436 757.563 546.507ZM748.49 527.366C746.738 527.769 744.984 526.671 744.581 524.919C744.178 523.167 745.276 521.413 747.028 521.01C748.78 520.607 750.534 521.705 750.937 523.457C751.34 525.21 750.242 526.963 748.49 527.366Z" fill="#E0E0E0"/>
<path d="M1316.08 553.607L1262.08 566.153L1256.94 543.787C1256.53 542.031 1254.78 540.936 1253.03 541.34L1238.2 544.751C1232.94 545.96 1229.65 551.22 1230.86 556.477L1233.48 567.873L1230.74 572.255C1229.35 574.47 1228.91 577.092 1229.49 579.639L1229.6 580.093L1239.13 577.9C1240.89 577.497 1242.64 578.593 1243.04 580.347C1243.44 582.102 1242.4 584.064 1240.64 584.468L1231.11 586.661L1231.81 589.718C1233.02 594.975 1238.28 598.268 1243.54 597.059L1248.83 595.84C1250.45 602.85 1257.46 607.241 1264.47 605.628C1271.48 604.016 1275.87 597.003 1274.26 589.993L1293.32 585.608C1294.94 592.617 1301.95 597.008 1308.96 595.396C1315.97 593.784 1320.36 586.77 1318.75 579.76L1321.93 579.03C1327.18 577.82 1330.48 572.56 1329.27 567.303L1327.8 560.947C1326.6 555.69 1321.33 552.397 1316.08 553.607ZM1239.41 564.549L1237.21 555.015C1236.81 553.263 1237.91 551.509 1239.66 551.106L1251.31 548.426L1254.24 561.138L1239.41 564.549ZM1263.01 599.273C1259.5 600.079 1256 597.883 1255.19 594.379C1254.38 590.874 1256.58 587.367 1260.08 586.561C1263.59 585.755 1267.09 587.95 1267.9 591.455C1268.71 594.96 1266.51 598.466 1263.01 599.273ZM1307.5 589.04C1303.99 589.846 1300.49 587.651 1299.68 584.146C1298.87 580.641 1301.07 577.134 1304.57 576.328C1308.08 575.522 1311.59 577.718 1312.39 581.222C1313.2 584.727 1311 588.234 1307.5 589.04Z" fill="#E0E0E0"/>
<path d="M1308.56 529.718C1307.72 529.495 1306.98 528.591 1306.72 527.47L1304.31 516.972C1308.21 510.731 1307.08 512.58 1307.4 511.882C1308.43 509.892 1308.83 507.56 1308.29 505.207C1307.08 499.95 1301.82 496.657 1296.57 497.866C1294.21 498.407 1292.29 499.785 1290.95 501.585C1290.35 502.323 1293.82 496.857 1263.85 544.733L1266.93 558.123L1280.5 555.002L1299.41 524.79L1300.37 528.932C1301.18 532.454 1303.68 535.172 1306.9 536.024C1308.07 536.334 1308.97 537.263 1309.25 538.448C1309.65 540.2 1308.55 541.954 1306.8 542.357C1305.05 542.76 1303.29 541.662 1302.89 539.909C1302.49 538.154 1300.74 537.059 1298.98 537.462C1297.23 537.866 1296.13 539.616 1296.53 541.371C1297.74 546.628 1303 549.921 1308.26 548.712C1313.52 547.503 1316.81 542.243 1315.6 536.986C1314.78 533.433 1312.09 530.648 1308.56 529.718ZM1299.49 510.578C1297.74 510.981 1295.98 509.883 1295.58 508.131C1295.18 506.378 1296.28 504.625 1298.03 504.222C1299.78 503.819 1301.53 504.917 1301.94 506.669C1302.34 508.421 1301.24 510.175 1299.49 510.578Z" fill="#E0E0E0"/>
</g>
<defs>
<clipPath id="clip0_1503_131">
<rect width="1440" height="849" fill="white"/>
</clipPath>
</defs>
</svg>
